<?xml version="1.0" encoding="UTF-8"?>
<svg version="1.1" xmlns="http://www.w3.org/2000/svg" width="1261" height="1344">
<path d="M0 0 C15.89665398 13.05894972 24.11058555 33.8974082 26.38110352 53.9152832 C28.6110165 81.72896725 23.85536058 107.79574585 15.56640625 134.2265625 C15.2945752 135.09587402 15.02274414 135.96518555 14.74267578 136.86083984 C9.45178145 153.46575929 2.55065308 169.73712364 -5.43359375 185.2265625 C-4.45241577 185.48832275 -4.45241577 185.48832275 -3.45141602 185.75537109 C1.4849705 187.08528708 6.39875562 188.46212699 11.2890625 189.953125 C34.12271653 196.84218152 57.39890318 201.49518755 80.74316406 206.29003906 C164.98735994 223.59895799 164.98735994 223.59895799 192.56640625 248.2265625 C193.40429688 248.93425781 194.2421875 249.64195312 195.10546875 250.37109375 C209.94150589 263.16773605 221.19846256 280.44586117 223.56640625 300.2265625 C225.36390149 330.68271426 216.81214022 355.11222688 196.546875 378.0546875 C188.17873344 387.17548965 178.36478821 394.22883264 167.56640625 400.2265625 C166.97553223 400.5575293 166.3846582 400.88849609 165.77587891 401.22949219 C135.89423285 417.74698498 101.28602649 422.67799912 67.56640625 422.5390625 C66.62175507 422.53690735 65.67710388 422.5347522 64.7038269 422.53253174 C49.80710333 422.47813372 35.25740383 421.87459957 20.56640625 419.2265625 C19.50663574 419.04383789 18.44686523 418.86111328 17.35498047 418.67285156 C-16.3056964 412.70593198 -47.49997842 400.50135539 -77.43359375 384.2265625 C-77.66882248 385.3130307 -77.90405121 386.3994989 -78.14640808 387.51889038 C-80.5647882 398.59762779 -83.229272 409.594898 -86.046875 420.578125 C-86.49367444 422.32800022 -86.94027798 424.07792547 -87.38670349 425.82789612 C-88.58581219 430.52445159 -89.78887338 435.21998536 -90.9931488 439.91521835 C-91.75374952 442.88141855 -92.51340967 445.84785823 -93.27282715 448.81436157 C-114.92603055 533.38345619 -136.78143015 617.93551305 -200.43359375 817.2265625 C-201.42359375 817.2265625 -202.41359375 817.2265625 -203.43359375 817.2265625 C-207.86006791 808.37361419 -203.94067066 791.71334009 -202.62109375 782.4765625 C-202.51378937 781.70804962 -202.40648499 780.93953674 -202.29592896 780.1477356 C-190.28359361 694.7823708 -170.62681643 610.26974028 -152.89517593 525.95635986 C-151.99147382 521.65920175 -151.08840837 517.36191014 -150.18553227 513.06457841 C-136.59671967 448.38956511 -136.59671967 448.38956511 -129.88017273 417.68336296 C-129.18885412 414.51912156 -128.50046184 411.35426048 -127.81335449 408.18910217 C-127.59778522 407.19624301 -127.38221596 406.20338385 -127.16011429 405.18043804 C-126.74195926 403.25415442 -126.32394313 401.32784063 -125.90607834 399.40149403 C-124.7450663 394.05969926 -123.56214506 388.72340806 -122.36065006 383.39058018 C-121.65646336 380.24450584 -120.971273 377.09453296 -120.29164696 373.94307137 C-119.98319155 372.53342334 -119.66633264 371.12558148 -119.34011269 369.71993828 C-118.90752685 367.85339617 -118.50683342 365.97954583 -118.1081543 364.10546875 C-117.87903854 363.0801001 -117.64992279 362.05473145 -117.41386414 360.99829102 C-117.44065652 357.23434469 -118.86689944 355.87536161 -121.43359375 353.2265625 C-123.29485304 351.64276951 -123.29485304 351.64276951 -125.18359375 350.4140625 C-126.79234375 349.33125 -126.79234375 349.33125 -128.43359375 348.2265625 C-131.92888233 351.94789282 -135.41841303 355.67454419 -138.8984375 359.41015625 C-139.4874585 360.04236084 -140.07647949 360.67456543 -140.68334961 361.32592773 C-143.66910467 364.56823533 -146.57439942 367.87250762 -149.43359375 371.2265625 C-151.39088695 373.51911919 -153.34949849 375.81054564 -155.30859375 378.1015625 C-155.8286499 378.7104834 -156.34870605 379.3194043 -156.88452148 379.94677734 C-159.91317209 383.48375614 -162.98546558 386.97091213 -166.12109375 390.4140625 C-169.86853181 394.5503224 -173.43284418 398.80435499 -176.94140625 403.14453125 C-178.73752984 405.36575619 -180.54367911 407.57556627 -182.36328125 409.77734375 C-190.41640295 419.55220185 -198.09483248 429.57711054 -205.61669922 439.765625 C-206.78726698 441.35112931 -207.96056266 442.93462505 -209.13720703 444.515625 C-243.19607742 490.31858465 -269.41724373 541.70950573 -279.43359375 598.2265625 C-279.64757812 599.41894531 -279.8615625 600.61132812 -280.08203125 601.83984375 C-280.40921875 603.66782609 -280.73002192 605.49698737 -281.0390625 607.328125 C-281.43359375 609.2265625 -281.43359375 609.2265625 -282.43359375 611.2265625 C-282.05983366 613.42760461 -281.59049152 615.61255479 -281.08178711 617.78637695 C-280.92576019 618.46185074 -280.76973328 619.13732452 -280.60897827 619.83326721 C-280.08681186 622.08698683 -279.55498099 624.33831898 -279.0234375 626.58984375 C-278.65453474 628.176447 -278.28634741 629.76321674 -277.9188385 631.35014343 C-276.94222904 635.5605145 -275.95793264 639.76904776 -274.97143555 643.97711182 C-259.66400063 709.30138799 -259.66400063 709.30138799 -257.18359375 729.7890625 C-255.74799416 741.04088914 -254.21271946 752.18026018 -251.6315918 763.234375 C-244.41351704 794.38052009 -241.15032918 829.73443707 -248.43359375 861.2265625 C-248.6052002 862.01289062 -248.77680664 862.79921875 -248.95361328 863.609375 C-251.49929653 875.07518695 -255.18265819 885.72180942 -260.43359375 896.2265625 C-261.23410156 897.82951172 -261.23410156 897.82951172 -262.05078125 899.46484375 C-269.14954781 912.55850169 -279.17634135 923.14411604 -293.43359375 928.2265625 C-302.12375828 930.02686138 -310.47920714 929.4236555 -318.0546875 924.53515625 C-321.03120181 922.25395568 -323.78267119 919.87748506 -326.43359375 917.2265625 C-329.14547918 917.18533949 -331.79082959 917.2383523 -334.49609375 917.3515625 C-341.37097421 917.4849996 -346.53890784 917.07985104 -352.43359375 913.2265625 C-353.10390625 912.82566406 -353.77421875 912.42476562 -354.46484375 912.01171875 C-371.39103747 900.78184022 -377.315883 877.84421648 -381.3359375 859.13671875 C-386.0899014 835.03815251 -386.15581588 809.65911819 -384.80859375 785.2265625 C-384.77024414 784.51533234 -384.73189453 783.80410217 -384.69238281 783.07131958 C-383.70322173 765.41378788 -381.67162108 747.8579428 -379.64208984 730.29492188 C-376.84018212 705.96550188 -375.07695725 681.92860916 -375.11791992 657.42382812 C-375.12108037 653.49320689 -375.09749273 649.56334174 -375.07226562 645.6328125 C-375.03197711 628.54675763 -376.14168802 611.88563299 -378.16316223 594.93865967 C-378.43359375 592.2265625 -378.43359375 592.2265625 -378.43359375 588.2265625 C-379.17609375 588.0615625 -379.91859375 587.8965625 -380.68359375 587.7265625 C-385.54877 585.07283 -386.94606332 579.65839478 -388.671875 574.58984375 C-389.04309324 573.24313798 -389.40015708 571.89248306 -389.74609375 570.5390625 C-389.95210205 569.75128418 -390.15811035 568.96350586 -390.37036133 568.15185547 C-392.34401233 560.24420493 -393.74590571 552.23658254 -395.19268799 544.2208252 C-397.69180786 530.39964909 -400.62743526 516.82953216 -404.37109375 503.2890625 C-404.58376892 502.51961304 -404.79644409 501.75016357 -405.01556396 500.95739746 C-406.27305643 496.42480024 -407.54806725 491.89726581 -408.82824707 487.37103271 C-413.34514543 471.36969941 -417.60256365 455.45130455 -420.42871094 439.05371094 C-422.24319767 428.7276319 -424.59706293 418.55375929 -426.99609375 408.3515625 C-432.0512603 386.80071111 -432.0512603 386.80071111 -433.93359375 376.9140625 C-434.08127197 376.14658691 -434.2289502 375.37911133 -434.38110352 374.58837891 C-436.38335842 363.66048369 -436.63691024 352.8046925 -436.62109375 341.7265625 C-436.6204895 340.94034515 -436.61988525 340.15412781 -436.6192627 339.34408569 C-436.44863887 256.52598518 -425.06566107 168.57148652 -382.1015625 56.72265625 C-379.59873728 51.90953083 -377.54778627 47.01687033 -375.59375 41.96118164 C-369.64535343 26.60618153 -362.28228177 11.22874419 -346.43359375 4.2265625 C-335.07946897 0.44185424 -321.57538201 5.08351744 -311.04296875 9.71875 C-299.02881126 16.05408441 -291.5220649 25.0280312 -287.34350586 38.02758789 C-283.87666673 50.21594129 -282.89097242 62.06832761 -282.99609375 74.6640625 C-282.99946747 75.45892059 -283.00284119 76.25377869 -283.00631714 77.07272339 C-283.20251638 109.4183144 -289.45920904 140.91873591 -296.453125 172.390625 C-308.00099675 223.31011726 -308.00099675 223.31011726 -311.43359375 275.2265625 C-310.74394531 274.3809375 -310.05429687 273.5353125 -309.34375 272.6640625 C-293.51723741 253.46477949 -273.44896434 239.45031591 -248.07861328 236.99902344 C-228.08019144 235.70037158 -210.45575218 240.8554157 -194.94921875 253.9609375 C-181.08729373 266.44527991 -170.47202925 280.81060432 -159.81469727 296.05029297 C-150.79526789 308.89519932 -140.99169326 322.63919621 -128.43359375 332.2265625 C-124.23360453 328.1414666 -120.22687182 323.95090312 -116.40234375 319.51171875 C-114.43359375 317.2265625 -114.43359375 317.2265625 -112.81404114 315.74751282 C-106.69233274 309.73797762 -105.70012521 303.40111603 -104.4765625 295.171875 C-104.24728191 293.77152193 -104.01547587 292.37158037 -103.78134155 290.97203064 C-103.28756561 287.98913756 -102.81089406 285.00421709 -102.34793091 282.01638794 C-101.61797022 277.30638416 -100.85005541 272.60306476 -100.07592773 267.90014648 C-99.02097076 261.47340627 -97.98077805 255.0444602 -96.95019531 248.61376953 C-94.9318882 236.04122015 -92.78954424 223.4905135 -90.62417603 210.94256592 C-90.01580594 207.40372669 -89.41654996 203.86344949 -88.8190918 200.32275391 C-86.83685468 188.6744679 -84.66446213 177.11343811 -81.97914124 165.60401917 C-80.44441864 158.98799406 -80.44441864 158.98799406 -80.43359375 152.2265625 C-82.51618537 149.34623355 -82.51618537 149.34623355 -85.37109375 146.6640625 C-106.39652334 125.02113603 -117.91394039 95.74688568 -117.51367188 65.57958984 C-116.80917208 44.87846478 -110.12563738 26.91705037 -96.43359375 11.2265625 C-95.91410156 10.61167969 -95.39460938 9.99679687 -94.859375 9.36328125 C-86.640327 0.35752337 -74.81818597 -5.83973694 -63.43359375 -9.7734375 C-62.58539062 -10.09183594 -61.7371875 -10.41023438 -60.86328125 -10.73828125 C-39.66516419 -17.44380808 -17.58846396 -12.8172755 0 0 Z M-89.43359375 18.2265625 C-90.0265625 18.78730469 -90.61953125 19.34804688 -91.23046875 19.92578125 C-104.50003409 33.51638447 -108.06234976 54.1733514 -107.90673828 72.29077148 C-107.15755312 97.8703826 -95.83669866 121.27947095 -78.796875 140.02734375 C-77.48592508 141.4467233 -77.48592508 141.4467233 -75.43359375 141.2265625 C-75.25296387 140.5780835 -75.07233398 139.92960449 -74.88623047 139.26147461 C-61.04862329 89.89452163 -61.04862329 89.89452163 -45.24609375 80.2890625 C-38.80454437 78.49387661 -31.54557303 77.67365969 -25.43359375 80.9140625 C-18.62213903 86.16455885 -16.3304059 92.15493515 -14.8671875 100.4296875 C-11.90050084 126.40824099 -17.62442821 152.81647299 -22.43359375 178.2265625 C-19.60047755 179.85163446 -19.60047755 179.85163446 -16.43359375 181.2265625 C-13.32948386 180.54590628 -13.32948386 180.54590628 -12.15014648 178.1706543 C-11.72677002 177.26484619 -11.30339355 176.35903809 -10.8671875 175.42578125 C-10.38652832 174.40025146 -9.90586914 173.37472168 -9.41064453 172.31811523 C-8.64856689 170.63310913 -8.64856689 170.63310913 -7.87109375 168.9140625 C-7.34241699 167.75140869 -6.81374023 166.58875488 -6.26904297 165.39086914 C11.90551379 124.66841775 27.75473424 74.23229428 11.015625 30.44921875 C8.71220721 25.32706329 5.86561941 20.76113125 2.56640625 16.2265625 C2.09460938 15.57042969 1.6228125 14.91429687 1.13671875 14.23828125 C-6.00073199 5.14508835 -17.35680966 -1.2839841 -28.67578125 -3.453125 C-52.33213726 -6.20074709 -72.85316805 1.26468529 -89.43359375 18.2265625 Z M-345.43359375 28.2265625 C-344.7065625 28.38511719 -343.97953125 28.54367187 -343.23046875 28.70703125 C-330.20159469 31.73039818 -318.36965315 35.57042232 -310.62109375 47.1015625 C-297.15678597 71.08381335 -304.33274588 104.33615852 -308.05859375 129.9140625 C-308.23788422 131.1651178 -308.41717468 132.4161731 -308.60189819 133.70513916 C-312.16022301 158.48476077 -316.7236638 182.86329043 -322.0703125 207.30859375 C-323.02569811 211.67687459 -323.98033541 216.04531691 -324.93359375 220.4140625 C-325.17140564 221.50386414 -325.40921753 222.59366577 -325.65423584 223.7164917 C-332.74372051 256.30323518 -338.40281727 289.00246593 -341.43359375 322.2265625 C-341.5507373 323.50063965 -341.66788086 324.7747168 -341.78857422 326.08740234 C-343.32830485 343.77943356 -343.61088378 361.41572547 -343.62109375 379.1640625 C-343.6221814 380.19623901 -343.62326904 381.22841553 -343.62438965 382.29187012 C-343.62403447 385.25845575 -343.61487707 388.22485281 -343.6015625 391.19140625 C-343.60034897 392.07140793 -343.59913544 392.95140961 -343.59788513 393.858078 C-343.55649598 399.3833473 -343.12657843 404.74386126 -342.43359375 410.2265625 C-339.13359375 409.8965625 -335.83359375 409.5665625 -332.43359375 409.2265625 C-332.50288086 408.11458496 -332.57216797 407.00260742 -332.64355469 405.85693359 C-333.33749688 394.14248303 -333.64983116 382.45522026 -333.67382812 370.72070312 C-333.68356372 367.86038432 -333.71476034 365.00077793 -333.74609375 362.140625 C-333.8436145 345.77783614 -332.15603356 330.24006174 -327.890625 314.4296875 C-325.13505022 304.13712784 -324.18695628 293.90501743 -323.37802124 283.30438232 C-322.92112459 277.38648801 -322.39749484 271.47456085 -321.87109375 265.5625 C-321.76041061 264.31775909 -321.64972748 263.07301819 -321.53569031 261.79055786 C-320.21958147 247.35575247 -318.44726123 232.97897686 -316.62109375 218.6015625 C-316.45100005 217.25724399 -316.28091542 215.91292432 -316.11083984 214.56860352 C-314.23026256 199.73357001 -312.26708821 184.91026691 -310.24609375 170.09375 C-296.19473947 99.46098233 -296.19473947 99.46098233 -308.96875 31.84765625 C-312.76770598 27.1487198 -316.83311282 24.39817755 -322.43359375 22.2265625 C-323.48546875 21.8140625 -324.53734375 21.4015625 -325.62109375 20.9765625 C-333.90686414 18.76702373 -339.85234211 21.96879551 -345.43359375 28.2265625 Z M-359.43359375 55.2265625 C-376.90572147 88.56295342 -377.26901766 138.55637118 -380.21356201 175.48809814 C-380.43257365 178.2138666 -380.66152189 180.93867892 -380.89111328 183.66357422 C-383.46531964 214.90322986 -383.72335941 246.13085009 -383.7436676 277.45668793 C-383.74607174 280.63497006 -383.7513999 283.81323813 -383.75695801 286.99151611 C-383.76392161 292.08407151 -383.75782318 297.17646893 -383.74192619 302.26900291 C-383.73700597 304.15282846 -383.73497641 306.03666446 -383.736269 307.92049599 C-383.73934663 326.66225944 -382.22599064 345.09673982 -379.0859375 363.578125 C-378.86634112 364.90462718 -378.64740985 366.23123961 -378.42909241 367.55795288 C-377.86615826 370.96695598 -377.2936109 374.374271 -376.71893311 377.78131104 C-376.2488252 380.57927384 -375.78610387 383.37843688 -375.32361507 386.17766762 C-374.36784476 391.96037079 -373.40678239 397.74221707 -372.43334961 403.52197266 C-372.2639537 404.53039215 -372.0945578 405.53881165 -371.92002869 406.57778931 C-371.50711454 408.82622142 -371.02141258 411.01850562 -370.43359375 413.2265625 C-368.12359375 412.8965625 -365.81359375 412.5665625 -363.43359375 412.2265625 C-363.42772751 411.61159409 -363.42186127 410.99662567 -363.41581726 410.36302185 C-362.96219748 364.71094743 -360.79887389 320.30541959 -353.43359375 275.2265625 C-353.2566095 274.1315744 -353.2566095 274.1315744 -353.0760498 273.01446533 C-349.10340377 248.57780954 -342.90467928 224.66266675 -336.82307816 200.68619919 C-333.01308144 185.66411452 -329.21451506 170.6530899 -326.05859375 155.4765625 C-325.80335938 154.25042236 -325.548125 153.02428223 -325.28515625 151.76098633 C-320.23656488 126.83894489 -314.65444407 94.1194968 -326.43359375 70.2265625 C-332.0643481 61.85081541 -339.09992604 56.80526043 -348.9921875 54.67578125 C-354.32780415 53.9292422 -354.32780415 53.9292422 -359.43359375 55.2265625 Z M-40.81396484 115.44360352 C-44.84743545 120.02520578 -47.09753191 124.41259891 -49.05859375 130.1640625 C-49.34927734 130.98656494 -49.63996094 131.80906738 -49.93945312 132.65649414 C-54.59897179 145.26780867 -54.59897179 145.26780867 -56.40625 158.40234375 C-54.80525531 161.4050125 -52.20577131 162.68623983 -49.37109375 164.4765625 C-47.71400391 165.53617188 -47.71400391 165.53617188 -46.0234375 166.6171875 C-45.16878906 167.14828125 -44.31414062 167.679375 -43.43359375 168.2265625 C-41.59074809 164.97143803 -40.85267793 161.94265675 -40.1796875 158.2734375 C-39.96513916 157.10377441 -39.75059082 155.93411133 -39.52954102 154.72900391 C-39.31225342 153.49069824 -39.09496582 152.25239258 -38.87109375 150.9765625 C-38.64929443 149.71634277 -38.42749512 148.45612305 -38.19897461 147.15771484 C-34.87674306 130.55375148 -34.87674306 130.55375148 -37.43359375 114.2265625 C-39.49027648 114.00611704 -39.49027648 114.00611704 -40.81396484 115.44360352 Z M-396.43359375 137.2265625 C-409.48327126 207.36773437 -415.84710475 278.86353195 -415.43359375 350.2265625 C-415.42884033 351.22848633 -415.42408691 352.23041016 -415.41918945 353.26269531 C-415.18075007 376.99250847 -411.01653302 400.20863412 -405.43359375 423.2265625 C-404.59441406 422.97132813 -404.59441406 422.97132813 -403.73828125 422.7109375 C-396.3257344 420.47048926 -388.88290687 418.34113697 -381.43359375 416.2265625 C-380.09353673 412.48719708 -380.76535242 409.75875161 -381.64941406 405.94287109 C-381.9401178 404.66568207 -382.23082153 403.38849304 -382.53033447 402.07260132 C-382.68997932 401.39029827 -382.84962418 400.70799522 -383.01410675 400.00501633 C-383.5197899 397.84045162 -384.01315047 395.67339835 -384.50335693 393.50527954 C-385.89971279 387.33991179 -387.31799867 381.17964851 -388.74365234 375.02099609 C-393.1089117 356.13041379 -396.82358861 337.59239061 -398.43359375 318.2265625 C-398.49790085 317.47283356 -398.56220795 316.71910461 -398.62846375 315.9425354 C-399.00908467 311.37352728 -399.24719956 306.80680175 -399.43359375 302.2265625 C-399.49909424 300.78555176 -399.49909424 300.78555176 -399.56591797 299.31542969 C-401.72333809 250.92238975 -400.87413027 202.19850784 -396.39916992 153.95947266 C-396.33514481 153.26889267 -396.27111969 152.57831268 -396.20515442 151.86680603 C-396.0337052 150.04513166 -395.85576752 148.22407108 -395.67724609 146.40307617 C-395.44149054 143.32951358 -395.38991444 140.30770081 -395.43359375 137.2265625 C-395.76359375 137.2265625 -396.09359375 137.2265625 -396.43359375 137.2265625 Z M-58.43359375 169.2265625 C-60.02814106 173.63089224 -60.9756032 177.86950892 -61.6875 182.49609375 C-61.79327866 183.17653244 -61.89905731 183.85697113 -62.00804138 184.55802917 C-62.22973003 185.99053965 -62.44893486 187.42343651 -62.66577148 188.85668945 C-62.99369008 191.02318194 -63.32915386 193.18839754 -63.66601562 195.35351562 C-65.15990972 205.01959026 -66.58436388 214.49107843 -66.49609375 224.2890625 C-66.48707031 225.60003906 -66.47804688 226.91101563 -66.46875 228.26171875 C-66.45714844 229.24011719 -66.44554687 230.21851563 -66.43359375 231.2265625 C-65.11359375 231.2265625 -63.79359375 231.2265625 -62.43359375 231.2265625 C-58.69886164 224.46765056 -56.34685148 217.37486228 -54.02416992 210.03759766 C-53.37614986 207.99251901 -52.71723925 205.95120196 -52.05664062 203.91015625 C-46.36520286 190.11857773 -46.36520286 190.11857773 -46.43359375 176.2265625 C-49.18745083 174.20543141 -49.18745083 174.20543141 -52.49609375 172.4765625 C-53.60082031 171.86296875 -54.70554687 171.249375 -55.84375 170.6171875 C-56.69839844 170.15828125 -57.55304688 169.699375 -58.43359375 169.2265625 Z M-24.43359375 188.2265625 C-26.52807677 193.76198192 -27.4614213 199.41421229 -28.43359375 205.2265625 C-24.3916791 200.73554622 -21.99684934 195.63671261 -19.43359375 190.2265625 C-21.90859375 189.2365625 -21.90859375 189.2365625 -24.43359375 188.2265625 Z M-11.43359375 194.2265625 C-12.19929688 195.62841797 -12.19929688 195.62841797 -12.98046875 197.05859375 C-17.32970103 204.94437435 -21.87264465 212.67521912 -26.68359375 220.2890625 C-27.17827148 221.07321533 -27.67294922 221.85736816 -28.18261719 222.6652832 C-30.31493997 226.01449066 -32.4334856 229.22642581 -34.90136719 232.34570312 C-38.04172918 236.73882714 -39.32667227 241.43776152 -40.74609375 246.59765625 C-41.03668671 247.61147369 -41.32727966 248.62529114 -41.62667847 249.66983032 C-42.57624764 252.99746578 -43.50532822 256.33042722 -44.43359375 259.6640625 C-45.09435244 262.00016272 -45.75598604 264.33601564 -46.41845703 266.67163086 C-48.4475826 273.84997786 -50.445518 281.03675089 -52.43359375 288.2265625 C-52.73857788 289.32875122 -53.04356201 290.43093994 -53.35778809 291.56652832 C-57.46567213 306.43120894 -61.48705378 321.31825969 -65.43359375 336.2265625 C-65.67180847 337.12614685 -65.91002319 338.0257312 -66.15545654 338.95257568 C-67.49684929 344.02495801 -68.82943254 349.09953161 -70.14874268 354.17770386 C-70.5420953 355.69149051 -70.93671624 357.20494826 -71.33270264 358.7180481 C-71.86759246 360.7664692 -72.39587904 362.81646725 -72.921875 364.8671875 C-73.21618408 366.00704102 -73.51049316 367.14689453 -73.8137207 368.32128906 C-74.57270353 371.383443 -74.57270353 371.383443 -74.43359375 375.2265625 C-32.26472202 398.21198737 12.36060445 412.29077614 60.56640625 414.2265625 C61.58347656 414.26910156 62.60054687 414.31164062 63.6484375 414.35546875 C106.71213382 415.22020161 154.56112339 404.71886836 186.56640625 374.2265625 C203.40109734 357.55714888 214.66747492 335.78394053 214.87890625 311.7890625 C214.9108076 294.44536295 208.73587243 279.41522279 197.56640625 266.2265625 C196.86064453 265.32164062 196.86064453 265.32164062 196.140625 264.3984375 C165.76006481 226.4013425 103.54475405 220.42707839 59.48226929 211.44497681 C37.73420334 207.00056342 16.11539 202.41045783 -4.84423828 194.97851562 C-7.62442268 194.04064235 -7.62442268 194.04064235 -11.43359375 194.2265625 Z M-298.94140625 275.05859375 C-303.72252213 280.92563531 -307.90853492 287.53168939 -311.43359375 294.2265625 C-312.23071777 295.64739136 -312.23071777 295.64739136 -313.04394531 297.09692383 C-315.41932767 302.79395504 -314.83940395 309.03657572 -314.796875 315.09765625 C-314.79716072 316.48085087 -314.79855986 317.86404565 -314.80099487 319.24723816 C-314.80285136 322.9513814 -314.78428197 326.65514512 -314.76000595 330.35919952 C-314.74604545 332.67206501 -314.73728178 334.9848946 -314.73013306 337.29779053 C-314.64343093 363.97510698 -313.99146309 390.59132414 -312.43359375 417.2265625 C-312.38267578 418.12173584 -312.33175781 419.01690918 -312.27929688 419.93920898 C-309.38696773 470.68768666 -302.5577343 520.55599317 -290.87182617 570.05029297 C-290.70772751 570.75601944 -290.54362885 571.46174591 -290.3745575 572.18885803 C-289.9362934 574.06918617 -289.48903008 575.9474106 -289.04101562 577.82543945 C-288.4093874 581.36210055 -288.32611264 584.6416674 -288.43359375 588.2265625 C-286.87131894 585.34927346 -285.95738505 582.69030202 -285.2421875 579.5 C-273.5248956 529.06526655 -249.55181236 484.00237195 -219.43359375 442.2265625 C-218.85464355 441.41944824 -218.27569336 440.61233398 -217.67919922 439.78076172 C-209.8284351 428.86243697 -201.5981116 418.349478 -192.95556641 408.04833984 C-190.88138749 405.56558029 -188.8451849 403.05269302 -186.80859375 400.5390625 C-181.96751233 394.61522535 -176.97618699 388.82382104 -171.98193359 383.02929688 C-170.45518684 381.25170337 -168.93717667 379.46704235 -167.421875 377.6796875 C-161.47906989 370.68079316 -155.38443929 363.86075542 -149.1328125 357.13671875 C-144.12618895 351.73883953 -139.34211977 346.48020413 -135.43359375 340.2265625 C-135.85769531 339.8140625 -136.28179688 339.4015625 -136.71875 338.9765625 C-141.19057275 334.57353702 -145.35490119 329.99303459 -149.43359375 325.2265625 C-150.23539063 324.31390625 -151.0371875 323.40125 -151.86328125 322.4609375 C-159.06876044 314.19014999 -165.44229061 305.4236174 -171.80615234 296.49755859 C-178.87374448 286.63516105 -186.05067927 277.0230553 -194.43359375 268.2265625 C-195.04074219 267.54464844 -195.64789062 266.86273437 -196.2734375 266.16015625 C-206.78281055 254.80647838 -221.33219968 247.06827862 -236.859375 245.98828125 C-262.19652466 245.50445628 -282.20354238 256.10149234 -298.94140625 275.05859375 Z M-112.43359375 329.2265625 C-113.98815515 330.81932673 -115.50256334 332.45143344 -116.99609375 334.1015625 C-117.82238281 335.00648438 -118.64867187 335.91140625 -119.5 336.84375 C-121.64363151 338.97395613 -121.64363151 338.97395613 -121.43359375 341.2265625 C-119.87503394 342.58368416 -119.87503394 342.58368416 -117.93359375 343.8515625 C-117.28390625 344.29757812 -116.63421875 344.74359375 -115.96484375 345.203125 C-115.45953125 345.54085938 -114.95421875 345.87859375 -114.43359375 346.2265625 C-113.92614952 344.33270813 -113.42794801 342.43637584 -112.93359375 340.5390625 C-112.65515625 339.48332031 -112.37671875 338.42757813 -112.08984375 337.33984375 C-111.49442225 334.51513578 -111.30572883 332.09819542 -111.43359375 329.2265625 C-111.76359375 329.2265625 -112.09359375 329.2265625 -112.43359375 329.2265625 Z M-354.43359375 375.2265625 C-354.43359375 387.1065625 -354.43359375 398.9865625 -354.43359375 411.2265625 C-353.77359375 411.2265625 -353.11359375 411.2265625 -352.43359375 411.2265625 C-352.31457306 399.17902329 -352.57185444 387.24474827 -353.43359375 375.2265625 C-353.76359375 375.2265625 -354.09359375 375.2265625 -354.43359375 375.2265625 Z M-326.43359375 586.2265625 C-325.8032403 592.54066416 -324.466361 598.42883303 -322.79296875 604.54296875 C-322.51849915 605.55952545 -322.24402954 606.57608215 -321.96124268 607.6234436 C-321.04226203 611.01390359 -320.11355609 614.40159928 -319.18359375 617.7890625 C-318.86245605 618.96618805 -318.54131836 620.1433136 -318.21044922 621.35610962 C-313.97917781 636.84497628 -309.57579988 652.27783576 -305.01171875 667.671875 C-304.66564701 668.8393757 -304.66564701 668.8393757 -304.31258392 670.03046227 C-302.02868976 677.72967301 -299.73338301 685.4253573 -297.41644859 693.11469173 C-293.18024851 707.18096896 -289.04029487 721.24698447 -285.45703125 735.49609375 C-285.04360474 737.13459541 -285.04360474 737.13459541 -284.62182617 738.80619812 C-280.87708344 754.07101324 -278.57381674 769.55969191 -277.43359375 785.2265625 C-274.88599998 780.75597715 -275.26746217 777.12361771 -275.55859375 772.109375 C-275.60862549 771.21743439 -275.65865723 770.32549377 -275.71020508 769.40652466 C-276.3272835 760.36794653 -278.19810826 751.85685907 -280.43359375 743.1015625 C-280.87140156 741.33045645 -281.30795384 739.55903967 -281.7434082 737.78735352 C-282.99321639 732.73482074 -284.27235156 727.69013382 -285.56011963 722.64715576 C-286.48612122 719.02086078 -287.40798812 715.39352881 -288.32958984 711.76611328 C-293.29635646 692.23530425 -298.34753578 672.72661164 -303.43359375 653.2265625 C-303.61478508 652.53183083 -303.79597641 651.83709915 -303.98265839 651.121315 C-306.5826936 641.15413294 -309.19224338 631.18947423 -311.80859375 621.2265625 C-312.12533051 620.0191037 -312.44206726 618.8116449 -312.7684021 617.56759644 C-313.66256096 614.16170801 -314.55929597 610.75650977 -315.45703125 607.3515625 C-315.71566452 606.36599869 -315.97429779 605.38043488 -316.24076843 604.36500549 C-317.84964641 598.27964504 -319.58594068 592.24372711 -321.43359375 586.2265625 C-323.08359375 586.2265625 -324.73359375 586.2265625 -326.43359375 586.2265625 Z M-347.43359375 587.2265625 C-346.37236568 593.23424514 -345.24392745 599.22407654 -344.03125 605.203125 C-338.36491767 633.29846046 -335.20662193 661.10413373 -335.12109375 689.7890625 C-335.11517212 691.26493835 -335.11517212 691.26493835 -335.10913086 692.77062988 C-335.0792363 709.09500785 -336.05300092 725.21736755 -337.43359375 741.4765625 C-339.07770241 761.0162435 -339.85451777 780.42904286 -339.87109375 800.0390625 C-339.87681396 801.22802124 -339.88253418 802.41697998 -339.88842773 803.64196777 C-341.54177488 833.18834582 -341.54177488 833.18834582 -332.953125 860.01953125 C-327.07875151 864.81850456 -321.17659036 867.96408804 -313.43359375 868.2265625 C-308.65281603 867.21201578 -304.51263058 865.94592038 -300.43359375 863.2265625 C-299.71261236 860.64573186 -299.19085715 858.24939781 -298.7734375 855.6171875 C-298.58454201 854.4754306 -298.58454201 854.4754306 -298.39183044 853.31060791 C-297.19108918 845.53538279 -296.92407572 837.83417984 -296.99609375 829.9765625 C-297.00165283 828.86323547 -297.00165283 828.86323547 -297.00732422 827.72741699 C-297.56717894 747.31616151 -321.75832203 665.51082232 -338.43359375 587.2265625 C-341.40359375 587.2265625 -344.37359375 587.2265625 -347.43359375 587.2265625 Z M-355.43359375 618.2265625 C-355.4895723 618.98156036 -355.54555084 619.73655823 -355.60322571 620.51443481 C-355.97967811 625.59020982 -356.35621619 630.66597801 -356.73400879 635.74165344 C-356.78719206 636.45618903 -356.84037533 637.17072462 -356.89517021 637.9069128 C-357.00628218 639.39969415 -357.11740325 640.89247482 -357.22853279 642.38525486 C-357.57492246 647.04121402 -357.91928296 651.69731845 -358.2622633 656.35352993 C-360.37272826 684.9842112 -360.37272826 684.9842112 -361.43359375 696.58984375 C-362.93761719 713.17841811 -363.71413302 729.62586549 -363.74609375 746.2890625 C-363.74976959 747.19050995 -363.75344543 748.0919574 -363.75723267 749.02072144 C-363.79427999 766.25525408 -362.62126607 783.38275537 -359.49609375 800.3515625 C-359.33947266 801.26164062 -359.18285156 802.17171875 -359.02148438 803.109375 C-357.86530415 809.59503935 -356.25875749 815.89841218 -354.43359375 822.2265625 C-354.10359375 822.2265625 -353.77359375 822.2265625 -353.43359375 822.2265625 C-353.44406738 821.34959717 -353.45454102 820.47263184 -353.46533203 819.5690918 C-353.63548554 802.94681672 -353.57926672 786.38536525 -352.55859375 769.7890625 C-352.51464478 769.06864777 -352.4706958 768.34823303 -352.42541504 767.60598755 C-352.02096681 761.04063299 -351.58564889 754.47739686 -351.14257812 747.91455078 C-348.23734515 704.59623089 -348.02222415 661.25597491 -354.43359375 618.2265625 C-354.76359375 618.2265625 -355.09359375 618.2265625 -355.43359375 618.2265625 Z M-370.43359375 817.2265625 C-371.72335106 842.11410162 -367.17556696 873.03804049 -350.93359375 892.9140625 C-347.59739387 896.37297318 -343.77465508 899.15083662 -339.43359375 901.2265625 C-338.77359375 901.2265625 -338.11359375 901.2265625 -337.43359375 901.2265625 C-337.61462646 900.68636475 -337.79565918 900.14616699 -337.98217773 899.58959961 C-339.85121075 893.99931165 -341.69874776 888.40283982 -343.49609375 882.7890625 C-343.76429932 881.95576416 -344.03250488 881.12246582 -344.30883789 880.26391602 C-345.63312193 876.0697351 -346.74750172 872.02920672 -347.37109375 867.6640625 C-348.1940152 862.90578404 -350.58238242 859.96703064 -353.4375 856.15625 C-361.40344746 844.46454629 -365.5342959 830.6820941 -369.43359375 817.2265625 C-369.76359375 817.2265625 -370.09359375 817.2265625 -370.43359375 817.2265625 Z M-265.43359375 842.2265625 C-265.91828125 843.33773437 -266.40296875 844.44890625 -266.90234375 845.59375 C-272.77526285 858.74826016 -280.04960394 868.89057141 -290.93359375 878.4140625 C-294.10997648 881.98749307 -296.18803787 885.92494814 -298.53125 890.078125 C-302.10501507 895.99281627 -306.46100436 901.42279559 -311.43359375 906.2265625 C-310.99325383 908.20676671 -310.99325383 908.20676671 -309.43359375 910.2265625 C-303.31635296 913.39441934 -298.12036654 914.03886541 -291.43359375 912.2265625 C-281.38927408 907.93151672 -274.94051116 898.23203981 -270.77490234 888.48657227 C-265.86236022 876.202137 -264.23829854 864.33121833 -264.37109375 851.1640625 C-264.37560547 850.29845703 -264.38011719 849.43285156 -264.38476562 848.54101562 C-264.39639462 846.43616711 -264.41432302 844.33135492 -264.43359375 842.2265625 C-264.76359375 842.2265625 -265.09359375 842.2265625 -265.43359375 842.2265625 Z M-328.43359375 881.2265625 C-326.6937638 887.03917621 -324.62254485 892.05826244 -321.43359375 897.2265625 C-315.62425998 894.04526067 -312.8167739 889.8412019 -309.43359375 884.2265625 C-310.30242187 884.09378906 -311.17125 883.96101563 -312.06640625 883.82421875 C-313.21882812 883.64761719 -314.37125 883.47101562 -315.55859375 883.2890625 C-317.26402344 883.02802734 -317.26402344 883.02802734 -319.00390625 882.76171875 C-322.15092044 882.27066984 -325.29290158 881.75637531 -328.43359375 881.2265625 Z " fill="#6F7F6F" transform="translate(833.43359375,281.7734375)"/>
<path d="M0 0 C5.67480065 0.28854919 9.89935274 1.55593986 15 4 C13.6479329 12.44957923 11.6500701 20.69476862 9.48608398 28.96459961 C8.93054281 31.08910577 8.38185461 33.21530097 7.83398438 35.34179688 C5.14366692 45.71266617 5.14366692 45.71266617 4 48 C4.56565674 48.08491699 5.13131348 48.16983398 5.71411133 48.25732422 C15.53586112 49.88067639 25.08175818 52.55476427 34.6875 55.125 C36.46799497 55.59804783 38.24859318 56.07070724 40.02929688 56.54296875 C44.3540679 57.69083788 48.67740782 58.8439542 53 60 C53.14586548 59.08951904 53.14586548 59.08951904 53.29467773 58.16064453 C54.62792246 50.32557846 56.50923382 42.6640327 58.51391602 34.98046875 C59.07027206 32.84517079 59.61848664 30.707889 60.16601562 28.5703125 C60.51775395 27.21081446 60.8699499 25.85143472 61.22265625 24.4921875 C61.53984619 23.26870605 61.85703613 22.04522461 62.18383789 20.78466797 C63 18 63 18 64 17 C69.22582023 17.12580678 74.27719357 17.63859679 79 20 C79.26595898 25.71479359 78.32447601 30.50031853 76.8125 35.99609375 C76.59053955 36.82963882 76.3685791 37.6631839 76.13989258 38.52198792 C75.43471096 41.16274743 74.71756648 43.80008201 74 46.4375 C73.51743299 48.2361147 73.0356539 50.034941 72.5546875 51.83398438 C71.37889342 56.2251568 70.19236558 60.61329972 69 65 C70.23621094 65.14493896 71.47242188 65.28987793 72.74609375 65.43920898 C75.57855144 65.79392864 78.30688798 66.20994221 81.0625 66.97265625 C82.03896484 67.23852539 82.03896484 67.23852539 83.03515625 67.50976562 C83.68355469 67.69216797 84.33195313 67.87457031 85 68.0625 C85.67933594 68.24876953 86.35867188 68.43503906 87.05859375 68.62695312 C88.70709008 69.07970916 90.35375191 69.53913628 92 70 C92.1134375 68.87464844 92.226875 67.74929687 92.34375 66.58984375 C92.94645606 61.77562296 94.16528402 57.21875204 95.5 52.5625 C95.72558594 51.74845703 95.95117188 50.93441406 96.18359375 50.09570312 C97.86350356 44.13649644 97.86350356 44.13649644 99 43 C105.42480481 42.52408853 112.15374791 43.11624265 118 46 C119.65284163 48.45502494 120.09012478 50.27564255 119.7244873 53.21437073 C119.12167704 55.99579563 118.41865904 58.73310335 117.67578125 61.48046875 C117.28268013 62.99426872 117.28268013 62.99426872 116.88163757 64.53865051 C116.32479796 66.66795156 115.76030432 68.79526363 115.1887207 70.9206543 C114.31424288 74.18100196 113.46893878 77.44792587 112.62695312 80.71679688 C112.08245075 82.78430833 111.5362833 84.85138214 110.98828125 86.91796875 C110.73500565 87.89815475 110.48173004 88.87834076 110.22077942 89.88822937 C109.8510627 91.24522697 109.8510627 91.24522697 109.47387695 92.62963867 C109.26132767 93.42730148 109.04877838 94.22496429 108.82978821 95.04679871 C108 97 108 97 105 99 C98.88579865 98.61989867 92.47088442 96.6857069 87 94 C85.58970296 90.68165402 85.85757808 89.42726575 87 86 C86.01902344 85.87753906 85.03804687 85.75507812 84.02734375 85.62890625 C79.79263208 85.02394744 75.69989627 84.00875631 71.5625 82.9375 C70.83095703 82.75123047 70.09941406 82.56496094 69.34570312 82.37304688 C67.56296802 81.9186242 65.78136213 81.45977534 64 81 C63.90847656 82.03125 63.81695313 83.0625 63.72265625 84.125 C62.91927192 90.55207467 61.10298165 96.75361932 59.4375 103 C58.9434668 104.87751953 58.9434668 104.87751953 58.43945312 106.79296875 C57.63087576 109.86321905 56.81760651 112.93214419 56 116 C57.17820312 116.21914062 58.35640625 116.43828125 59.5703125 116.6640625 C66.55956454 118.22540418 73.19360487 120.84215902 79.875 123.375 C80.57497101 123.63877441 81.27494202 123.90254883 81.99612427 124.17431641 C96.25555559 129.56146852 110.17573573 135.57357392 124 142 C125.06299316 142.48968262 126.12598633 142.97936523 127.22119141 143.48388672 C141.60742023 150.1322841 155.52335671 157.3816744 169.20898438 165.37207031 C171.96033443 166.97686407 174.72150079 168.56358649 177.484375 170.1484375 C202.90988691 184.83686287 227.13773543 201.57855493 250 220 C251.39412109 221.11955078 251.39412109 221.11955078 252.81640625 222.26171875 C264.31849593 231.58728491 275.46794005 241.27558574 286.27880859 251.39208984 C288.12509783 253.11686444 289.97810619 254.83421835 291.83203125 256.55078125 C309.28863143 272.73611153 309.28863143 272.73611153 316.86328125 281.58203125 C319.19732966 284.22330358 321.6038956 286.78517583 324.02270508 289.34863281 C329.43279223 295.08459446 334.69219767 300.85616454 339.61328125 307.0234375 C341.44089473 309.30271978 343.29018778 311.55168288 345.16796875 313.7890625 C372.11188703 345.94670508 394.8747637 381.55019054 414.65087891 418.49414062 C415.83777615 420.6986852 417.04391833 422.89056426 418.26171875 425.078125 C456.75518796 494.87737612 478.149495 575.86003028 488.1875 713.25 C488.18689575 714.44653198 488.1862915 715.64306396 488.18566895 716.87585449 C488.16083819 735.00654637 487.82389197 752.94923971 486 771 C485.87641113 772.28438965 485.75282227 773.5687793 485.62548828 774.89208984 C478.23733829 850.67586284 456.75160675 923.37049677 424 992 C423.58041016 992.88445801 423.16082031 993.76891602 422.72851562 994.68017578 C416.42183774 1007.90033349 409.22386819 1020.52696959 401.72412109 1033.10302734 C400.10199502 1035.82862178 398.49598775 1038.56300664 396.89453125 1041.30078125 C390.08267015 1052.88664308 382.74990114 1064.02193415 375 1075 C374.4622998 1075.76586426 373.92459961 1076.53172852 373.37060547 1077.32080078 C366.0989065 1087.65242718 358.44978084 1097.57826193 350.39257812 1107.30761719 C348.54286922 1109.55554533 346.73962447 1111.83883383 344.9375 1114.125 C331.39809516 1131.05632255 316.4812845 1146.69773391 301.13867188 1161.99169922 C299.10167579 1164.023262 297.07018049 1166.06021836 295.0390625 1168.09765625 C293.71646683 1169.41959207 292.39356151 1170.74121817 291.0703125 1172.0625 C290.47743439 1172.65740234 289.88455627 1173.25230469 289.27371216 1173.86523438 C285.01052157 1178.10504803 280.55898587 1182.08172656 276 1186 C274.90592204 1186.95014333 273.81211277 1187.90059627 272.71875 1188.8515625 C257.97156182 1201.58808028 242.82804553 1213.62945741 227 1225 C226.17951172 1225.58958496 225.35902344 1226.17916992 224.51367188 1226.78662109 C196.76735276 1246.64183499 167.48338807 1263.69978794 137 1279 C135.97326172 1279.51804199 134.94652344 1280.03608398 133.88867188 1280.56982422 C116.32678659 1289.38190496 98.30666039 1296.89994018 80 1304 C78.90719727 1304.42410156 77.81439453 1304.84820313 76.68847656 1305.28515625 C31.41858088 1322.64267399 -16.46058767 1333.72628701 -64.5 1339.8125 C-65.26985229 1339.91177795 -66.03970459 1340.01105591 -66.83288574 1340.11334229 C-91.76095089 1343.28468001 -116.76111865 1344.3899053 -141.875 1344.3125 C-143.15059784 1344.31034485 -144.42619568 1344.3081897 -145.740448 1344.30596924 C-231.71218452 1344.07459098 -316.55243772 1326.14710753 -498 1235 C-498.66418945 1234.54302734 -499.32837891 1234.08605469 -500.01269531 1233.61523438 C-514.82542062 1223.37998052 -529.19440577 1212.56193251 -543 1201 C-543.50450684 1200.58041016 -544.00901367 1200.16082031 -544.52880859 1199.72851562 C-551.53920771 1193.89538669 -558.37273927 1187.91437089 -565.05078125 1181.703125 C-566.55097655 1180.31047059 -568.06166675 1178.94765054 -569.62231445 1177.62280273 C-576.30054506 1171.94983946 -582.42775219 1165.72285255 -588.60913086 1159.52124023 C-590.5579687 1157.56704376 -592.51209272 1155.61824853 -594.46679688 1153.66992188 C-600.52453257 1147.6154238 -606.47343234 1141.55011939 -612 1135 C-613.45445517 1133.39231627 -614.91220895 1131.78760285 -616.375 1130.1875 C-621.10571502 1124.93824117 -625.57083694 1119.50441004 -630 1114 C-630.91374442 1112.87864698 -631.82782139 1111.75756489 -632.7421875 1110.63671875 C-653.2714828 1085.36829837 -671.83041046 1058.26275998 -688 1030 C-688.41862305 1029.27022949 -688.83724609 1028.54045898 -689.26855469 1027.78857422 C-692.25049594 1022.56379544 -695.140557 1017.29262019 -698 1012 C-698.44778809 1011.17822266 -698.89557617 1010.35644531 -699.35693359 1009.50976562 C-740.49014613 933.73429588 -764.08863829 849.2758595 -773.1875 714.25 C-773.18689575 713.27444153 -773.1862915 712.29888306 -773.18566895 711.29376221 C-773.05029988 630.0904834 -757.05008459 549.23818101 -703 424 C-702.51547363 423.03513672 -702.03094727 422.07027344 -701.53173828 421.07617188 C-698.79440495 415.65663986 -695.95550157 410.30364467 -693 405 C-692.56284668 404.21383301 -692.12569336 403.42766602 -691.67529297 402.61767578 C-677.67735279 377.69713751 -661.42026884 353.65149496 -644 331 C-643.52062988 330.3719043 -643.04125977 329.74380859 -642.54736328 329.09667969 C-636.15515438 320.73949917 -629.42252753 312.71016358 -622.52490234 304.76757812 C-620.97885578 302.97549085 -619.45019393 301.16988737 -617.92578125 299.359375 C-612.5924508 293.03933588 -607.15079505 287.00583564 -601.2265625 281.22265625 C-599.23531091 279.23489808 -597.38679042 277.20236672 -595.5625 275.0625 C-589.3878287 267.86842542 -582.56013479 261.21256353 -575.34765625 255.06640625 C-572.72806191 252.76064019 -570.19365487 250.37663482 -567.65576172 247.98168945 C-561.91865641 242.5697959 -556.14544493 237.30908659 -549.9765625 232.38671875 C-547.69728022 230.55910527 -545.44831712 228.70981222 -543.2109375 226.83203125 C-532.78775356 218.10169066 -522.05902621 209.90733914 -511 202 C-510.08911621 201.34708984 -509.17823242 200.69417969 -508.23974609 200.02148438 C-495.87411589 191.19221701 -483.32088421 182.9256887 -470.18847656 175.28466797 C-468.22233275 174.1305126 -466.27536804 172.95223176 -464.3359375 171.75390625 C-391.64897327 126.90297804 -307.18740633 98.91625188 -151 83 C-150.2167334 82.98340332 -149.4334668 82.96680664 -148.62646484 82.94970703 C-143.74833045 82.85847432 -138.8772629 82.89934721 -134 83 C-133.0217627 83.01788574 -132.04352539 83.03577148 -131.03564453 83.05419922 C-95.66626396 83.77516413 -59.64102949 86.51046909 -25 94 C-24.89187988 93.43039551 -24.78375977 92.86079102 -24.67236328 92.27392578 C-23.27555879 85.08974708 -21.60310287 77.98585392 -19.875 70.875 C-19.59785156 69.72773437 -19.32070313 68.58046875 -19.03515625 67.3984375 C-18.35851238 64.59853183 -17.68009386 61.79906929 -17 59 C-18.03511719 58.90460937 -19.07023438 58.80921875 -20.13671875 58.7109375 C-26.48506351 57.91372302 -32.62776079 56.22319209 -38.8125 54.625 C-40.65231445 54.16867188 -40.65231445 54.16867188 -42.52929688 53.703125 C-43.70169922 53.40148438 -44.87410156 53.09984375 -46.08203125 52.7890625 C-47.14655518 52.51787598 -48.2110791 52.24668945 -49.30786133 51.96728516 C-52.01346239 50.99516296 -53.35981115 50.34638127 -55 48 C-54.63671875 44.86328125 -54.63671875 44.86328125 -53.6875 41.3125 C-53.38199219 40.13300781 -53.07648437 38.95351563 -52.76171875 37.73828125 C-52.38466797 36.38283203 -52.38466797 36.38283203 -52 35 C-47.29671537 33.54258734 -43.457024 34.61445557 -38.85546875 35.87109375 C-38.08568192 36.0722731 -37.31589508 36.27345245 -36.52278137 36.48072815 C-34.07490577 37.12293323 -31.63129871 37.77997029 -29.1875 38.4375 C-27.52434849 38.87663674 -25.86093934 39.31479892 -24.19726562 39.75195312 C-20.12843885 40.82336727 -16.06337408 41.90809683 -12 43 C-11.74750488 41.92290771 -11.49500977 40.84581543 -11.23486328 39.73608398 C-9.14657788 30.83717976 -7.05262135 21.94005158 -4.875 13.0625 C-4.49794922 11.4856543 -4.49794922 11.4856543 -4.11328125 9.87695312 C-3.86707031 8.87728516 -3.62085938 7.87761719 -3.3671875 6.84765625 C-3.15175293 5.96086182 -2.93631836 5.07406738 -2.71435547 4.16040039 C-2 2 -2 2 0 0 Z M0 64 C-2.16527061 70.24790839 -4.02440229 76.53013186 -5.69921875 82.92578125 C-6.05908623 84.29080025 -6.05908623 84.29080025 -6.42622375 85.68339539 C-6.92769294 87.5897152 -7.42760847 89.49644434 -7.92602539 91.40356445 C-8.69033614 94.32333445 -9.46309828 97.24078415 -10.23632812 100.15820312 C-10.72447171 102.0180945 -11.2121196 103.87811607 -11.69921875 105.73828125 C-11.93041916 106.60810135 -12.16161957 107.47792145 -12.39982605 108.37409973 C-12.61037125 109.18561996 -12.82091644 109.9971402 -13.0378418 110.83325195 C-13.224207 111.54334915 -13.4105722 112.25344635 -13.60258484 112.98506165 C-14.12900432 115.31177326 -14.12900432 115.31177326 -14 119 C-14.55421631 118.87471924 -15.10843262 118.74943848 -15.67944336 118.62036133 C-44.86777604 112.101545 -74.20572375 108.22905017 -104 106 C-104.91894043 105.92797363 -105.83788086 105.85594727 -106.78466797 105.78173828 C-186.41071849 99.75018894 -267.94393151 113.12526749 -527.26318359 242.56738281 C-529.76234405 244.62882132 -532.29045371 246.65416707 -534.8125 248.6875 C-539.41773356 252.45604698 -543.82873534 256.40788304 -548.19921875 260.4453125 C-550.333027 262.39163132 -552.48885447 264.28612563 -554.67675781 266.16967773 C-558.94339908 269.89951229 -562.97251978 273.82780766 -566.97265625 277.83984375 C-567.69940048 278.56563126 -568.42614471 279.29141876 -569.1749115 280.03919983 C-570.69962296 281.56323556 -572.2230915 283.08851569 -573.74536133 284.61499023 C-576.05633891 286.93132463 -578.37260771 289.24227078 -580.68945312 291.55273438 C-582.1800082 293.04395034 -583.670253 294.53547653 -585.16015625 296.02734375 C-586.18388084 297.048032 -586.18388084 297.048032 -587.22828674 298.08934021 C-591.68363637 302.56615215 -595.88992715 307.20548605 -600 312 C-600.96159924 313.10602581 -601.92372952 314.21159047 -602.88671875 315.31640625 C-632.10212615 349.09543335 -657.69215224 385.77771103 -678.56445312 425.2890625 C-680.023481 428.04434235 -681.50292697 430.78797042 -682.984375 433.53125 C-722.82076535 507.8662642 -744.5335762 591.85548454 -751.25 712.125 C-751.25067474 713.28651581 -751.25134949 714.44803162 -751.25204468 715.64474487 C-751.17572471 798.98971816 -733.6851411 882.29540937 -663 1029 C-662.47422363 1029.85899902 -661.94844727 1030.71799805 -661.40673828 1031.60302734 C-654.6151228 1042.64020013 -647.47390016 1053.4142901 -640 1064 C-639.49355957 1064.7204248 -638.98711914 1065.44084961 -638.46533203 1066.18310547 C-631.17180677 1076.52962991 -623.5372459 1086.50243289 -615.453125 1096.24267578 C-613.36384079 1098.76933367 -611.31028732 1101.32467907 -609.25 1103.875 C-605.65716766 1108.2640461 -601.91693674 1112.49480786 -598.09765625 1116.6875 C-596.30492554 1118.66384372 -594.55204773 1120.6645673 -592.8125 1122.6875 C-581.07358774 1136.13044791 -568.75000623 1149.62980242 -555.109375 1161.171875 C-552.81371963 1163.16144299 -550.59713796 1165.22216871 -548.37792969 1167.29614258 C-543.05992727 1172.26314455 -537.66419421 1177.05012242 -531.984375 1181.60546875 C-529.76972458 1183.38240685 -527.57507619 1185.17495802 -525.390625 1186.98828125 C-516.27078805 1194.53201978 -506.88328418 1201.58859615 -497.22167969 1208.42236328 C-495.07823648 1209.9444435 -492.94787825 1211.48317522 -490.8203125 1213.02734375 C-479.88755527 1220.92149847 -468.56453154 1228.07075696 -457 1235 C-456.04577148 1235.57588867 -455.09154297 1236.15177734 -454.10839844 1236.74511719 C-381.62594347 1280.29198307 -300.13298998 1307.66438452 -216.3125 1318.3125 C-215.15911133 1318.45985596 -214.00572266 1318.60721191 -212.81738281 1318.7590332 C-190.2849594 1321.42932248 -167.77253992 1322.38125125 -145.09260559 1322.31805801 C-143.0241793 1322.31239509 -140.95576129 1322.30958872 -138.8873291 1322.30697632 C-117.46479755 1322.26769959 -96.27230485 1321.65129 -75 1319 C-73.56689834 1318.82662865 -72.13379279 1318.6532895 -70.70068359 1318.47998047 C12.90960582 1308.21170364 93.9207329 1280.93470469 204 1214 C204.69899414 1213.51837402 205.39798828 1213.03674805 206.11816406 1212.54052734 C219.87166523 1203.00547731 233.17202431 1192.74319487 246 1182 C246.50450684 1181.58041016 247.00901367 1181.16082031 247.52880859 1180.72851562 C254.97663527 1174.5314172 262.20525455 1168.1484004 269.30297852 1161.5534668 C270.5905202 1160.37484102 271.89007254 1159.20931939 273.19506836 1158.05004883 C279.24608554 1152.67156634 285.05767416 1147.09837599 290.76928711 1141.36108398 C292.19337492 1139.93160283 293.62278044 1138.50759489 295.05273438 1137.08398438 C299.7039664 1132.4262698 304.2336077 1127.72543939 308.51782227 1122.72729492 C310.57817523 1120.32620824 312.72826457 1118.01132303 314.875 1115.6875 C319.7957178 1110.28508543 324.42792553 1104.69831141 329 1099 C329.91225289 1097.87979484 330.82503803 1096.76002295 331.73828125 1095.640625 C355.47301896 1066.42894698 375.69152917 1034.8397086 394 1002 C394.62358398 1000.8869751 394.62358398 1000.8869751 395.25976562 999.75146484 C431.6586087 934.29609851 452.94183081 859.98172402 465 759 C465.08612549 757.87223145 465.17225098 756.74446289 465.26098633 755.58251953 C466.21710594 742.15024387 466.20077165 728.71040462 466.1875 715.25 C466.18656342 714.024021 466.18562683 712.79804199 466.18466187 711.53491211 C466.15497058 693.61015098 465.96648737 675.83441761 464 658 C463.88688477 656.95014923 463.88688477 656.95014923 463.77148438 655.87908936 C454.41138498 569.29114987 428.20149914 485.41385284 318 317 C317.34515625 316.24460937 316.6903125 315.48921875 316.015625 314.7109375 C294.27723133 289.6463756 294.27723133 289.6463756 270.1796875 266.8984375 C267.86261178 264.88033929 265.61838603 262.79709394 263.37353516 260.69946289 C257.11781708 254.85771284 250.67882557 249.35706586 244 244 C242.80726658 243.0172335 241.61594599 242.03275069 240.42578125 241.046875 C225.47682311 228.69715866 209.86342793 217.45776956 193.75 206.6875 C192.81809845 206.06305496 192.81809845 206.06305496 191.86737061 205.42599487 C146.78536123 175.27569661 98.10127165 152.74857283 47 135 C46.04432129 134.66000977 45.08864258 134.32001953 44.10400391 133.96972656 C40.5112526 132.71530087 37.84870656 132 34 132 C34.51046875 130.26556641 34.51046875 130.26556641 35.03125 128.49609375 C38.12449201 117.88217679 41.04596786 107.22751282 43.83032227 96.52883911 C44.19276864 95.13719367 44.55685809 93.7459751 44.92260742 92.35519409 C45.44051077 90.38261765 45.95170437 88.40842388 46.4609375 86.43359375 C46.75790527 85.28947021 47.05487305 84.14534668 47.36083984 82.96655273 C48.14041488 79.85405949 48.14041488 79.85405949 48 76 C41.48640621 74.28760495 34.97182854 72.5789937 28.45654297 70.87304688 C26.23886478 70.29189363 24.02141582 69.70986494 21.80419922 69.12695312 C18.62266514 68.29068042 15.44032799 67.4575289 12.2578125 66.625 C11.26194122 66.36251465 10.26606995 66.1000293 9.24002075 65.82958984 C8.31921722 65.58934082 7.3984137 65.3490918 6.44970703 65.1015625 C5.6369632 64.88838379 4.82421936 64.67520508 3.98684692 64.45556641 C2.01483247 63.92550286 2.01483247 63.92550286 0 64 Z " fill="#6F7F6F" transform="translate(773,0)"/>
</svg>
