<?xml version="1.0" encoding="UTF-8"?>
<svg version="1.1" xmlns="http://www.w3.org/2000/svg" width="1437" height="1476">
<path d="M0 0 C0.70769531 0.51175781 1.41539062 1.02351563 2.14453125 1.55078125 C21.13513442 16.64587608 27.79990405 43.06973814 30.4609375 65.94921875 C32.88792372 90.40731258 34.29703297 127.40593406 23 150 C31.37302647 150.02345415 39.74603859 150.04107988 48.11909008 150.05181217 C52.00949982 150.05697021 55.89988665 150.06393431 59.7902832 150.07543945 C75.31995679 150.12016613 90.80035714 150.10935193 106.3112793 149.23803711 C144.03764378 147.1740959 189.61351605 146.09066377 220.03125 172.19921875 C222.4423149 174.40457771 224.77983098 176.59981728 227 179 C227.54140625 179.54785156 228.0828125 180.09570312 228.640625 180.66015625 C233.82199632 186.14565154 237.08072951 192.0677842 240 199 C240.41636719 199.9796875 240.83273437 200.959375 241.26171875 201.96875 C248.30676161 221.94206449 244.84414798 244.98525262 236.25 263.8125 C220.98216595 295.45881492 189.81788571 315.72120388 157.65234375 327.41015625 C107.72247749 344.79882582 55.96693909 344.76445549 5 332 C5.00294571 333.49038536 5.00294571 333.49038536 5.00595093 335.01087952 C5.05664179 363.48846618 4.90211643 391.96132509 4.625 420.4375 C4.61454021 421.52685726 4.60408043 422.61621452 4.59330368 423.73858261 C2.83088478 606.70064392 2.83088478 606.70064392 -1.4375 675.4375 C-1.49308075 676.35809204 -1.5486615 677.27868408 -1.60592651 678.22717285 C-2.20083224 687.85768294 -3.06280301 697.416064 -4.41015625 706.97265625 C-4.5219371 707.80558701 -4.63371796 708.63851776 -4.74888611 709.49668884 C-5.42411653 713.96810885 -6.28799075 717.25178293 -9 721 C-9.99 720.67 -10.98 720.34 -12 720 C-19.0695247 704.82131462 -18.18977394 684.65153238 -19.4765625 668.18359375 C-19.57401449 666.94246354 -19.57401449 666.94246354 -19.67343521 665.67625999 C-20.92580102 649.64632457 -21.94182534 633.60928297 -22.76071167 617.55143738 C-22.87897075 615.23471198 -22.99890186 612.91807654 -23.11889648 610.60144043 C-26.58094131 543.37999148 -28.74374549 476.08131576 -31.10105515 408.81329775 C-31.17143839 406.80542421 -31.24191035 404.7975538 -31.31240845 402.7896843 C-31.75513855 390.17577624 -32.19605134 377.56182156 -32.62365341 364.94739056 C-32.77853036 360.39176365 -32.93584165 355.83622273 -33.09360504 351.28069496 C-33.1654869 349.18642532 -33.2361992 347.09211515 -33.30562592 344.99776268 C-33.40034607 342.14154663 -33.49905294 339.28549351 -33.59863281 336.42944336 C-33.63758038 335.20665491 -33.63758038 335.20665491 -33.67731476 333.95916367 C-33.82601239 329.81322893 -34.05625799 325.67595505 -34.38226318 321.54005432 C-34.44494259 320.72103417 -34.50762199 319.90201403 -34.57220078 319.05817509 C-34.84493776 316.73206926 -34.84493776 316.73206926 -37.28515625 314.9296875 C-38.20167969 314.58164062 -39.11820313 314.23359375 -40.0625 313.875 C-41.44115234 313.31425781 -41.44115234 313.31425781 -42.84765625 312.7421875 C-43.55792969 312.49726562 -44.26820313 312.25234375 -45 312 C-78.38587221 372.03969446 -109.70347392 435.17274063 -119 504 C-119.1045752 504.73210693 -119.20915039 505.46421387 -119.31689453 506.21850586 C-120.31469396 514.3425642 -120.15035505 522.53175021 -120.13037109 530.70288086 C-120.12503371 533.29612127 -120.13032966 535.88918687 -120.13671875 538.48242188 C-120.13605744 540.17187537 -120.13477519 541.86132876 -120.1328125 543.55078125 C-120.13584885 544.68269646 -120.13584885 544.68269646 -120.13894653 545.83747864 C-120.12887027 548.22711515 -120.07074103 550.61139121 -120 553 C-119.98410324 554.01519714 -119.96820648 555.03039429 -119.951828 556.07635498 C-119.61602453 564.31631179 -117.6108284 570.28982052 -113.78515625 577.5390625 C-113.25538681 578.58540863 -112.72561737 579.63175476 -112.17979431 580.70980835 C-110.49457714 584.02585447 -108.77926106 587.32519484 -107.0625 590.625 C-105.94525753 592.81277776 -104.83000772 595.00157432 -103.71679688 597.19140625 C-99.14871217 606.15020452 -94.50360726 615.06680992 -89.79011536 623.94989014 C-85.88107734 631.32026764 -82.12787665 638.6850664 -78.875 646.375 C-78.46523926 647.32632813 -78.05547852 648.27765625 -77.63330078 649.2578125 C-74.48792491 656.63974237 -71.67425872 664.12661513 -68.89575195 671.65234375 C-66.95712109 676.79730319 -64.76859622 681.59272071 -62.0625 686.375 C-53.09511074 702.32047131 -47.2434194 720.25897074 -43 738 C-42.82210938 738.74008301 -42.64421875 739.48016602 -42.4609375 740.24267578 C-36.53448421 766.34141203 -36.83688516 797.93183399 -50.89697266 821.31103516 C-55.83760819 828.87617828 -62.15379635 833.94179237 -71 836 C-77.63872816 836.98389887 -82.71358918 835.72623554 -88.7734375 832.97265625 C-93.06776184 831.09671456 -95.13919164 830.80937802 -99.5625 832.5 C-107.24034267 834.93526287 -113.97609546 834.21800985 -121.25 830.8125 C-145.21778678 817.43425423 -155.7538812 786.42791575 -162.875 761.5859375 C-169.24698048 738.47072422 -172.76247299 715.06789877 -175.92745972 691.35043335 C-181.37658262 650.55651201 -188.92579374 611.23808254 -203.18725586 572.47827148 C-204.00009523 569.99970961 -204.54280806 567.56584967 -205 565 C-205.86625 565 -206.7325 565 -207.625 565 C-212.62920041 563.51727395 -214.27974024 560.31803914 -217 556 C-219.45498838 551.42901459 -221.67218579 546.75779305 -223.875 542.0625 C-224.49970566 540.75007667 -225.1252829 539.43806788 -225.75170898 538.12646484 C-228.2843836 532.81224366 -230.79000208 527.48622804 -233.23046875 522.12890625 C-238.32361931 510.97046851 -244.30631317 500.39801743 -250.41455078 489.765625 C-266.81276781 461.16091257 -266.81276781 461.16091257 -272.375 447.1875 C-274.47728881 441.98083138 -276.98767623 437.07415825 -279.625 432.125 C-285.27946208 421.51192742 -290.79402041 410.84145249 -296 400 C-296.31453125 399.34676758 -296.6290625 398.69353516 -296.953125 398.02050781 C-315.63610867 358.25307206 -318.39471519 307.09633362 -323 264 C-323.09194641 263.15189758 -323.18389282 262.30379517 -323.27862549 261.42999268 C-325.7205192 238.70445457 -326.29351868 216.03542543 -326.375 193.1875 C-326.3830365 191.93424927 -326.391073 190.68099854 -326.39935303 189.38977051 C-326.50747511 167.22001037 -325.51647013 145.09419785 -319.90234375 123.5546875 C-319.10913982 120.42994474 -318.49806579 117.36983187 -318 114.1875 C-313.53296358 86.26852239 -313.53296358 86.26852239 -307 76 C-306.59910156 75.36835938 -306.19820313 74.73671875 -305.78515625 74.0859375 C-302.72675928 69.90509854 -298.79389538 67.68365216 -294 66 C-290.25455902 65.44501552 -286.59323865 65.42809562 -282.8125 65.5 C-281.28665283 65.51921509 -281.28665283 65.51921509 -279.72998047 65.53881836 C-267.77721364 65.85998583 -257.65641718 68.1902211 -249 77 C-235.26550289 92.61000617 -230.96247914 114.8589871 -227.8125 134.75 C-227.6575708 135.72308105 -227.5026416 136.69616211 -227.34301758 137.69873047 C-224.5675371 156.4849712 -223.71319052 175.39667789 -223.16656494 194.35580444 C-224.35919183 242.81672924 -224.35919183 242.81672924 -214 289 C-213.25556641 287.42412109 -213.25556641 287.42412109 -212.49609375 285.81640625 C-208.6921511 277.89805279 -204.95353351 270.5527114 -199 264 C-198.34644531 263.25492188 -197.69289063 262.50984375 -197.01953125 261.7421875 C-186.22391212 250.14033816 -170.41217091 241.40516597 -154.375 240.76171875 C-123.8002054 240.12367571 -103.90459257 256.42534315 -81.8515625 275.7578125 C-76.02146417 280.83275882 -70.04727331 285.5380577 -63.6875 289.9375 C-63.04192139 290.38609375 -62.39634277 290.8346875 -61.73120117 291.296875 C-57.32218607 294.28626739 -52.80550379 296.70125179 -48 299 C-47.76539063 298.175 -47.53078125 297.35 -47.2890625 296.5 C-46.28165602 293.76473877 -45.2998719 291.65750258 -43.8359375 289.1875 C-43.43632813 288.50300781 -43.03671875 287.81851562 -42.625 287.11328125 C-41.80325437 285.72401754 -40.96248689 284.34579976 -40.1015625 282.98046875 C-33.78729589 271.93050219 -37.28839571 256.35172078 -38.2658062 244.12182045 C-38.50229513 241.16063089 -38.73181179 238.19896706 -38.95973206 235.23710632 C-39.52772473 227.87386507 -40.10710638 220.51152907 -40.68640137 213.14916992 C-41.25398633 205.92933239 -41.81559894 198.70905901 -42.37109375 191.48828125 C-42.44807873 190.49393192 -42.52506371 189.4995826 -42.60438156 188.47510147 C-43.60086629 175.53021998 -44.43850968 162.61511927 -44.6502533 149.62995911 C-44.67035965 148.67336899 -44.690466 147.71677887 -44.71118164 146.73120117 C-44.71992813 145.92736496 -44.72867462 145.12352875 -44.73768616 144.29533386 C-45.04932781 141.56836515 -45.80446409 139.465906 -47 137 C-49.19352676 135.27919293 -49.19352676 135.27919293 -51.875 133.875 C-72.99132469 121.13334335 -88.65286243 99.31264101 -94.8125 75.5625 C-95.22584816 73.71215912 -95.62440158 71.8583713 -96 70 C-96.226875 68.88625 -96.45375 67.7725 -96.6875 66.625 C-98.43183479 46.39071639 -94.42659851 28.83093135 -82.1875 12.5625 C-60.99695964 -11.96092147 -26.87662096 -19.78828136 0 0 Z M-75 17 C-86.02231167 30.87994802 -90.18808171 46.43675658 -88.59375 64.046875 C-84.97359444 88.14948966 -71.58307764 109.30210055 -52.265625 124.09375 C-48.90169628 126.73064188 -48.90169628 126.73064188 -45 128 C-44.29251535 123.71817983 -43.87212837 119.4889521 -43.60546875 115.15625 C-41.41906839 79.63589924 -41.41906839 79.63589924 -30.3125 69.5625 C-25.17142388 66.08879992 -20.07116299 66.42784851 -14 67 C-7.44630418 70.15981763 -3.98769301 75.26323249 -1.4375 81.9375 C-1.04433594 82.93652344 -0.65117188 83.93554688 -0.24609375 84.96484375 C3.3743426 95.82909626 4.6331766 107.15038456 5.625 118.5 C5.80675781 120.44712891 5.80675781 120.44712891 5.9921875 122.43359375 C6.77479788 130.94873499 7.4225338 139.46872284 8 148 C10.31 148 12.62 148 15 148 C16.50861121 143.77748715 17.5128997 139.69344397 18.25390625 135.2734375 C18.46853516 133.99339844 18.68316406 132.71335937 18.90429688 131.39453125 C19.0665979 130.40187256 19.0665979 130.40187256 19.23217773 129.38916016 C19.55838546 127.40008863 19.89481597 125.41294588 20.23242188 123.42578125 C25.86758299 89.41051872 26.79016085 47.4708099 6 17.9375 C4.69423216 16.2697124 3.36294927 14.62139274 2 13 C1.44699219 12.33484375 0.89398437 11.6696875 0.32421875 10.984375 C-7.10650868 2.82653582 -18.16199792 -2.28745436 -29.09375 -3.28125 C-47.2941026 -3.80126007 -62.74720619 3.64025597 -75 17 Z M-293 86 C-293 86.66 -293 87.32 -293 88 C-292.40574219 88.06993164 -291.81148437 88.13986328 -291.19921875 88.21191406 C-288.46404941 88.5426441 -285.73227121 88.89615446 -283 89.25 C-282.06542969 89.35957031 -281.13085938 89.46914063 -280.16796875 89.58203125 C-270.33045277 90.88911379 -263.67061227 93.96356899 -257.50390625 101.93359375 C-253.46763251 107.58035077 -251.09464142 113.40804023 -249 120 C-248.00840403 116.91379199 -248.00184148 115.09505619 -249.00390625 112.0234375 C-249.36814697 110.90062378 -249.36814697 110.90062378 -249.73974609 109.75512695 C-250.01125488 108.96968506 -250.28276367 108.18424316 -250.5625 107.375 C-250.83916504 106.56828857 -251.11583008 105.76157715 -251.40087891 104.93041992 C-254.80168594 95.34431069 -259.09416819 86.56411714 -268 81 C-277.32402413 77.46985164 -286.26959175 77.97528248 -293 86 Z M-20 98 C-26.70754791 110.00007887 -25.26135872 125.64166547 -25 139 C-23.0429132 139.67031719 -21.08428887 140.33614683 -19.125 141 C-18.03445313 141.37125 -16.94390625 141.7425 -15.8203125 142.125 C-13.17379146 143.098772 -13.17379146 143.098772 -11 143 C-11.15810464 119.98944435 -11.15810464 119.98944435 -17 98 C-17.99 98 -18.98 98 -20 98 Z M-300 115 C-318.98585448 171.95756343 -284.23001425 270.08215884 -269.8125 325.4375 C-269.62029877 326.18217529 -269.42809753 326.92685059 -269.23007202 327.6940918 C-263.56763814 349.52372339 -255.68283736 370.04758234 -246.625 390.6875 C-245.60466215 393.0315501 -244.58512638 395.37594951 -243.56640625 397.72070312 C-239.45301166 407.43862162 -239.45301166 407.43862162 -235 417 C-233.02 416.34 -231.04 415.68 -229 415 C-229.24121582 414.04673828 -229.48243164 413.09347656 -229.73095703 412.11132812 C-245.55833734 349.33332894 -251.31661738 287.76709451 -250.96337891 223.09301758 C-249.39701655 169.03071012 -249.39701655 169.03071012 -269.4375 120.25 C-275.78088405 113.90661595 -282.12082143 112.33707039 -290.9921875 111.89453125 C-294.69319058 112.02430668 -297.0644856 112.71682213 -300 115 Z M-248 120 C-247 124 -247 124 -247 124 Z M-247 124 C-246 128 -246 128 -246 128 Z M-246 129 C-245 133 -245 133 -245 133 Z M-245 134 C-244 138 -244 138 -244 138 Z M-244 139 C-244 140.98 -244 142.96 -244 145 C-243.67 145 -243.34 145 -243 145 C-243 143.02 -243 141.04 -243 139 C-243.33 139 -243.66 139 -244 139 Z M-243 145 C-243.082411 151.15744296 -242.80791055 157.12979867 -242.16015625 163.25 C-242.07374374 164.10698486 -241.98733124 164.96396973 -241.89830017 165.84692383 C-241.62393398 168.56506693 -241.34383902 171.28257043 -241.0625 174 C-239.01896832 193.80377761 -237.91679057 213.45390609 -237.35424805 233.35595703 C-235.66924529 292.633702 -229.76011532 349.92501268 -213 407 C-209.28272326 408.13583456 -207.52948291 407.66670026 -204 406 C-204.4283436 404.57160204 -204.85674096 403.14322021 -205.28515625 401.71484375 C-205.5598877 400.79815918 -205.83461914 399.88147461 -206.11767578 398.93701172 C-206.68927891 397.03430401 -207.26303595 395.13224149 -207.83935547 393.23095703 C-211.8628521 379.93643057 -215.55074368 366.68283121 -218 353 C-218.29390625 351.39511719 -218.29390625 351.39511719 -218.59375 349.7578125 C-218.93789929 346.57443154 -219.05633202 343.56615083 -219.0703125 340.37109375 C-219.14779418 324.69319715 -220.70238812 309.65624637 -223.1875 294.1875 C-225.78258556 278.00588365 -228.16015135 261.83389778 -230.125 245.5625 C-230.24747101 244.5517038 -230.36994202 243.54090759 -230.49612427 242.4994812 C-232.47156193 226.11116678 -234.23077235 209.70166114 -235.93252563 193.28295898 C-237.60788991 177.13225164 -239.58780166 161.05881658 -242 145 C-242.33 145 -242.66 145 -243 145 Z M-24 148 C-24.46595255 157.33630858 -23.6591175 166.41581857 -22.625 175.6875 C-22.49891357 176.82678955 -22.37282715 177.9660791 -22.24291992 179.13989258 C-21.61974694 184.50897679 -20.92615792 189.8673696 -20.0859375 195.20703125 C-19.94978027 196.08464111 -19.81362305 196.96225098 -19.67333984 197.86645508 C-19.12939725 200.3662274 -19.12939725 200.3662274 -16 202 C-8.80195659 194.80195659 -10.9689176 170.55278425 -10.93408203 160.47485352 C-10.93882174 157.64964903 -10.96299186 154.82495454 -11 152 C-12.216875 151.525625 -13.43375 151.05125 -14.6875 150.5625 C-15.37199219 150.29566406 -16.05648438 150.02882813 -16.76171875 149.75390625 C-19.15422468 148.94805347 -21.51775797 148.44775995 -24 148 Z M8 156 C8 161.28 8 166.56 8 172 C10.11044382 168.83433427 10.75552077 166.48802585 11.625 162.8125 C11.88539063 161.72582031 12.14578125 160.63914062 12.4140625 159.51953125 C12.60742188 158.68808594 12.80078125 157.85664063 13 157 C11.35 156.67 9.7 156.34 8 156 Z M79.4831543 158.28833008 C78.35036041 158.33427811 77.21756653 158.38022614 76.05044556 158.42756653 C73.93305195 158.51423538 71.81575115 158.60321989 69.69857788 158.69511414 C60.36167559 159.08101639 51.04262201 159.13368385 41.703125 158.78125 C39.86621094 158.71357422 39.86621094 158.71357422 37.9921875 158.64453125 C36.75726562 158.59683594 35.52234375 158.54914063 34.25 158.5 C32.96867187 158.45230469 31.68734375 158.40460938 30.3671875 158.35546875 C27.24471163 158.23895846 24.12232655 158.12043443 21 158 C20.74831055 158.82089111 20.49662109 159.64178223 20.23730469 160.48754883 C19.28529338 163.5876938 18.33072052 166.68703604 17.37451172 169.78588867 C16.96433404 171.11696175 16.55512366 172.44833337 16.14697266 173.7800293 C13.89857629 181.11355798 11.58817725 188.38944368 8.80566406 195.54174805 C7.28871193 200.17029077 6.87142695 204.83714643 6.70288086 209.68334961 C6.66292496 210.78859482 6.62296906 211.89384003 6.58180237 213.03257751 C6.54320602 214.22710037 6.50460968 215.42162323 6.46484375 216.65234375 C6.42177597 217.9169191 6.37870819 219.18149445 6.33433533 220.48439026 C6.21876483 223.92212103 6.11006273 227.36003496 6.00380707 230.79806519 C5.93750959 232.93719066 5.86962523 235.07626168 5.80157471 237.21533203 C4.90072483 265.81401127 4.76765558 294.38739088 5 323 C12.83791396 325.54156513 20.56406899 327.7346854 28.6875 329.125 C30.11799683 329.3720166 30.11799683 329.3720166 31.57739258 329.62402344 C34.38275094 330.09740276 37.19058005 330.55144586 40 331 C40.721875 331.12149414 41.44375 331.24298828 42.1875 331.36816406 C87.4475374 338.77153932 137.78299676 330.84262928 178 309 C178.61601074 308.67386719 179.23202148 308.34773437 179.86669922 308.01171875 C188.34817176 303.51216872 195.79020746 298.35070715 203 292 C203.86496094 291.2678125 204.72992187 290.535625 205.62109375 289.78125 C221.46584417 276.08289652 234.23809721 255.73381202 236.23730469 234.47680664 C237.1402019 216.8917301 234.82825188 202.35920358 224 188 C223.23429687 186.94425781 223.23429687 186.94425781 222.453125 185.8671875 C207.54626232 167.04911827 181.26520925 160.45265756 158.54907227 157.70336914 C150.76688104 156.89866142 143.00519755 156.80435008 135.1875 156.8125 C134.11023148 156.81141235 134.11023148 156.81141235 133.01119995 156.81030273 C115.15607715 156.812232 97.32059666 157.55744136 79.4831543 158.28833008 Z M-314 190 C-314 192.31 -314 194.62 -314 197 C-313.67 197 -313.34 197 -313 197 C-313 194.69 -313 192.38 -313 190 C-313.33 190 -313.66 190 -314 190 Z M-313 197 C-313.33365741 209.08813001 -312.33757612 220.86991191 -311 232.875 C-310.89151733 233.8626535 -310.78303467 234.85030701 -310.67126465 235.8678894 C-303.32777288 302.03638641 -292.82822871 370.96857593 -263 431 C-258.99199085 431 -258.25418492 430.84140963 -255.109375 428.8125 C-254.46967773 428.40644531 -253.82998047 428.00039063 -253.17089844 427.58203125 C-252.37200195 427.05996094 -251.57310547 426.53789063 -250.75 426 C-249.36790986 425.10745812 -247.98539555 424.21557284 -246.60253906 423.32421875 C-245.58259857 422.66619263 -245.58259857 422.66619263 -244.54205322 421.99487305 C-244.03317566 421.66656494 -243.5242981 421.33825684 -243 421 C-247.02669375 411.61522851 -251.22087539 402.37274546 -255.953125 393.3203125 C-267.57321169 371.03496497 -277.06480271 349.15579094 -284 325 C-284.43732064 323.49750638 -284.87482183 321.9950653 -285.3125 320.49267578 C-297.01956754 280.05590807 -305.85470472 238.64335919 -312 197 C-312.33 197 -312.66 197 -313 197 Z M-195.125 272.5625 C-203.8016516 283.89132649 -212.16239044 299.94410903 -210.39677429 314.43946838 C-209.688461 319.0104767 -208.57024647 323.46948478 -207.4453125 327.953125 C-207.18834595 328.99369049 -206.93137939 330.03425598 -206.66662598 331.10635376 C-205.82735994 334.48960968 -204.97752761 337.87006277 -204.125 341.25 C-203.83244324 342.41436584 -203.53988647 343.57873169 -203.23846436 344.77838135 C-198.26518991 364.52362412 -192.91424775 384.0973039 -186.78448486 403.51434326 C-185.93889238 406.19362078 -185.09822835 408.87442336 -184.25732422 411.55517578 C-171.05822104 453.51514412 -155.16044327 493.89304876 -134.94750977 532.99511719 C-134.44147217 533.98157227 -133.93543457 534.96802734 -133.4140625 535.984375 C-132.74818115 537.26393066 -132.74818115 537.26393066 -132.06884766 538.56933594 C-130.97786518 541.05033675 -130.42620699 543.33069243 -130 546 C-129.67 546 -129.34 546 -129 546 C-128.98541748 545.06019287 -128.97083496 544.12038574 -128.95581055 543.15209961 C-128.64632791 524.62329508 -128.2520458 506.29275765 -125 488 C-124.82984375 487.04158203 -124.6596875 486.08316406 -124.484375 485.09570312 C-116.20942492 439.90856502 -98.27886859 397.95629479 -78 357 C-77.66812683 356.3287207 -77.33625366 355.65744141 -76.99432373 354.96582031 C-69.20102624 339.20465548 -61.3814383 323.45909731 -53 308 C-56.10732637 304.61157076 -59.54643228 302.25570847 -63.4375 299.875 C-73.01576699 293.85394514 -81.76956329 286.95337418 -90.375 279.625 C-123.6422082 251.31108863 -161.10878802 233.03194116 -195.125 272.5625 Z M-36 292 C-36.89429374 293.5725165 -37.76487427 295.15853741 -38.625 296.75 C-39.35589844 298.07257813 -39.35589844 298.07257813 -40.1015625 299.421875 C-41.23254401 301.91497232 -41.23254401 301.91497232 -40.4609375 304.203125 C-38.79216453 306.55305169 -38.79216453 306.55305169 -34 308 C-34.33 302.72 -34.66 297.44 -35 292 C-35.33 292 -35.66 292 -36 292 Z M-228 386 C-227 388 -227 388 -227 388 Z M-227 390 C-226 392 -226 392 -226 392 Z M-226 393 C-225 396 -225 396 -225 396 Z M-225 397 C-224 400 -224 400 -224 400 Z M-224 400 C-223 404 -223 404 -223 404 Z M-223 404 C-222.67 406.31 -222.34 408.62 -222 411 C-221.34 410.67 -220.68 410.34 -220 410 C-220.66 408.02 -221.32 406.04 -222 404 C-222.33 404 -222.66 404 -223 404 Z M-160 552 C-160.66 552.66 -161.32 553.32 -162 554 C-155.7339131 566.30685883 -149.14006076 578.36201538 -142.12670898 590.25927734 C-138.64381312 596.17013745 -135.23609426 602.10947718 -131.9375 608.125 C-126.74108158 617.57585234 -121.23453399 626.83596387 -115.71728516 636.10205078 C-113.92773529 639.12194799 -112.15537082 642.15141473 -110.38671875 645.18359375 C-109.50463745 646.69131348 -109.50463745 646.69131348 -108.60473633 648.22949219 C-107.47483307 650.16173042 -106.34821994 652.0958974 -105.2253418 654.03222656 C-104.71527588 654.90202148 -104.20520996 655.77181641 -103.6796875 656.66796875 C-103.23351074 657.43391357 -102.78733398 658.1998584 -102.32763672 658.98901367 C-101.04758092 660.92792864 -99.70303048 662.42895594 -98 664 C-99.38603185 659.44478537 -101.22115197 655.42289647 -103.45703125 651.22265625 C-103.96553619 650.26417534 -103.96553619 650.26417534 -104.48431396 649.28633118 C-105.5886833 647.2089971 -106.7002474 645.13562245 -107.8125 643.0625 C-108.58787554 641.60957314 -109.36318412 640.15661054 -110.13842773 638.70361328 C-114.99931942 629.61608204 -119.99066868 620.61220072 -125.11230469 611.66870117 C-129.94787736 603.18846175 -134.51639944 594.57520617 -139.08230591 585.94812012 C-145.14984032 574.49281428 -151.46292191 563.19512278 -158 552 C-158.66 552 -159.32 552 -160 552 Z M-179 558 C-177.72066191 562.08078365 -176.19989281 565.83062339 -174.27734375 569.6484375 C-154.41263295 609.6325733 -144.21012774 651.19065625 -136.99563599 694.99856567 C-132.73738723 720.81958044 -127.38849635 746.48368929 -118 771 C-117.63358398 771.97380615 -117.63358398 771.97380615 -117.25976562 772.96728516 C-115.09991885 778.52223354 -113.16007033 782.97103448 -107.6875 785.75 C-101.33714528 787.83837169 -95.72436107 788.07549729 -89.625 785.1875 C-86.98205907 783.76814283 -84.89730981 782.33840727 -83 780 C-81.86179885 772.71058737 -83.40276426 765.12759127 -84.9375 758 C-85.26802368 756.45638794 -85.26802368 756.45638794 -85.60522461 754.8815918 C-95.40153999 711.37914351 -116.96810631 670.12679305 -136.4486084 630.23901367 C-139.06229801 624.88369914 -141.62942871 619.5070335 -144.1875 614.125 C-147.76486138 606.60795926 -151.39936206 599.11999649 -155.0546875 591.640625 C-155.50501846 590.71897552 -155.95534943 589.79732605 -156.41932678 588.8477478 C-158.70079771 584.17982355 -160.98487525 579.51319482 -163.2722168 574.84814453 C-164.12032049 573.11492869 -164.96838532 571.38169384 -165.81640625 569.6484375 C-166.20863373 568.85044739 -166.60086121 568.05245728 -167.00497437 567.23028564 C-168.8125496 563.53218641 -170.54665417 559.85605077 -172 556 C-174.35287614 556 -176.79373224 557.24893012 -179 558 Z M-178 590 C-177.36119888 597.40305213 -176.32207422 604.69438325 -175.109375 612.0234375 C-174.92460602 613.15478119 -174.73983704 614.28612488 -174.54946899 615.45175171 C-173.95340831 619.09346443 -173.35231324 622.73431649 -172.75 626.375 C-172.54513977 627.61608521 -172.34027954 628.85717041 -172.12921143 630.13586426 C-170.9295864 637.39944389 -169.72262351 644.66177548 -168.51159668 651.92346191 C-168.07098953 654.57309732 -167.63408184 657.22328111 -167.20019531 659.87402344 C-161.79551076 692.84921229 -153.12234396 724.12403589 -138 754 C-136.86319448 750.58958343 -137.15359558 749.64390002 -138.08203125 746.26171875 C-138.34927002 745.24231201 -138.61650879 744.22290527 -138.8918457 743.17260742 C-139.34756958 741.44747925 -139.34756958 741.44747925 -139.8125 739.6875 C-143.21653476 726.29527623 -145.7560363 712.80245673 -148.18365479 699.20263672 C-154.81801337 662.11771196 -162.71260829 625.01628644 -177 590 C-177.33 590 -177.66 590 -178 590 Z M-98 664 C-96.33778155 669.64597106 -93.77353917 674.73749078 -91.1875 680 C-87.21568645 688.18873901 -83.76903909 696.32853548 -81 705 C-78.70873792 698.63486269 -82.84385528 691.59994077 -85.42675781 685.79150391 C-86.9481814 682.60727686 -88.52267072 679.45673008 -90.125 676.3125 C-90.66253906 675.23033203 -91.20007813 674.14816406 -91.75390625 673.03320312 C-93.98590194 667.69699928 -93.98590194 667.69699928 -98 664 Z M-80 705 C-79 708 -79 708 -79 708 Z M-79 709 C-78 711 -78 711 -78 711 Z M-58 757 C-58.21914063 758.08796875 -58.43828125 759.1759375 -58.6640625 760.296875 C-60.77732824 770.2756794 -63.08705067 780.40709083 -70.00390625 788.28125 C-72.64304413 791.87584875 -73.6732579 795.51194551 -74.9375 799.75 C-76.80501256 805.71356611 -78.76033603 811.1484571 -82.1171875 816.46875 C-83.16648911 817.99419291 -83.16648911 817.99419291 -83 820 C-77.88309404 821.77525309 -74.40017926 822.37459108 -69 821 C-60.20044917 816.24824255 -56.47752822 809.09664863 -53.30859375 800.01953125 C-49.36682387 785.76851707 -52.56624246 770.96496927 -56 757 C-56.66 757 -57.32 757 -58 757 Z M-150 758 C-148.70180936 764.53684881 -146.87731076 770.51593839 -144.375 776.6875 C-144.02236084 777.55818115 -143.66972168 778.4288623 -143.30639648 779.32592773 C-137.24158752 793.94854175 -128.97602902 810.90878626 -114 818 C-110.97481359 818.94393183 -108.1435701 819.50102062 -105 820 C-105.3403125 819.50113281 -105.680625 819.00226562 -106.03125 818.48828125 C-111.5364911 810.33291079 -117.00771096 802.07717077 -121.375 793.25 C-123.31048044 789.67033217 -125.58850606 787.43917449 -128.6875 784.8125 C-136.43160031 778.22423555 -141.7508877 769.71821186 -147.0625 761.125 C-147.701875 760.09375 -148.34125 759.0625 -149 758 C-149.33 758 -149.66 758 -150 758 Z M-102 800 C-100.38617965 804.03455089 -99.59503354 805.79681064 -96.875 808.8125 C-96.33617187 809.41707031 -95.79734375 810.02164063 -95.2421875 810.64453125 C-94.83226562 811.09183594 -94.42234375 811.53914063 -94 812 C-90.5659298 810.61482883 -89.29977978 809.34555636 -87.75 806 C-87.41484375 805.29875 -87.0796875 804.5975 -86.734375 803.875 C-85.87843603 802.02523826 -85.87843603 802.02523826 -86 800 C-91.28 800 -96.56 800 -102 800 Z " fill="#6F7F6F" transform="translate(809,348)"/>
<path d="M0 0 C13.01420293 11.06629907 24.74523369 23.01482246 35.19189453 36.5402832 C39.21965966 41.72841149 43.48457003 46.68185171 47.81347656 51.61962891 C50.97988211 55.23581869 54.06487988 58.89510181 57.07421875 62.64453125 C82.58504177 93.99296602 114.02835571 125.26054985 155.99183655 129.80612183 C160.29135349 130.17024894 164.58180989 130.18190519 168.89453125 130.1875 C170.3825676 130.19358025 170.3825676 130.19358025 171.90066528 130.19978333 C175.14604904 130.2092597 178.39132295 130.20917021 181.63671875 130.20703125 C182.75365112 130.20775635 183.8705835 130.20848145 185.0213623 130.20922852 C203.49618662 130.20791531 221.91466319 129.68980525 240.36376953 128.73120117 C257.1715374 127.87002911 274.23308718 127.08302368 291.01171875 128.76953125 C292.35786255 128.90041138 292.35786255 128.90041138 293.73120117 129.03393555 C315.24974834 131.35303485 331.78049615 140.55102337 345.50390625 157.4765625 C374.79573264 196.39935905 374.98165265 243.85402199 372.51171875 290.45703125 C369.59522977 341.46188357 369.59522977 341.46188357 383.51171875 390.01953125 C383.95128906 390.93863281 384.39085937 391.85773438 384.84375 392.8046875 C392.19956778 407.21236365 403.96434214 420.25389964 419.35351562 426.09887695 C427.63138275 428.72297138 435.71061477 430.04757888 444.32421875 431.01953125 C465.38687635 433.60455838 483.28986795 437.39140614 499.51171875 452.01953125 C500.18460938 452.59960938 500.8575 453.1796875 501.55078125 453.77734375 C520.92145404 471.60453664 529.3797785 499.31675384 530.71484375 524.9140625 C531.23564971 568.44476039 510.39686437 606.81099342 488.83984375 643.34765625 C484.62341175 650.5035437 480.57974669 657.74808514 476.60253906 665.0390625 C475.57841966 666.89843058 474.52990896 668.74136148 473.47265625 670.58203125 C454.8590235 703.4607472 446.41574611 738.95594398 455.89892578 775.92822266 C461.46306822 795.81003421 470.82005734 814.75817718 479.69921875 833.33203125 C498.72402273 873.16589328 514.74841535 918.25221593 500.32421875 962.20703125 C490.72100485 987.25014295 471.59053646 1005.91670192 448.390625 1018.6796875 C447.62222794 1019.10439835 446.85383087 1019.52910919 446.06214905 1019.96669006 C435.42735492 1025.78133699 424.50347999 1031.04290773 413.60424805 1036.33959961 C385.12179194 1050.2069939 360.66994378 1064.94553807 349.0390625 1095.796875 C343.38867021 1112.54069802 341.57355584 1130.24100182 339.33474731 1147.69003296 C335.56528611 1177.0612046 331.7298477 1206.87829932 311.51171875 1230.01953125 C310.99351563 1230.69242188 310.4753125 1231.3653125 309.94140625 1232.05859375 C291.88573214 1254.83233345 258.80683214 1262.90854727 231.42944336 1266.21020508 C221.61258089 1267.3187601 211.78881982 1268.17018525 201.93887329 1268.90989685 C167.84383169 1271.47166562 137.06073516 1275.15978687 111.51171875 1300.01953125 C110.8775 1300.60347656 110.24328125 1301.18742187 109.58984375 1301.7890625 C104.7729195 1306.33956395 101.10254005 1311.46861957 97.51171875 1317.01953125 C96.66287109 1318.30923828 96.66287109 1318.30923828 95.796875 1319.625 C85.5611904 1336.08100994 80.42601847 1355.11728966 75.22998047 1373.61499023 C68.38046645 1397.86107642 57.90982252 1416.94947496 35.48291016 1430.11376953 C4.21752314 1447.56979492 -34.21227414 1446.02535914 -67.80078125 1436.95703125 C-82.9461721 1432.65215792 -97.3718036 1426.54949189 -111.49072266 1419.62084961 C-133.17178802 1409.00974619 -154.73594437 1410.76713516 -177.18579102 1418.04248047 C-188.54757981 1421.93857049 -199.54777598 1426.7918224 -210.60827637 1431.45657349 C-251.82469994 1448.80606721 -288.67545559 1455.36159554 -331.1953125 1438.16796875 C-358.94851522 1426.43363157 -385.15195292 1408.27313299 -404.48828125 1385.01953125 C-405.66390625 1383.69308594 -405.66390625 1383.69308594 -406.86328125 1382.33984375 C-417.57969887 1370.17811326 -426.74310576 1356.79461623 -435.05078125 1342.89453125 C-451.56051412 1315.2869949 -471.4629243 1289.41224692 -503.921875 1281.046875 C-526.27913475 1275.78261933 -549.10440054 1275.96588558 -571.92578125 1276.01953125 C-613.83066293 1276.11801841 -657.69198997 1275.70906568 -689.73828125 1244.796875 C-720.85739204 1213.36834123 -721.26322322 1168.28660269 -722.91329956 1126.87521362 C-724.50446279 1073.43781223 -724.50446279 1073.43781223 -751.48828125 1029.01953125 C-771.11883239 1013.1935553 -795.56939651 1006.2185278 -819.16772461 998.52124023 C-840.91733662 991.40904159 -860.94589815 983.02373071 -878.48828125 968.01953125 C-879.42027344 967.28669922 -879.42027344 967.28669922 -880.37109375 966.5390625 C-895.35823653 954.54262758 -904.38806156 935.90029413 -906.48828125 917.01953125 C-907.70045485 898.95615737 -903.4744036 883.11097181 -895.48828125 867.01953125 C-895.18937988 866.4054541 -894.89047852 865.79137695 -894.58251953 865.15869141 C-889.17279977 854.14322634 -882.38857413 844.14141198 -875.48828125 834.01953125 C-853.51401475 801.69026793 -834.0909496 772.91926213 -841.46484375 732.015625 C-846.1894059 707.94842473 -856.9558117 685.53201156 -866.99261475 663.31314087 C-885.47985676 622.38314623 -904.15425493 578.14017138 -888.32470703 533.18994141 C-879.23232626 509.59646065 -861.42732185 491.81705824 -841.48828125 477.01953125 C-840.81555176 476.5184082 -840.14282227 476.01728516 -839.44970703 475.50097656 C-830.75775374 469.05579984 -821.89591625 462.914273 -812.86328125 456.95703125 C-800.03542293 448.48478729 -787.61946308 439.66936467 -776.48828125 429.01953125 C-775.78316406 428.36597656 -775.07804688 427.71242188 -774.3515625 427.0390625 C-763.02234854 416.22775547 -755.69822267 402.62279536 -751.67578125 387.58203125 C-751.48097168 386.85636963 -751.28616211 386.13070801 -751.08544922 385.38305664 C-747.77546886 372.03669091 -747.19732541 358.77458137 -747.183321 345.09855652 C-747.17958663 342.15887823 -747.16266991 339.2195168 -747.14256287 336.27990723 C-747.08783591 327.93243385 -747.05668623 319.58491537 -747.03198242 311.23730469 C-747.01587138 306.09754605 -746.98541677 300.95801393 -746.94721794 295.81837463 C-746.93577372 293.88923087 -746.92963945 291.96004623 -746.92953682 290.03086853 C-746.92877558 279.52706103 -746.46779954 269.23662917 -745.12866211 258.81054688 C-745.01003343 257.88587364 -744.89140474 256.96120041 -744.76918125 256.00850677 C-742.00260382 236.23038917 -734.9812355 217.9600055 -721.48828125 203.01953125 C-720.83601562 202.27445313 -720.18375 201.529375 -719.51171875 200.76171875 C-700.66400793 180.50219439 -672.99165874 173.03816831 -646.12346268 171.92122269 C-641.28486057 171.81168588 -636.44858578 171.84238508 -631.60942268 171.89976692 C-628.93534241 171.93070679 -626.26149038 171.94695583 -623.58726501 171.95982361 C-615.99851198 171.99895176 -608.41004067 172.06427905 -600.8215332 172.13598633 C-596.13882522 172.17924332 -591.45620866 172.20699506 -586.77334404 172.22628593 C-585.01666161 172.23668034 -583.26000139 172.25287058 -581.50343513 172.2755909 C-559.73377013 172.55693285 -538.54333758 170.24457251 -520.48828125 157.01953125 C-519.781875 156.5090625 -519.07546875 155.99859375 -518.34765625 155.47265625 C-499.36294466 140.37457853 -491.36388181 111.64487396 -482.29882812 90.20654297 C-465.72573086 51.17253757 -436.02878865 21.78140018 -396.67578125 5.76953125 C-387.13688118 2.02627988 -377.48963216 -0.78255688 -367.48828125 -2.98046875 C-366.43447266 -3.22603516 -366.43447266 -3.22603516 -365.359375 -3.4765625 C-335.51284859 -10.22689838 -303.92329399 -6.19115372 -275.04418945 2.50634766 C-248.76858417 10.38151886 -220.10558498 10.68879953 -193.48828125 4.01953125 C-192.19664062 3.71329834 -192.19664062 3.71329834 -190.87890625 3.40087891 C-173.39107506 -0.80808924 -156.49849877 -7.02799802 -139.59765625 -13.11816406 C-90.70959056 -30.60904581 -42.0994526 -34.82625843 0 0 Z M-114.84765625 -6.26953125 C-115.70649918 -6.01139648 -116.5653421 -5.75326172 -117.45021057 -5.48730469 C-126.02245485 -2.87430545 -134.45804134 0.08998413 -142.89242554 3.11358643 C-192.71379025 20.93003726 -238.07802359 28.11442191 -289.58032227 13.24438477 C-303.31497753 9.30149957 -316.4168381 7.6307213 -330.67578125 7.70703125 C-331.40261108 7.7091864 -332.12944092 7.71134155 -332.8782959 7.71356201 C-343.99798722 7.76639658 -354.67287619 8.28621022 -365.48828125 11.01953125 C-366.30619141 11.21820801 -367.12410156 11.41688477 -367.96679688 11.62158203 C-404.572264 20.69142216 -438.23673421 41.56358994 -458.48828125 74.01953125 C-465.43098582 85.97919407 -470.66938547 98.55082251 -475.91015625 111.3203125 C-479.83772499 120.86078731 -483.93829206 130.22240628 -488.734375 139.36328125 C-489.13856659 140.13468445 -489.54275818 140.90608765 -489.959198 141.7008667 C-493.51154003 148.32992032 -497.61689459 154.27166403 -502.48828125 160.01953125 C-503.02453125 160.66792969 -503.56078125 161.31632813 -504.11328125 161.984375 C-519.04471534 178.44628109 -543.13771922 184.68015004 -564.48828125 186.01953125 C-569.81345649 186.10837229 -575.13465875 186.07979242 -580.46016884 186.03356552 C-583.15933575 186.01124091 -585.85842924 185.99735552 -588.55766296 185.98587036 C-596.22677521 185.95258677 -603.89576846 185.91132091 -611.56469727 185.84814453 C-616.27711354 185.80992876 -620.9894068 185.78730189 -625.7019558 185.77383804 C-627.47372043 185.76592075 -629.24547136 185.75251624 -631.01714516 185.73290634 C-659.37770352 185.42472894 -686.72166816 189.59939208 -708.23608398 209.53222656 C-726.96370622 227.96845364 -732.45776818 255.5918763 -732.75952148 280.93212891 C-732.78014827 283.64708858 -732.79045862 286.36176449 -732.7932415 289.0768013 C-732.79698017 292.0162846 -732.81390657 294.95545223 -732.83399963 297.89486694 C-732.88869559 306.24056043 -732.91990844 314.58629814 -732.94458008 322.93212891 C-732.96067629 328.0730361 -732.99111324 333.21371605 -733.02934456 338.35450363 C-733.04079757 340.28447387 -733.04692313 342.21448507 -733.04702568 344.14448929 C-733.04942685 377.30838384 -738.38513666 410.36858791 -762.48828125 435.01953125 C-763.35453125 435.90640625 -764.22078125 436.79328125 -765.11328125 437.70703125 C-765.89703125 438.47015625 -766.68078125 439.23328125 -767.48828125 440.01953125 C-767.94976563 440.51453125 -768.41125 441.00953125 -768.88671875 441.51953125 C-782.92129061 456.3071777 -801.76247427 467.30397228 -818.67578125 478.45703125 C-847.89601494 497.78411171 -871.45620737 519.67840619 -879.48828125 555.01953125 C-886.69633731 590.57927447 -867.43034256 628.32513202 -853.02029419 659.68887329 C-835.43355505 697.97184583 -815.71770293 741.75854613 -830.43701172 784.2355957 C-831.67800974 787.54724773 -833.04905139 790.78966025 -834.48828125 794.01953125 C-834.76236816 794.64327637 -835.03645508 795.26702148 -835.31884766 795.90966797 C-842.39157731 811.70175354 -852.15631959 826.4484251 -862.5 840.26953125 C-878.30635124 862.13136086 -896.67359265 889.65140825 -892.17919922 917.96679688 C-889.48754253 932.30854876 -883.62416817 942.57758736 -873.48828125 953.01953125 C-872.69357422 953.92445313 -872.69357422 953.92445313 -871.8828125 954.84765625 C-856.11564419 972.19559465 -831.72352151 979.47656544 -810.19091797 986.50292969 C-757.40351243 1003.73485164 -757.40351243 1003.73485164 -740.48828125 1020.01953125 C-739.64136719 1020.82648438 -738.79445313 1021.6334375 -737.921875 1022.46484375 C-710.22502237 1050.79597545 -710.29408412 1093.73924952 -708.79418945 1130.75219727 C-707.25982432 1183.07138279 -707.25982432 1183.07138279 -684.48828125 1229.01953125 C-683.86179687 1229.8084375 -683.2353125 1230.59734375 -682.58984375 1231.41015625 C-668.4236049 1248.40964287 -646.9186049 1256.45730677 -625.61328125 1259.76953125 C-624.87255371 1259.88522461 -624.13182617 1260.00091797 -623.36865234 1260.12011719 C-609.47248075 1262.05283351 -595.41218861 1262.0984489 -581.41015625 1262.23046875 C-580.31793825 1262.24123192 -580.31793825 1262.24123192 -579.20365524 1262.25221252 C-572.34889939 1262.31937794 -565.49414832 1262.38318261 -558.63916016 1262.42089844 C-517.12010301 1262.66190118 -480.9875799 1266.62111508 -450.28125 1297.21875 C-439.75824887 1308.38640345 -431.68176236 1321.62146875 -423.48828125 1334.51953125 C-403.33599023 1366.22922898 -380.27604044 1394.70450045 -347.48828125 1414.01953125 C-346.45888428 1414.62861328 -346.45888428 1414.62861328 -345.40869141 1415.25 C-318.12188569 1431.12507157 -285.79850062 1440.37859186 -254.546875 1432.41186523 C-239.90582946 1428.36058474 -225.90604253 1422.46296939 -211.91229248 1416.61737061 C-182.43292295 1404.30417034 -182.43292295 1404.30417034 -168.48828125 1401.01953125 C-167.76479492 1400.8488916 -167.04130859 1400.67825195 -166.29589844 1400.50244141 C-141.47779816 1394.89817578 -120.12468772 1399.40181962 -97.36328125 1410.39453125 C-81.61717941 1417.97139015 -65.57273962 1423.35830572 -48.48828125 1427.01953125 C-46.77705078 1427.39078125 -46.77705078 1427.39078125 -45.03125 1427.76953125 C-22.5082166 1431.76868885 2.85510355 1430.34783885 23.51171875 1420.01953125 C24.40632812 1419.61347656 25.3009375 1419.20742187 26.22265625 1418.7890625 C39.80082984 1412.15559947 51.35629484 1400.50569332 56.52197266 1386.22705078 C59.08708275 1378.56060959 61.31532839 1370.7981176 63.51171875 1363.01953125 C70.2683166 1339.219559 78.72176726 1316.3993829 94.51171875 1297.01953125 C95.43017578 1295.85357422 95.43017578 1295.85357422 96.3671875 1294.6640625 C119.16724924 1267.19703716 152.6188231 1259.35221664 186.45898438 1256.08837891 C193.34123884 1255.45249978 200.22648549 1254.8795463 207.1171875 1254.34375 C237.57303186 1251.94726234 269.48237582 1248.91461206 293.51171875 1228.01953125 C294.32511719 1227.313125 295.13851563 1226.60671875 295.9765625 1225.87890625 C321.02324852 1202.56889337 323.35960545 1165.39664215 327.28125 1133.47363281 C328.40143175 1124.47524919 329.663274 1115.56244015 331.5234375 1106.68359375 C331.7578933 1105.56328011 331.7578933 1105.56328011 331.99708557 1104.42033386 C338.0100364 1076.9892317 352.73284191 1055.77349184 376.40625 1040.57421875 C388.17368799 1033.18074166 400.4845697 1027.00295838 413.01171875 1021.01953125 C444.08974144 1006.16982147 474.33223976 989.82775997 487.51171875 956.01953125 C501.08490214 912.90471343 481.20019534 870.44505217 463.30981445 831.99917603 C441.49222766 785.05714206 441.49222766 785.05714206 438.51171875 761.01953125 C438.34736328 759.71048828 438.34736328 759.71048828 438.1796875 758.375 C434.50950187 724.16886992 445.99882029 692.87674825 461.51171875 663.01953125 C462.18361836 661.70704385 462.85549327 660.3945438 463.52734375 659.08203125 C467.86987764 650.67762076 472.53100994 642.48712539 477.32421875 634.33203125 C483.96708789 623.02427627 490.42237636 611.6360876 496.51171875 600.01953125 C497.08744629 598.9214917 497.08744629 598.9214917 497.67480469 597.80126953 C506.1454966 581.39265773 512.53988126 563.26808708 515.51171875 545.01953125 C515.69347656 543.91480469 515.87523437 542.81007813 516.0625 541.671875 C519.1264103 516.76095214 513.06359685 490.88178406 497.69921875 470.83203125 C481.85454246 451.86051183 462.19145395 447.00658581 438.71801758 444.25830078 C415.85335739 441.52707014 396.85801438 433.94205794 382.19970703 415.35595703 C368.34332557 396.95141604 361.01181259 374.78201354 358.51171875 352.01953125 C358.40085937 351.02050781 358.29 350.02148438 358.17578125 348.9921875 C356.56558464 331.04067122 357.44669779 312.9769018 358.37060547 295.01422119 C360.73141594 249.09584495 362.89114746 198.13665116 330.07421875 161.58203125 C315.73306601 146.25768482 298.94698073 142.70159894 278.65966797 141.90795898 C275.65116994 141.84795527 272.64582471 141.83019936 269.63671875 141.83203125 C268.45875732 141.83138672 267.2807959 141.83074219 266.06713867 141.83007812 C255.60576187 141.88801036 245.17784805 142.36809176 234.73016357 142.87841797 C218.04186493 143.6888052 201.37385534 144.25454048 184.66439819 144.3190918 C182.60433193 144.32754687 180.54427848 144.34100321 178.48428345 144.36010742 C137.4209737 144.70313305 107.56165212 133.01199171 77.51171875 105.01953125 C76.12027209 103.80614906 74.72463236 102.59755322 73.32421875 101.39453125 C67.57006554 96.36831308 62.3708548 90.96093917 57.38671875 85.17578125 C55.33812781 82.81990167 53.23968873 80.51445665 51.13671875 78.20703125 C46.40429941 72.96126473 41.94869312 67.51550473 37.51171875 62.01953125 C32.68764256 56.08021164 27.82628615 50.17557176 22.88671875 44.33203125 C22.24017334 43.56656982 22.24017334 43.56656982 21.58056641 42.78564453 C20.22961044 41.19230069 18.87223805 39.60471708 17.51171875 38.01953125 C16.9796582 37.39844482 16.44759766 36.7773584 15.89941406 36.13745117 C-4.0029843 13.12565545 -28.95432833 -9.17529641 -60.48828125 -12.98046875 C-79.57536938 -14.04804212 -96.62965707 -11.74845537 -114.84765625 -6.26953125 Z " fill="#6F7F6F" transform="translate(906.48828125,26.98046875)"/>
<path d="M0 0 C1.093125 0.00257812 2.18625 0.00515625 3.3125 0.0078125 C4.405625 0.00523438 5.49875 0.00265625 6.625 0 C9.3125 0.1328125 9.3125 0.1328125 10.3125 1.1328125 C10.40114512 4.01692425 10.42778526 6.87764059 10.41015625 9.76171875 C10.40914917 10.52738159 10.40814209 11.29304443 10.40710449 12.08190918 C10.40185663 14.95305877 10.38789547 17.82418708 10.375 20.6953125 C10.354375 27.1096875 10.33375 33.5240625 10.3125 40.1328125 C24.5025 40.1328125 38.6925 40.1328125 53.3125 40.1328125 C53.27289654 27.67197555 53.27289654 27.67197555 53.22241211 15.21118164 C53.21949295 13.65511137 53.21694439 12.09904034 53.21484375 10.54296875 C53.20972778 9.72759644 53.20461182 8.91222412 53.19934082 8.07214355 C53.1990306 6.09200727 53.25011904 4.11196596 53.3125 2.1328125 C54.3125 1.1328125 54.3125 1.1328125 57.21875 1 C58.4046875 1.00257812 59.590625 1.00515625 60.8125 1.0078125 C61.9984375 1.00523438 63.184375 1.00265625 64.40625 1 C67.3125 1.1328125 67.3125 1.1328125 68.3125 2.1328125 C68.41196073 3.49448616 68.44330302 4.8612627 68.4453125 6.2265625 C68.44821289 7.51397339 68.44821289 7.51397339 68.45117188 8.82739258 C68.44666016 9.75318115 68.44214844 10.67896973 68.4375 11.6328125 C68.43556641 12.57084717 68.43363281 13.50888184 68.43164062 14.4753418 C68.37938774 23.06005611 67.90821177 31.56945581 67.3125 40.1328125 C74.2425 40.4628125 81.1725 40.7928125 88.3125 41.1328125 C88.30089844 39.33972656 88.28929687 37.54664063 88.27734375 35.69921875 C88.26796771 33.36458437 88.25886731 31.02994887 88.25 28.6953125 C88.24162109 27.51130859 88.23324219 26.32730469 88.22460938 25.10742188 C88.22138672 23.98271484 88.21816406 22.85800781 88.21484375 21.69921875 C88.20960693 20.65709229 88.20437012 19.61496582 88.19897461 18.54125977 C88.3125 16.1328125 88.3125 16.1328125 89.3125 15.1328125 C92.15585048 15.03294275 94.96947163 14.99403369 97.8125 15.0078125 C99.00939453 15.00201172 99.00939453 15.00201172 100.23046875 14.99609375 C106.18589233 15.00620483 106.18589233 15.00620483 107.3125 16.1328125 C107.41562037 17.50340843 107.45098953 18.87920909 107.45776367 20.25366211 C107.46733345 21.56523537 107.46733345 21.56523537 107.47709656 22.90330505 C107.47876579 24.3298214 107.47876579 24.3298214 107.48046875 25.78515625 C107.48379715 26.75562393 107.48712555 27.72609161 107.49055481 28.72596741 C107.4956283 30.7830457 107.49796301 32.84013225 107.49780273 34.8972168 C107.49998826 38.05335994 107.51813691 41.20915321 107.53710938 44.36523438 C107.54004333 46.3593738 107.54202811 48.35351489 107.54296875 50.34765625 C107.55015427 51.29664291 107.55733978 52.24562958 107.56474304 53.22337341 C107.56166641 54.10090775 107.55858978 54.97844208 107.55541992 55.88256836 C107.55684494 56.6567662 107.55826996 57.43096405 107.55973816 58.22862244 C107.3125 60.1328125 107.3125 60.1328125 105.3125 62.1328125 C102.6002875 62.35785599 100.02376815 62.45716245 97.3125 62.4453125 C96.57515625 62.46142578 95.8378125 62.47753906 95.078125 62.49414062 C92.9375 62.49609375 92.9375 62.49609375 89.3125 62.1328125 C87.3125 59.1328125 87.3125 59.1328125 87.3125 55.1328125 C80.7125 55.1328125 74.1125 55.1328125 67.3125 55.1328125 C67.3125 65.3628125 67.3125 75.5928125 67.3125 86.1328125 C69.560625 86.1946875 71.80875 86.2565625 74.125 86.3203125 C152.79387679 90.08956265 232.95088531 118.56811934 300.3125 158.1328125 C301.17955566 158.6366748 302.04661133 159.14053711 302.93994141 159.65966797 C328.18184136 174.34230256 351.92932661 191.39055739 374.3125 210.1328125 C375.22273926 210.89440674 375.22273926 210.89440674 376.15136719 211.67138672 C377.9394399 213.1733485 379.72134456 214.6822141 381.5 216.1953125 C381.99733643 216.61699707 382.49467285 217.03868164 383.00708008 217.47314453 C393.58622344 226.56404407 403.60352444 236.25742908 413.44433594 246.13427734 C415.2039348 247.89929794 416.96890397 249.65882383 418.734375 251.41796875 C424.47381667 257.15368769 430.08106843 262.92323142 435.3125 269.1328125 C436.28501677 270.25125511 437.25894613 271.36847121 438.234375 272.484375 C460.96042958 298.71802608 480.91300366 327.11027425 498.3125 357.1328125 C498.72918945 357.84904785 499.14587891 358.5652832 499.57519531 359.30322266 C534.39521788 419.51693023 556.57288182 486.0472573 566.0625 554.8828125 C566.16373169 555.60667145 566.26496338 556.3305304 566.3692627 557.07632446 C569.62901 580.67989507 570.69381105 604.25840222 570.625 628.0703125 C570.62350952 629.35519562 570.62201904 630.64007874 570.6204834 631.96389771 C570.57779175 652.51307757 569.84902334 672.73775721 567.3125 693.1328125 C567.16796387 694.34163086 567.02342773 695.55044922 566.87451172 696.79589844 C559.61774788 756.21617732 541.99412134 813.18675341 516.3125 867.1328125 C515.88388672 868.04063477 515.45527344 868.94845703 515.01367188 869.88378906 C498.58207797 904.49048187 477.1515582 937.1850405 453.3125 967.1328125 C452.63936768 967.98262695 452.63936768 967.98262695 451.95263672 968.84960938 C449.4571021 971.98846878 446.90179443 975.07105289 444.3125 978.1328125 C443.8808252 978.6479541 443.44915039 979.1630957 443.00439453 979.69384766 C431.45318379 993.46629087 419.12420358 1006.40722441 406.4375 1019.1328125 C405.94526947 1019.62772186 405.45303894 1020.12263123 404.94589233 1020.63253784 C399.2478163 1026.35415228 393.45767345 1031.89143804 387.3125 1037.1328125 C386.1556098 1038.15405393 385.00062674 1039.17746031 383.84765625 1040.203125 C375.27365662 1047.76820246 366.39157116 1054.79960099 357.24951172 1061.66308594 C354.54789656 1063.71296283 351.90561779 1065.83633582 349.25 1067.9453125 C328.37047531 1083.9964471 305.44137373 1097.45392059 282.33984375 1110.02294922 C280.50980338 1111.02479935 278.69162282 1112.04823972 276.875 1113.07421875 C204.82710845 1153.01743641 119.19948494 1172.39853114 37.3125 1174.1328125 C36.43561523 1174.15472656 35.55873047 1174.17664062 34.65527344 1174.19921875 C-46.36744535 1176.00306407 -128.33702265 1158.60600466 -201.77050781 1124.48632812 C-204.43063583 1123.25200023 -207.09975251 1122.04052979 -209.7734375 1120.8359375 C-221.57385475 1115.45884015 -232.81034084 1109.17814171 -244.0234375 1102.67578125 C-246.40536667 1101.29621817 -248.79467718 1099.93085255 -251.1875 1098.5703125 C-274.41050455 1085.26668176 -296.35805182 1069.66054574 -316.93896484 1052.57714844 C-319.41839102 1050.52907733 -321.93122046 1048.52287559 -324.4375 1046.5078125 C-329.35451795 1042.48547 -334.0213579 1038.23442178 -338.66796875 1033.90625 C-340.8106695 1031.91376362 -343.00809984 1030.00382709 -345.234375 1028.10546875 C-350.74196344 1023.3050194 -355.86081148 1018.10885046 -361.01489258 1012.93579102 C-362.746447 1011.1988765 -364.48328359 1009.46737361 -366.22070312 1007.73632812 C-371.92300064 1002.03780971 -377.48925063 996.30154114 -382.6875 990.1328125 C-383.64841503 989.0261922 -384.61062373 987.92069372 -385.57421875 986.81640625 C-416.56489533 950.98941354 -442.45968715 911.46051448 -463.6875 869.1328125 C-464.1201416 868.27155762 -464.5527832 867.41030273 -464.99853516 866.52294922 C-491.74936497 812.84658191 -508.58135306 753.62211898 -515.6875 694.1328125 C-515.83703125 692.90933105 -515.9865625 691.68584961 -516.140625 690.42529297 C-520.97521002 648.91975541 -521.10883896 605.58913241 -515.6875 564.1328125 C-515.59039734 563.37814697 -515.49329468 562.62348145 -515.39324951 561.84594727 C-511.04243219 528.27140693 -504.10951165 495.36811806 -493.6875 463.1328125 C-493.11926514 461.37445068 -493.11926514 461.37445068 -492.53955078 459.58056641 C-476.62266356 410.87789102 -453.71788045 364.35453752 -424.6875 322.1328125 C-424.18718262 321.40433105 -423.68686523 320.67584961 -423.17138672 319.92529297 C-416.35567675 310.04240397 -409.23066122 300.47112914 -401.6875 291.1328125 C-400.93984375 290.20210938 -400.1921875 289.27140625 -399.421875 288.3125 C-395.30793533 283.23666796 -391.10963591 278.23307829 -386.875 273.2578125 C-386.43808838 272.74154297 -386.00117676 272.22527344 -385.55102539 271.69335938 C-376.53923125 261.16872919 -366.92520379 251.20280474 -357.11328125 241.42822266 C-355.42068653 239.74105292 -353.73359403 238.04851054 -352.046875 236.35546875 C-346.42936685 230.7341627 -340.76430036 225.26202669 -334.6875 220.1328125 C-333.56914054 219.16020011 -332.45192347 218.18627235 -331.3359375 217.2109375 C-260.07344708 155.47666948 -173.67383089 113.47245242 -4.6875 85.1328125 C-4.6875 74.9028125 -4.6875 64.6728125 -4.6875 54.1328125 C-7.13027344 54.14441406 -9.57304688 54.15601563 -12.08984375 54.16796875 C-14.44620636 54.17575934 -16.80256756 54.18183609 -19.15893555 54.18774414 C-20.80119464 54.19278424 -22.44344923 54.19961628 -24.08569336 54.20825195 C-26.44125479 54.22033176 -28.79675709 54.22604389 -31.15234375 54.23046875 C-31.89089096 54.23563004 -32.62943817 54.24079132 -33.3903656 54.24610901 C-35.15648088 54.246305 -36.92247146 54.19475969 -38.6875 54.1328125 C-40.49496134 52.32535116 -39.86053483 49.62835469 -39.875 47.1953125 C-39.88917969 46.11378906 -39.90335938 45.03226563 -39.91796875 43.91796875 C-39.6875 41.1328125 -39.6875 41.1328125 -37.6875 39.1328125 C-35.17269368 39.02835886 -32.78024532 39.04281545 -30.2734375 39.15625 C-29.54379791 39.18127594 -28.81415833 39.20630188 -28.06240845 39.23208618 C-25.72863768 39.31435465 -23.39570478 39.41091543 -21.0625 39.5078125 C-19.48180522 39.56604522 -17.90107591 39.62334865 -16.3203125 39.6796875 C-12.44222517 39.81994317 -8.5648295 39.97302029 -4.6875 40.1328125 C-4.69273682 39.235625 -4.69797363 38.3384375 -4.70336914 37.4140625 C-4.72051853 34.0519139 -4.73300216 30.6898125 -4.74243164 27.32763672 C-4.74742785 25.87873598 -4.75422709 24.42984019 -4.76293945 22.98095703 C-4.85347906 7.5253131 -4.85347906 7.5253131 -3.6875 1.1328125 C-2.6875 0.1328125 -2.6875 0.1328125 0 0 Z M9.3125 54.1328125 C9.3125 70.6328125 9.3125 87.1328125 9.3125 104.1328125 C3.0425 104.1328125 -3.2275 104.1328125 -9.6875 104.1328125 C-14.51146507 104.42564105 -19.26233563 104.76704722 -24.0625 105.2578125 C-25.3621167 105.38905518 -26.6617334 105.52029785 -28.00073242 105.65551758 C-66.44223194 109.69769194 -104.04641835 117.83427773 -140.6875 130.1328125 C-141.86538086 130.52726562 -143.04326172 130.92171875 -144.25683594 131.328125 C-161.1516427 137.0442397 -177.5082381 143.6359176 -193.6875 151.1328125 C-194.72503418 151.60976563 -195.76256836 152.08671875 -196.83154297 152.578125 C-227.50546742 166.73896159 -256.63257536 183.88324198 -283.6875 204.1328125 C-284.82763714 204.97592055 -285.96823107 205.81841139 -287.109375 206.66015625 C-300.65968317 216.71971245 -313.67522982 227.46359357 -326.14916992 238.83007812 C-327.74223816 240.27528536 -329.34209434 241.71308207 -330.95166016 243.13989258 C-336.98328188 248.49426411 -342.76693013 254.0562903 -348.45678711 259.77172852 C-349.88087492 261.20120967 -351.31028044 262.62521761 -352.74023438 264.04882812 C-357.93367033 269.24950231 -362.9173463 274.54359433 -367.6875 280.1328125 C-368.70877335 281.28967453 -369.73217815 282.44465877 -370.7578125 283.59765625 C-378.28330402 292.12589603 -385.30447145 300.94510693 -392.11865234 310.04931641 C-393.61123886 312.03153448 -395.12369276 313.99644447 -396.64453125 315.95703125 C-408.86819906 331.81222031 -419.70501683 348.78605073 -429.6875 366.1328125 C-430.24002441 367.08559082 -430.24002441 367.08559082 -430.80371094 368.05761719 C-444.35544162 391.53584764 -455.88874412 415.86725713 -465.6875 441.1328125 C-466.12545898 442.26090332 -466.56341797 443.38899414 -467.01464844 444.55126953 C-481.96032868 483.55598764 -491.63167188 524.69725823 -496.6875 566.1328125 C-496.83703125 567.29828613 -496.9865625 568.46375977 -497.140625 569.66455078 C-502.11833322 609.86705413 -501.94283106 651.97182887 -496.6875 692.1328125 C-496.56021515 693.13142303 -496.56021515 693.13142303 -496.43035889 694.15020752 C-485.46365279 780.13967386 -453.6517303 865.38519861 -401.6875 935.1328125 C-400.75139893 936.39134033 -400.75139893 936.39134033 -399.79638672 937.67529297 C-392.50590418 947.43766342 -385.10540222 957.0618763 -377.13671875 966.28125 C-374.71449086 969.10138774 -372.38518269 971.98045857 -370.0625 974.8828125 C-366.54176651 979.2145721 -362.78077201 983.14624989 -358.78515625 987.0390625 C-356.91818738 988.9025547 -355.20169398 990.80728103 -353.5 992.8203125 C-346.26497865 1001.23863173 -338.19456006 1009.21397359 -329.71875 1016.37890625 C-327.62034835 1018.19079537 -325.59817543 1020.07419602 -323.57543945 1021.96972656 C-317.72782554 1027.43139984 -311.63620787 1032.44485391 -305.30078125 1037.328125 C-302.89322799 1039.18428557 -300.51884868 1041.07257859 -298.16796875 1043 C-269.89855576 1066.14777867 -238.2304307 1084.70067494 -205.6875 1101.1328125 C-204.2955542 1101.83688232 -204.2955542 1101.83688232 -202.87548828 1102.55517578 C-135.81936544 1136.20700048 -60.46049249 1153.15044067 14.3125 1155.1328125 C15.63193604 1155.16785889 15.63193604 1155.16785889 16.97802734 1155.20361328 C107.88003573 1157.21389743 199.56963243 1133.96782447 357.56835938 1036.57275391 C360.02416737 1034.54526852 362.51572868 1032.56275554 365 1030.5703125 C370.77023219 1025.8437247 376.20487212 1020.78186294 381.64648438 1015.68554688 C383.3022866 1014.14233144 384.9691077 1012.61210547 386.640625 1011.0859375 C395.63392692 1002.86906439 404.52858692 994.56162209 412.4453125 985.28125 C414.3404838 983.10061357 416.29219074 980.97868769 418.2578125 978.86157227 C423.86719627 972.81443433 429.17497986 966.58966179 434.3125 960.1328125 C434.72435547 959.62057129 435.13621094 959.10833008 435.56054688 958.58056641 C495.89177631 883.52942422 534.52585878 793.17296233 547.5625 697.8203125 C547.71356201 696.72734863 547.86462402 695.63438477 548.02026367 694.50830078 C550.81698211 672.77497502 551.69235378 651.0283279 551.625 629.1328125 C551.62317719 627.89234161 551.62135437 626.65187073 551.61947632 625.37380981 C551.57044172 605.46847889 550.92776398 585.87375576 548.3125 566.1328125 C548.22528687 565.47118103 548.13807373 564.80954956 548.04821777 564.12786865 C538.61484925 493.18698884 515.94716062 424.7071371 479.3125 363.1328125 C478.78301758 362.24158691 478.25353516 361.35036133 477.70800781 360.43212891 C463.72999789 337.06038648 447.79151196 315.00967091 430.3125 294.1328125 C429.89822754 293.63362305 429.48395508 293.13443359 429.05712891 292.62011719 C418.29554107 279.65521278 406.81640256 267.46453157 394.88378906 255.57373047 C393.0463424 253.74170255 391.2143835 251.90430645 389.3828125 250.06640625 C383.52960692 244.20959748 377.65967747 238.45967514 371.3125 233.1328125 C370.30244692 232.25628863 369.29328517 231.37873625 368.28515625 230.5 C359.55497938 223.02368746 350.50559229 216.02861431 341.3125 209.1328125 C340.15476074 208.25955322 340.15476074 208.25955322 338.97363281 207.36865234 C328.04390582 199.13648457 316.94589988 191.33861358 305.3125 184.1328125 C304.55420898 183.66166016 303.79591797 183.19050781 303.01464844 182.70507812 C232.44256517 139.07446288 141.63884483 102.95746586 57.0625 104.0703125 C55.47916667 104.09114583 53.89583333 104.11197917 52.3125 104.1328125 C52.3839624 103.33536621 52.4554248 102.53791992 52.52905273 101.71630859 C53.34327534 91.71097057 53.42987905 81.78928803 53.375 71.7578125 C53.36996856 70.13541807 53.3654086 68.5130221 53.36132812 66.890625 C53.35046742 62.97131529 53.33329612 59.05208156 53.3125 55.1328125 C38.60253352 54.22157564 24.08702191 54.1328125 9.3125 54.1328125 Z " fill="#6F7F6F" transform="translate(692.6875,116.8671875)"/>
</svg>
