<?xml version="1.0" encoding="UTF-8"?>
<svg version="1.1" xmlns="http://www.w3.org/2000/svg" width="1466" height="529">
<path d="M0 0 C1.37898847 -0.00247617 1.37898847 -0.00247617 2.78583528 -0.00500236 C5.87121247 -0.00932162 8.95654179 -0.00652782 12.04192019 -0.00377727 C14.28392406 -0.00542717 16.52592764 -0.00751356 18.76793075 -0.00999737 C24.95575382 -0.01557037 31.14356306 -0.01489044 37.33138784 -0.01321978 C43.36024223 -0.01256492 49.38909238 -0.01659801 55.41794511 -0.0204838 C67.90099447 -0.02835558 80.38404097 -0.03144576 92.86709261 -0.03192973 C105.519097 -0.03243207 118.17109818 -0.03507846 130.82310152 -0.04033732 C131.62196575 -0.04066746 132.42082999 -0.04099759 133.24390222 -0.04133773 C136.49752264 -0.04268772 139.75114305 -0.04405039 143.00476345 -0.04542983 C181.52856053 -0.06173384 220.052357 -0.06811859 258.57615694 -0.0728777 C277.75767197 -0.07526072 296.93918665 -0.07896415 316.12070141 -0.0829148 C377.6445107 -0.09557926 439.16831998 -0.10636327 500.69213055 -0.10975526 C503.63273481 -0.1099175 506.57333906 -0.11008306 509.51394332 -0.11024964 C515.41139643 -0.11058344 521.30884953 -0.11091392 527.20630264 -0.1112442 C534.11082471 -0.1116311 541.01534678 -0.11202071 547.91986884 -0.11241527 C549.89600086 -0.11252769 551.87213287 -0.1126391 553.84826489 -0.11274952 C617.31878338 -0.11629918 680.78929055 -0.13137853 744.25980473 -0.15468726 C789.86621777 -0.17142885 835.47262867 -0.1869039 881.07904482 -0.19142222 C882.48591197 -0.19156245 882.48591197 -0.19156245 883.92120068 -0.19170551 C904.51072845 -0.19372456 925.10025618 -0.19488061 945.68978403 -0.1952341 C953.05716247 -0.19537027 960.4245409 -0.19557927 967.79191933 -0.19582735 C969.624747 -0.19588891 971.45757467 -0.19594723 973.29040234 -0.1960023 C1002.49486433 -0.19692209 1031.69931449 -0.20688998 1060.90377259 -0.22145979 C1090.31991057 -0.23607648 1119.73603405 -0.24111716 1149.15217502 -0.23304025 C1153.21817353 -0.23192489 1157.28417206 -0.23091422 1161.35017061 -0.22996593 C1162.54572644 -0.22968097 1162.54572644 -0.22968097 1163.76543491 -0.22939027 C1176.37930335 -0.22665797 1188.99314496 -0.23399425 1201.60700757 -0.24553929 C1214.01427573 -0.25668537 1226.42150601 -0.25710604 1238.82877477 -0.24616911 C1245.46414467 -0.24061217 1252.09944148 -0.24011107 1258.73480934 -0.25267783 C1264.77427751 -0.2640207 1270.81357672 -0.26148781 1276.85303906 -0.24801075 C1279.02132622 -0.24558036 1281.18962642 -0.24814798 1283.35789922 -0.25640723 C1311.03868421 -0.35489347 1335.16791502 5.43017953 1355.61224031 25.1276505 C1375.01663535 44.88834093 1379.95707669 70.02920762 1379.8662076 96.87679601 C1379.8685191 98.39300506 1379.8717002 99.90921298 1379.87566209 101.42541862 C1379.88392416 105.54278803 1379.87992445 109.6600634 1379.87368965 113.77743292 C1379.86913056 118.23694658 1379.87616592 122.69644501 1379.88164949 127.15595555 C1379.89050851 135.87279177 1379.88863712 144.5895934 1379.88282421 153.30643094 C1379.87829393 160.39544567 1379.87770071 167.48445077 1379.87987185 174.57346654 C1379.88033154 176.09112179 1379.88033154 176.09112179 1379.88080053 177.63943675 C1379.88144003 179.69529951 1379.88208846 181.75116226 1379.88274571 183.80702502 C1379.88843878 203.05165132 1379.88190721 222.29625852 1379.87114498 241.54088169 C1379.86221041 258.02733372 1379.86376274 274.51375757 1379.8729825 291.00020909 C1379.88370325 310.17943257 1379.88788955 329.35863934 1379.88175797 348.5378654 C1379.88112093 350.58585508 1379.88049218 352.63384477 1379.87987185 354.68183446 C1379.87956329 355.68929173 1379.87925474 356.696749 1379.87893684 357.73473528 C1379.87721531 364.80919766 1379.88011328 371.88364937 1379.88483095 378.95811009 C1379.89045987 387.58813789 1379.88888124 396.21812933 1379.87826946 404.848153 C1379.87303971 409.24509524 1379.87090962 413.64197704 1379.87756777 418.03891873 C1379.88358569 422.07431517 1379.88015725 426.1095959 1379.86961266 430.14498204 C1379.86740313 431.59430666 1379.86845884 433.04364132 1379.87336424 434.49295932 C1379.95255235 459.86212109 1374.95731244 482.66334963 1357.61224031 502.1276505 C1356.94708406 502.88690831 1356.28192781 503.64616612 1355.59661531 504.42843175 C1341.95386622 519.0564905 1321.76333621 528.56134477 1301.76819082 529.40625488 C1295.95316762 529.55167275 1290.13848252 529.52755336 1284.32212782 529.50796723 C1282.05978822 529.51140371 1279.79745029 529.5161525 1277.53511587 529.5220882 C1271.31875944 529.53459035 1265.10254037 529.5284511 1258.88618334 529.51925452 C1252.82111233 529.51323767 1246.75606993 529.5213872 1240.69100484 529.52907916 C1228.1395304 529.54448845 1215.58809067 529.54569408 1203.03661013 529.53909993 C1190.32100331 529.53246771 1177.60542129 529.53235283 1164.88981485 529.54014707 C1164.08599942 529.54063506 1163.28218399 529.54112306 1162.45401052 529.54162585 C1159.18006645 529.54363408 1155.90612242 529.54568719 1152.63217842 529.54779759 C1119.41241017 529.56918858 1086.19266025 529.57125379 1052.97288683 529.56574055 C1048.38397784 529.56498482 1043.79506884 529.56425721 1039.20615983 529.56355858 C1038.29467353 529.56341949 1037.38318724 529.5632804 1036.44408014 529.56313709 C1016.23876312 529.56018404 996.03344831 529.56319833 975.82813169 529.56745487 C973.06231113 529.56803702 970.29649056 529.56860587 967.53067 529.5691705 C960.11632904 529.57068547 952.70198808 529.57221238 945.28764712 529.57376351 C893.53287182 529.58451938 841.77809855 529.58922293 790.02332258 529.58129334 C789.04786331 529.58114504 788.07240403 529.58099673 787.06738538 529.58084393 C776.1901047 529.57918495 765.31282404 529.57743537 754.43554338 529.57565092 C753.45349458 529.5754899 752.47144578 529.57532887 751.45963793 529.57516297 C743.49005396 529.57385528 743.49005396 529.57385528 739.54519553 529.57320178 C676.72695703 529.56280999 613.90874655 529.57057768 551.0905118 529.59420323 C535.26133749 529.60014668 519.43216316 529.60603826 503.60298872 529.61161256 C502.62831339 529.61195633 501.65363807 529.6123001 500.64942713 529.61265429 C470.60838966 529.62318228 440.56735453 529.62877568 410.52631521 529.6291697 C409.58313256 529.62918248 408.63994991 529.62919527 407.66818596 529.62920844 C386.96298637 529.62943673 366.25778699 529.6284306 345.55258751 529.62629938 C338.14393565 529.62554462 330.73528377 529.62486642 323.32663189 529.62421923 C321.48356663 529.62405654 319.64050138 529.62388887 317.79743612 529.62371622 C288.43506642 529.62099549 259.07271372 529.62954731 229.71034767 529.64357032 C199.31503882 529.65798021 168.91976231 529.65752506 138.52445456 529.6401956 C135.25925939 529.63839144 131.99406419 529.63665125 128.72886896 529.63496137 C127.92754186 529.63454087 127.12621476 529.63412036 126.30060502 529.63368712 C113.62150006 529.62739377 100.94243962 529.63448661 88.26334094 529.64717057 C75.79054759 529.6593647 63.31782433 529.65723258 50.84503627 529.63995025 C44.17535576 529.63109535 37.50580259 529.62895002 30.83612039 529.64421957 C24.76438984 529.65798912 18.69296169 529.65323859 12.62124879 529.63393438 C10.44243688 529.63020934 8.26360043 529.63312831 6.08481074 529.64364747 C-9.39927553 529.71323218 -24.93825192 528.98570271 -38.82525969 521.3151505 C-39.48300383 520.96678136 -40.14074797 520.61841222 -40.81842375 520.25948644 C-61.55418794 509.06115482 -76.50071808 491.74824594 -83.38775969 469.1276505 C-86.11780511 458.14497601 -86.82480448 447.23029912 -86.76871061 435.95453954 C-86.77217848 434.40446721 -86.77695054 432.85439737 -86.78289235 431.30433255 C-86.79527701 427.09797217 -86.78929001 422.89181912 -86.77993369 418.68545854 C-86.7730915 414.12847639 -86.78364978 409.57152767 -86.79187346 405.01455235 C-86.80515796 396.10867427 -86.80235682 387.20287237 -86.79363553 378.2969914 C-86.78683892 371.05448834 -86.78595079 363.81200651 -86.78920698 356.56950116 C-86.78966668 355.53566359 -86.79012638 354.50182602 -86.79060001 353.43666004 C-86.79155926 351.33594281 -86.7925319 349.23522559 -86.79351778 347.13450838 C-86.80205609 327.47306425 -86.79226185 307.81166221 -86.77611668 288.15022499 C-86.76271294 271.30617195 -86.76504511 254.46218094 -86.77887297 237.61812901 C-86.79495295 218.02175194 -86.80123435 198.42541166 -86.79203618 178.8290289 C-86.7910806 176.73668063 -86.79013749 174.64433235 -86.78920698 172.55198407 C-86.78874416 171.52270891 -86.78828133 170.49343374 -86.78780448 169.43296842 C-86.78522199 162.20470091 -86.78956951 154.97645689 -86.79664564 147.74819303 C-86.80508767 138.93152446 -86.80272384 130.11493595 -86.78680341 121.29827648 C-86.77895724 116.80611531 -86.77576624 112.31408728 -86.78575087 107.82192731 C-86.79477456 103.69955034 -86.7896405 99.57742833 -86.77381821 95.45507408 C-86.77050257 93.97415241 -86.77209066 92.49320862 -86.77944557 91.0123015 C-86.88915517 67.06084832 -80.35521125 45.35004752 -64.38775969 27.1276505 C-63.79479094 26.43929112 -63.20182219 25.75093175 -62.59088469 25.041713 C-46.65556577 7.81250066 -22.95181066 -0.05865985 0 0 Z M-44.38775969 47.1276505 C-56.42470983 61.47758322 -58.69997666 77.21025938 -58.6484561 95.36490941 C-58.65148159 96.88647855 -58.65537306 98.40804618 -58.66004866 99.92961115 C-58.67028621 104.08493697 -58.66815772 108.24017609 -58.66386807 112.39550889 C-58.66139309 116.88711386 -58.67042458 121.37869837 -58.67790556 125.87029576 C-58.6906333 134.66000158 -58.69244864 143.44967681 -58.6901053 152.23939029 C-58.68831978 159.38670411 -58.69007679 166.53400867 -58.69432974 173.68132138 C-58.69492493 174.69989717 -58.69552012 175.71847296 -58.69613334 176.76791468 C-58.69734514 178.83739057 -58.69855927 180.90686646 -58.69977572 182.97634234 C-58.7106439 202.36967464 -58.70849222 221.76298953 -58.70239087 241.1563228 C-58.69722268 258.88063632 -58.70847587 276.60489486 -58.72748909 294.3291975 C-58.74688194 312.54767847 -58.75512093 330.76613345 -58.75136584 348.9846248 C-58.74945595 359.20521896 -58.75192062 369.42576634 -58.76608038 379.64635205 C-58.77801361 388.34756932 -58.77937732 397.048711 -58.76729021 405.74992935 C-58.76141509 410.18509791 -58.7602641 414.62012836 -58.77229261 419.0552876 C-58.7831973 423.12351576 -58.77999404 427.19149126 -58.76603093 431.25970783 C-58.76339655 432.72327917 -58.76571049 434.1868706 -58.77376679 435.65042213 C-58.87025169 454.50240183 -55.07672671 471.14408403 -41.63775969 485.01436925 C-25.71413715 499.97041056 -8.36311745 501.57867127 12.54528475 501.50517392 C14.79316289 501.5083055 17.04103952 501.51275086 19.28891277 501.51838702 C25.47440874 501.53007642 31.65976436 501.52307547 37.84525806 501.51305316 C43.87742363 501.50623386 49.90956212 501.51357875 55.94172353 501.52048431 C68.42707599 501.53426978 80.91239176 501.53384138 93.39774752 501.52564168 C106.0480745 501.51738427 118.69837734 501.51564982 131.34870577 501.52185369 C132.14808669 501.5222412 132.94746761 501.52262872 133.7710722 501.52302798 C137.02689301 501.52462782 140.28271378 501.52627394 143.53853453 501.52797881 C173.85611718 501.54384301 204.17368364 501.5449246 234.49126863 501.53653646 C235.38944957 501.53628807 236.2876305 501.53603968 237.21302904 501.53578377 C238.11264738 501.53553498 239.01226571 501.53528619 239.93914521 501.53502986 C267.3415314 501.52746171 294.74391091 501.52550549 322.14629793 501.5290978 C323.98096521 501.52933023 325.81563248 501.5295617 327.65029976 501.52979221 C335.02298397 501.5307236 342.39566817 501.5316796 349.76835237 501.5326715 C370.37832261 501.53542258 390.98829287 501.53713434 411.59826326 501.53802991 C412.53680872 501.53807085 413.47535417 501.53811178 414.44234039 501.53815396 C444.35047618 501.53938188 474.25860965 501.53600071 504.16674471 501.52948117 C505.136852 501.52927043 506.1069593 501.52905968 507.10646379 501.52884255 C522.86058487 501.52540766 538.61470589 501.52174929 554.36882692 501.51807202 C616.85231492 501.50350291 679.33578364 501.50417912 741.81927156 501.51876378 C757.56542633 501.52242732 773.3115811 501.52606046 789.05773592 501.52948117 C790.0272713 501.52969252 790.99680669 501.52990386 791.99572193 501.53012161 C821.87255405 501.53658972 851.74938457 501.53933307 881.62621737 501.53802991 C882.56407446 501.53798916 883.50193156 501.5379484 884.46820857 501.53790642 C905.05524402 501.536969 925.64227929 501.53506812 946.22931457 501.5322984 C953.59542538 501.53131097 960.9615362 501.53037173 968.32764702 501.52944627 C970.16015976 501.5292141 971.99267251 501.52897791 973.82518525 501.52873768 C1001.22061019 501.5251562 1028.61602759 501.52820759 1056.01145159 501.53578377 C1056.90963252 501.53603216 1057.80781346 501.53628054 1058.73321199 501.53653646 C1060.07800031 501.53690853 1060.07800031 501.53690853 1061.44995607 501.53728811 C1091.67969419 501.54556049 1121.90941289 501.54252361 1152.13914824 501.52669422 C1155.38469042 501.52503715 1158.63023263 501.52342703 1161.87577486 501.52185369 C1162.67229125 501.52146306 1163.46880764 501.52107244 1164.28946089 501.52066999 C1176.90621197 501.51475077 1189.52293893 501.51887471 1202.13968784 501.5271607 C1214.54294009 501.53509288 1226.94615161 501.53231757 1239.34939869 501.51811844 C1245.98530774 501.51081161 1252.62114533 501.50858427 1259.25705719 501.51933639 C1265.29228807 501.52901579 1271.32734603 501.52492669 1277.36256427 501.50979441 C1279.53379125 501.50676961 1281.7050325 501.50877995 1283.87624818 501.51641222 C1304.43072714 501.58354583 1320.2325692 498.63364906 1335.70599031 484.17061925 C1347.98981648 471.43796097 1350.91808907 456.80381503 1350.87966585 439.78213048 C1350.8834052 438.21222719 1350.88800786 436.64232577 1350.8933965 435.07242727 C1350.9056067 430.76964835 1350.90536837 426.46694729 1350.90300775 422.16415501 C1350.90259908 417.51915712 1350.91364348 412.87418403 1350.92312288 408.22919774 C1350.93972295 399.13294626 1350.94523198 390.03672071 1350.94634764 380.94045535 C1350.94729857 373.54514989 1350.95141115 366.14985297 1350.95774889 358.75455022 C1350.97535851 337.77900071 1350.98458819 316.80347164 1350.98308794 295.82791469 C1350.98300803 294.69754528 1350.98292812 293.56717587 1350.98284578 292.40255284 C1350.98276402 291.27080035 1350.98268226 290.13904786 1350.98259802 288.97299984 C1350.98178518 270.63281111 1351.00092314 252.29270451 1351.02912252 233.95253953 C1351.05786125 215.11265572 1351.07166227 196.27281196 1351.06993496 177.43290567 C1351.06927141 166.85908039 1351.07474859 156.28534121 1351.09629107 145.71153569 C1351.11451584 136.70860923 1351.11883951 127.70580793 1351.10527222 118.70287099 C1351.09874917 114.11198706 1351.09860139 109.52134314 1351.11597872 104.93048215 C1351.13174382 100.72216507 1351.12881094 96.51427764 1351.11141045 92.30597082 C1351.10834811 90.78918085 1351.11194393 89.27235854 1351.1231306 87.75560674 C1351.22878261 72.40567472 1347.1635316 57.44363272 1336.48724031 45.8776505 C1318.78930043 29.35957328 1300.90703754 27.82225354 1277.90153456 27.87317491 C1275.66566079 27.87078397 1273.42978783 27.86751808 1271.19391647 27.86345831 C1265.03709992 27.85482927 1258.88034424 27.85866854 1252.72352673 27.86451403 C1246.72061795 27.86824997 1240.7177225 27.86256146 1234.71481678 27.85716644 C1222.28890979 27.84633957 1209.86301795 27.84500816 1197.43710756 27.84886479 C1184.84602707 27.85274147 1172.25495788 27.85228535 1159.66387796 27.84655499 C1158.47064053 27.84601676 1158.47064053 27.84601676 1157.25329728 27.84546764 C1154.01333746 27.84399272 1150.77337765 27.84248833 1147.53341785 27.84094618 C1114.64596294 27.82531103 1081.75851578 27.82263224 1048.87105782 27.82510224 C1044.32688996 27.82544069 1039.7827221 27.82576278 1035.23855424 27.82606792 C1034.3359736 27.82612897 1033.43339297 27.82619001 1032.5034614 27.8262529 C1012.50167714 27.82752476 992.49989394 27.8249235 972.49810999 27.82154186 C967.93110394 27.82077112 963.36409789 27.82002639 958.79709185 27.81927684 C956.96417059 27.81897515 955.13124934 27.81867327 953.29832809 27.8183712 C952.38978261 27.81822152 951.48123712 27.81807184 950.54515996 27.81791763 C948.70742788 27.8176141 946.86969581 27.81730941 945.03196373 27.81700358 C892.88477579 27.80833008 840.73758879 27.803687 788.59040022 27.80795121 C787.14189833 27.8080683 787.14189833 27.8080683 785.66413377 27.80818775 C774.89586235 27.80906055 764.12759094 27.80998981 753.35931953 27.81093838 C751.90098946 27.81106664 751.90098946 27.81106664 750.41319817 27.8111975 C744.51559312 27.81171629 744.51559312 27.81171629 738.61798807 27.81223973 C676.42783389 27.81777584 614.23769455 27.8102326 552.04754305 27.79146886 C536.37699909 27.78674667 520.70645513 27.78206617 505.03591108 27.777632 C504.07102309 27.77735868 503.1061351 27.77708535 502.11200808 27.77680375 C472.37582251 27.76843308 442.63963818 27.76375285 412.90345144 27.76292443 C411.9699299 27.76289807 411.03640835 27.7628717 410.07459828 27.76284453 C389.58212041 27.76230376 369.08964264 27.76267618 348.5971648 27.76388425 C341.26472652 27.76430988 333.93228825 27.764675 326.59984997 27.76501369 C324.77571925 27.76509899 322.95158853 27.76518793 321.12745782 27.76528051 C292.0578504 27.76672946 262.98825308 27.7596019 233.91864808 27.74827655 C203.82871511 27.73662958 173.73880015 27.73605947 143.64886709 27.74811997 C140.41751336 27.74937181 137.18615962 27.75057529 133.95480585 27.75174069 C133.16177585 27.75203099 132.36874584 27.75232128 131.55168462 27.75262037 C118.9958993 27.75694538 106.44013958 27.75121561 93.88435828 27.7413005 C81.53755394 27.73176215 69.19078909 27.7329399 56.84398704 27.74550673 C50.2396805 27.75193776 43.63544657 27.7533023 37.03113963 27.74164339 C31.02223317 27.73113294 25.01349843 27.73444496 19.00460124 27.74874792 C16.8451429 27.75147489 14.68567084 27.74918644 12.52622539 27.74124077 C-9.2839137 27.66647225 -28.7774238 30.118539 -44.38775969 47.1276505 Z " fill="#6F7F6F" transform="translate(86.38775968551636,-0.12765049934387207)"/>
<path d="M0 0 C421.08 0 842.16 0 1276 0 C1276 9.57 1276 19.14 1276 29 C854.92 29 433.84 29 0 29 C0 19.43 0 9.86 0 0 Z " fill="#6F7F6F" transform="translate(95,81)"/>
<path d="M0 0 C421.08 0 842.16 0 1276 0 C1276 9.24 1276 18.48 1276 28 C854.92 28 433.84 28 0 28 C0 18.76 0 9.52 0 0 Z " fill="#6F7F6F" transform="translate(95,420)"/>
<path d="M0 0 C1.60186157 -0.01418472 1.60186157 -0.01418472 3.23608398 -0.02865601 C4.38407471 -0.02258331 5.53206543 -0.01651062 6.71484375 -0.01025391 C7.89828369 -0.01312408 9.08172363 -0.01599426 10.30102539 -0.01895142 C12.80257648 -0.02099247 15.30414352 -0.01545978 17.80566406 -0.00292969 C21.63773234 0.01312239 25.46874583 -0.00277803 29.30078125 -0.02197266 C31.73047108 -0.01999023 34.16016026 -0.01614658 36.58984375 -0.01025391 C37.73783447 -0.0163266 38.8858252 -0.02239929 40.06860352 -0.02865601 C41.13651123 -0.01919952 42.20441895 -0.00974304 43.3046875 0 C44.24304443 0.00238678 45.18140137 0.00477356 46.14819336 0.00723267 C49.13805054 0.46207311 50.50093765 1.28401449 52.65234375 3.38818359 C53.46484375 6.63818359 53.46484375 6.63818359 52.65234375 10.38818359 C50.53306476 12.34311033 48.35113544 13.88105583 45.9140625 15.41943359 C42.55936359 18.33958601 41.01019519 22.0156573 40.35420227 26.36483765 C40.21377153 28.48954501 40.15909205 30.5988361 40.140625 32.72802734 C40.12398804 33.40901489 40.10735107 34.09000244 40.09020996 34.79162598 C40.03296574 37.30267376 40.00029708 39.81423363 39.96484375 42.32568359 C39.86171875 47.95630859 39.75859375 53.58693359 39.65234375 59.38818359 C58.79234375 59.38818359 77.93234375 59.38818359 97.65234375 59.38818359 C97.54921875 53.96380859 97.44609375 48.53943359 97.33984375 42.95068359 C97.31494873 41.25758057 97.29005371 39.56447754 97.2644043 37.82006836 C97.05012079 26.78966459 97.05012079 26.78966459 93.65234375 16.38818359 C91.73517086 15.23281888 91.73517086 15.23281888 89.65234375 14.38818359 C86.90234375 12.70068359 86.90234375 12.70068359 84.65234375 10.38818359 C84.08984375 6.82568359 84.08984375 6.82568359 84.65234375 3.38818359 C87.63351513 0.42514443 89.87579999 0.01049021 94 0 C95.06790771 -0.00945648 96.13581543 -0.01891296 97.23608398 -0.02865601 C98.95807007 -0.01954697 98.95807007 -0.01954697 100.71484375 -0.01025391 C101.89828369 -0.01312408 103.08172363 -0.01599426 104.30102539 -0.01895142 C106.80257648 -0.02099247 109.30414352 -0.01545978 111.80566406 -0.00292969 C115.63773234 0.01312239 119.46874583 -0.00277803 123.30078125 -0.02197266 C125.73047108 -0.01999023 128.16016026 -0.01614658 130.58984375 -0.01025391 C131.73783447 -0.0163266 132.8858252 -0.02239929 134.06860352 -0.02865601 C135.67046509 -0.01447128 135.67046509 -0.01447128 137.3046875 0 C138.24304443 0.00238678 139.18140137 0.00477356 140.14819336 0.00723267 C143.12762559 0.46048718 144.50423233 1.29753655 146.65234375 3.38818359 C147.21484375 6.26318359 147.21484375 6.26318359 146.65234375 9.38818359 C144.321838 12.1847905 141.91243465 14.2006762 138.96484375 16.32568359 C135.75949956 19.18450409 134.86229049 22.10857161 134.46832848 26.38623047 C134.38562544 28.73287935 134.37067067 31.07133161 134.37768555 33.41943359 C134.37257462 34.30800049 134.36746368 35.19656738 134.36219788 36.11206055 C134.34834324 39.03750416 134.34925529 41.96271115 134.3515625 44.88818359 C134.34767382 46.92789802 134.34333879 48.96761164 134.33857727 51.00732422 C134.33112432 55.27753325 134.33140003 59.54765958 134.33666992 63.81787109 C134.34246879 69.28549111 134.32551888 74.75277284 134.30232525 80.22033691 C134.28758402 84.4308469 134.28671665 88.64127543 134.28983498 92.85180664 C134.28932214 94.86760123 134.28409154 96.88340042 134.27402306 98.89916992 C134.26166608 101.71864754 134.26844555 104.53746627 134.2800293 107.35693359 C134.27238556 108.18620361 134.26474182 109.01547363 134.25686646 109.86987305 C134.30140966 114.78299229 134.96210075 118.11801299 137.65234375 122.38818359 C139.92623922 124.52462424 142.31310509 126.3677138 144.7890625 128.26318359 C146.65234375 130.38818359 146.65234375 130.38818359 147.109375 133.45068359 C146.59737274 136.74150157 146.26881322 137.45270427 143.65234375 139.38818359 C141.18579102 139.7624054 141.18579102 139.7624054 138.21875 139.76049805 C136.55187134 139.76984123 136.55187134 139.76984123 134.85131836 139.77937317 C133.05126343 139.76555855 133.05126343 139.76555855 131.21484375 139.75146484 C129.9832251 139.75196335 128.75160645 139.75246185 127.48266602 139.75297546 C124.20885153 139.75003297 120.9354701 139.73299683 117.66174316 139.71075439 C115.65430077 139.7006934 113.64711035 139.70037118 111.63964844 139.70385742 C107.78959778 139.71025995 103.93987174 139.70236011 100.08984375 139.68896484 C98.88980713 139.68987625 97.68977051 139.69078766 96.45336914 139.69172668 C95.3421167 139.68219467 94.23086426 139.67266266 93.0859375 139.6628418 C92.10681396 139.65823441 91.12769043 139.65362701 90.11889648 139.64888 C87.65234375 139.38818359 87.65234375 139.38818359 84.65234375 137.38818359 C83.65595891 132.48929147 83.65595891 132.48929147 84.65234375 129.38818359 C86.77442697 127.23201068 88.97522555 125.61051179 91.48828125 123.93115234 C94.06994614 122.0904346 95.37319246 120.35513482 96.25756836 117.29174805 C96.81746434 113.17372522 96.88917895 109.08304933 96.96875 104.93115234 C96.98740112 104.13020142 97.00605225 103.32925049 97.02526855 102.50402832 C97.09327954 99.52801964 97.15361069 96.55183945 97.21484375 93.57568359 C97.35921875 86.91380859 97.50359375 80.25193359 97.65234375 73.38818359 C78.51234375 73.38818359 59.37234375 73.38818359 39.65234375 73.38818359 C39.75546875 80.17380859 39.85859375 86.95943359 39.96484375 93.95068359 C39.98973877 96.07965088 40.01463379 98.20861816 40.0402832 100.40209961 C40.07259647 102.10711822 40.10597347 103.81211715 40.140625 105.51708984 C40.1468689 106.38813354 40.15311279 107.25917725 40.1595459 108.15661621 C40.30454675 114.35122854 40.96878874 119.81426799 45.66015625 124.31396484 C46.35882813 124.77158203 47.0575 125.22919922 47.77734375 125.70068359 C51.57944141 128.24237892 51.57944141 128.24237892 52.65234375 130.38818359 C52.90234375 133.88818359 52.90234375 133.88818359 52.65234375 137.38818359 C49.28942329 139.63013057 48.1532949 139.64432729 44.21875 139.6628418 C42.55187134 139.67713982 42.55187134 139.67713982 40.85131836 139.69172668 C39.65128174 139.69081528 38.45124512 139.68990387 37.21484375 139.68896484 C35.36741577 139.69539253 35.36741577 139.69539253 33.48266602 139.70195007 C30.20896243 139.70916995 26.93544223 139.70606365 23.66174316 139.70037842 C21.65426375 139.7006833 19.64707883 139.7107263 17.63964844 139.72436523 C13.78957173 139.74878984 9.93998807 139.75302321 6.08984375 139.75146484 C4.88980713 139.76067459 3.68977051 139.76988434 2.45336914 139.77937317 C1.3421167 139.77314438 0.23086426 139.76691559 -0.9140625 139.76049805 C-2.3827478 139.76144218 -2.3827478 139.76144218 -3.88110352 139.7624054 C-6.34765625 139.38818359 -6.34765625 139.38818359 -8.15649414 138.04655457 C-10.06449674 135.39017715 -9.85220096 133.55960747 -9.34765625 130.38818359 C-7.23046875 128.04443359 -7.23046875 128.04443359 -4.47265625 125.88818359 C-0.27333107 122.58615012 1.33380079 120.56862236 2.65234375 115.38818359 C2.92886634 112.41119324 2.93604854 109.45289773 2.92700195 106.46459961 C2.93211288 105.58739258 2.93722382 104.71018555 2.94248962 103.80639648 C2.95634419 100.9182241 2.95543204 98.03029143 2.953125 95.14208984 C2.95701404 93.12719128 2.96134914 91.11229354 2.96611023 89.09739685 C2.97356343 84.87846212 2.97328755 80.65961108 2.96801758 76.44067383 C2.96222244 71.04265271 2.97915951 65.64497465 3.00236225 60.24701023 C3.0171157 56.08707181 3.01796912 51.92721573 3.01485252 47.76725578 C3.01536487 45.77740741 3.02058623 43.78755432 3.03066444 41.7977314 C3.04304348 39.01198339 3.03622847 36.22690001 3.0246582 33.44116211 C3.03230194 32.6248381 3.03994568 31.8085141 3.04782104 30.967453 C2.99974462 25.71286862 2.12114947 22.05277668 -0.34765625 17.38818359 C-2.5473911 15.37229001 -2.5473911 15.37229001 -5.03515625 13.88818359 C-9.24963739 10.84057834 -9.24963739 10.84057834 -10.16015625 6.63818359 C-9.34765625 3.38818359 -9.34765625 3.38818359 -7.63110352 1.70932007 C-4.8735162 0.11385989 -3.17389833 0.00807304 0 0 Z " fill="#6F7F6F" transform="translate(112.34765625,185.61181640625)"/>
<path d="M0 0 C2.90215804 2.30684357 4.79548443 4.26329397 5.23828125 8.0234375 C5.43774782 14.34337827 5.43774782 14.34337827 3.375 17.4375 C-2.87352547 21.54837202 -9.73036242 21.55299963 -17 22 C-16.0409375 23.3921875 -16.0409375 23.3921875 -15.0625 24.8125 C-10.96541791 31.14435415 -11.4350448 37.66342895 -12 45 C-14.30256251 54.39795895 -19.53045154 60.51960807 -27.6171875 65.6171875 C-40.76118639 73.24501637 -54.62189347 74.22034277 -69.5625 72.375 C-73.25066936 71.95107249 -75.7418276 71.96364225 -79 74 C-81.28138945 76.75698184 -81.28138945 76.75698184 -80.8125 79.5625 C-80.16627558 82.33255117 -80.16627558 82.33255117 -77 84 C-72.65010619 85.28395792 -68.40801569 84.97893883 -63.9375 84.6875 C-63.15528076 84.64189941 -62.37306152 84.59629883 -61.56713867 84.54931641 C-56.47538214 84.2296636 -51.41985292 83.73560591 -46.35131836 83.15991211 C-32.02300434 81.55195534 -18.87553557 80.98880444 -6.125 88.75 C-0.99695743 94.17969213 0.2807917 98.88412333 0.5 106.375 C0.16637866 117.21231247 -3.15641707 124.55823996 -11 132 C-28.39688287 147.59085053 -52.00903405 147.13934273 -74 146 C-85.13008684 145.08544082 -96.42831745 142.9987485 -104.5625 134.75 C-107.57895892 130.81660612 -108.38486655 126.90481091 -108 122 C-106.38003419 117.23010067 -104.19043463 114.73289215 -100 112 C-97.04223215 110.55839886 -94.04448526 109.24697871 -91 108 C-91.81404297 107.34644531 -91.81404297 107.34644531 -92.64453125 106.6796875 C-98.33865962 101.93971037 -101.65781665 98.11761196 -102.8125 90.625 C-103.32791904 83.78710745 -102.17512102 79.05989623 -97.8125 73.6875 C-94.50882663 70.15479045 -91.56999263 68.49224249 -87 67 C-88.88563007 65.03580201 -90.78877953 63.17096739 -92.90625 61.45703125 C-99.2978479 56.24597102 -102.71184167 51.44723103 -103.875 43.1875 C-104.47186352 33.19386203 -102.11866907 24.95426979 -96 17 C-86.31034677 6.33306415 -73.67646495 3.03975074 -59.7109375 1.6796875 C-49.56857029 1.30218004 -37.77977594 3.07729382 -29.25 8.875 C-28.1775 9.57625 -27.105 10.2775 -26 11 C-21.62566068 9.59808192 -18.57956902 5.96223574 -15.31640625 2.875 C-10.40628042 -1.09946947 -5.96023983 -1.75814606 0 0 Z M-72.4375 22.0625 C-76.29205543 29.3090642 -75.92731671 37.57689287 -73.75 45.375 C-71.36778182 52.32128105 -67.70261864 57.64869068 -61 61 C-56.04517906 61.54360446 -52.12874148 61.56437074 -47.625 59.3125 C-43.24359368 55.45268967 -40.27961164 52.22699334 -39.76171875 46.25 C-39.53425681 36.2895613 -40.98626529 28.26912991 -47.4375 20.4375 C-51.00835401 16.72229232 -53.69914974 15.30678003 -58.8125 14.625 C-64.66962837 15.31407393 -68.761253 17.44362556 -72.4375 22.0625 Z M-52.5 109.4375 C-59.95975731 110.35936381 -67.29860656 111.11926436 -74.8125 111.3125 C-80.22551642 111.60189873 -80.22551642 111.60189873 -84.5 114.625 C-86.35378061 118.79600638 -86.41751923 120.66869125 -85 125 C-80.78201233 130.62398356 -75.41037337 132.41605973 -68.71484375 133.5625 C-55.04917792 135.17191595 -39.14828892 135.22845812 -27.71484375 126.60546875 C-25.21744349 124.26735597 -23.95813912 122.2850484 -23 119 C-23.0729934 115.3503299 -23.54616635 113.59970875 -25.75 110.6875 C-32.85889113 105.35583165 -44.34707765 108.42387445 -52.5 109.4375 Z " fill="#6F7F6F" transform="translate(1008,219)"/>
<path d="M0 0 C5.39805873 6.1177999 4.19774038 16.1754012 4.31640625 23.83984375 C4.33718735 24.96193741 4.35796844 26.08403107 4.37937927 27.24012756 C4.4444863 30.80585925 4.50357841 34.37166127 4.5625 37.9375 C4.60572219 40.36263733 4.64933764 42.78776768 4.69335938 45.21289062 C4.80012764 51.14185388 4.90196448 57.07088627 5 63 C5.81064407 62.06299255 5.81064407 62.06299255 6.63766479 61.10705566 C7.35133209 60.29119995 8.06499939 59.47534424 8.80029297 58.63476562 C9.50572235 57.82446899 10.21115173 57.01417236 10.93795776 56.17932129 C13.42198946 53.55400981 15.84620918 52.00387206 19.125 50.5 C20.09695313 50.0359375 21.06890625 49.571875 22.0703125 49.09375 C31.19682409 45.68651901 42.80876292 45.7124976 52 49 C60.35591558 52.86500215 66.15681622 59.08638292 69.375 67.6875 C71.68068912 74.61459208 72.16603662 80.90964322 72.24609375 88.1640625 C72.27904987 90.19401444 72.3122612 92.22396225 72.34570312 94.25390625 C72.39292335 97.43307497 72.43734147 100.61222913 72.47680664 103.79150391 C72.51690716 106.87420147 72.56837053 109.95655839 72.62109375 113.0390625 C72.6295079 113.97279694 72.63792206 114.90653137 72.64659119 115.86856079 C72.64768193 127.37088171 72.64768193 127.37088171 76.98046875 137.578125 C77.70878906 138.12984375 78.43710937 138.6815625 79.1875 139.25 C81.34765625 141.14453125 81.34765625 141.14453125 83 143 C83.125 146.9375 83.125 146.9375 82 150 C79.62307567 151.18846216 78.15813989 151.1329575 75.50610352 151.14526367 C74.57496231 151.15164352 73.64382111 151.15802338 72.6844635 151.16459656 C71.17196266 151.16626579 71.17196266 151.16626579 69.62890625 151.16796875 C68.07900246 151.17296135 68.07900246 151.17296135 66.49778748 151.17805481 C64.30964606 151.1831238 62.12149689 151.18546314 59.93334961 151.18530273 C56.57978624 151.18748873 53.22655197 151.20564354 49.87304688 151.22460938 C47.75000113 151.22754335 45.62695382 151.22952812 43.50390625 151.23046875 C42.49759659 151.23765427 41.49128693 151.24483978 40.45448303 151.25224304 C39.05304298 151.2476281 39.05304298 151.2476281 37.62329102 151.24291992 C36.80103531 151.24434494 35.9787796 151.24576996 35.13160706 151.24723816 C33 151 33 151 30 149 C29.5390625 146.125 29.5390625 146.125 30 143 C31.8984375 140.875 31.8984375 140.875 34.375 139 C38.41936362 135.9185801 39.74420012 133.93562582 41 129 C41.29986929 125.72438722 41.32777924 122.46368929 41.3359375 119.17578125 C41.3425943 118.23373337 41.3492511 117.29168549 41.35610962 116.3210907 C41.36620792 114.33167463 41.37092752 112.34222488 41.37060547 110.3527832 C41.37496108 107.33942407 41.41126233 104.32755184 41.44921875 101.31445312 C41.87775736 85.23118183 41.87775736 85.23118183 34.625 71.4375 C28.6371436 68.15843578 23.62054332 67.0853481 17 69 C10.88556176 72.14114278 8.78664604 77.00180237 6.7265625 83.31640625 C5.24812655 88.77708095 4.82753003 93.90362893 4.796875 99.5546875 C4.78832489 100.78434738 4.78832489 100.78434738 4.77960205 102.03884888 C4.77018255 103.76856202 4.76363023 105.49829287 4.75976562 107.22802734 C4.75005766 109.85937076 4.71900501 112.48993325 4.6875 115.12109375 C4.6809691 116.80728706 4.67571897 118.49348592 4.671875 120.1796875 C4.6595282 120.95907684 4.6471814 121.73846619 4.63446045 122.54147339 C4.65551115 127.76098792 5.57305727 131.35809875 8 136 C9.97258403 138.03290522 9.97258403 138.03290522 12.1875 139.5625 C15.91858402 142.60772298 15.91858402 142.60772298 16.6875 146.3125 C16 149 16 149 13 151 C10.87512207 151.26069641 10.87512207 151.26069641 8.39257812 151.2746582 C7.46151245 151.28419022 6.53044678 151.29372223 5.57116699 151.30354309 C4.56799438 151.30263168 3.56482178 151.30172028 2.53125 151.30078125 C0.98346863 151.30720894 0.98346863 151.30720894 -0.59558105 151.31376648 C-2.77774318 151.31951086 -4.95992446 151.32000926 -7.14208984 151.31567383 C-10.48698437 151.3125123 -13.83099602 151.33597766 -17.17578125 151.36132812 C-19.29426971 151.36360088 -21.41276056 151.36430472 -23.53125 151.36328125 C-24.53442261 151.372491 -25.53759521 151.38170074 -26.57116699 151.39118958 C-27.9677655 151.38184639 -27.9677655 151.38184639 -29.39257812 151.37231445 C-30.21181763 151.37294388 -31.03105713 151.3735733 -31.87512207 151.3742218 C-34.51873443 150.90864335 -35.41713719 150.13921303 -37 148 C-37.15367685 144.61910934 -36.60628003 142.70979125 -34.3984375 140.125 C-33.15467804 138.89659559 -31.88677255 137.69206355 -30.59375 136.515625 C-28.72931897 134.74258765 -28.04577782 133.68766645 -27.87415886 131.10963631 C-27.87378183 130.33499472 -27.87340481 129.56035313 -27.87301636 128.76223755 C-27.87019653 127.87336853 -27.86737671 126.98449951 -27.86447144 126.06869507 C-27.86649567 125.09099152 -27.8685199 124.11328796 -27.87060547 123.10595703 C-27.86885315 122.07821167 -27.86710083 121.05046631 -27.86529541 119.99157715 C-27.86087959 116.58030529 -27.86381439 113.16908492 -27.8671875 109.7578125 C-27.86651428 107.39370717 -27.8655441 105.02960191 -27.86428833 102.66549683 C-27.86281164 97.70391177 -27.86496462 92.74234469 -27.86962891 87.78076172 C-27.87531995 81.41614408 -27.87205096 75.05156867 -27.86605644 68.68695259 C-27.86244476 63.80227337 -27.86359233 58.91760417 -27.86618423 54.03292465 C-27.86685214 51.68613556 -27.86602981 49.33934556 -27.86370468 46.99255753 C-27.86116894 43.71262448 -27.86503215 40.43275997 -27.87060547 37.15283203 C-27.86756912 35.6923494 -27.86756912 35.6923494 -27.86447144 34.20236206 C-27.86729126 33.30785339 -27.87011108 32.41334473 -27.87301636 31.49172974 C-27.87339338 30.7163341 -27.87377041 29.94093845 -27.87415886 29.14204597 C-28.00120338 26.97951626 -28.40511969 25.07850812 -29 23 C-29.71027344 22.86722656 -30.42054688 22.73445313 -31.15234375 22.59765625 C-32.07144531 22.42105469 -32.99054687 22.24445313 -33.9375 22.0625 C-35.31228516 21.80146484 -35.31228516 21.80146484 -36.71484375 21.53515625 C-39 21 -39 21 -40 20 C-40.375 17.25 -40.375 17.25 -40 14 C-32.69556525 4.64119298 -21.27735583 1.52589719 -10.125 -0.8125 C-6.48537637 -1.03087742 -3.53262845 -0.95109227 0 0 Z " fill="#6F7F6F" transform="translate(706,174)"/>
<path d="M0 0 C5.71574283 6.35218529 4.14692633 17.69542343 4.17578125 25.6796875 C4.19897401 28.16016479 4.22309112 30.64063357 4.24804688 33.12109375 C4.28314505 37.00054689 4.31251619 40.87968469 4.32592773 44.75927734 C4.34146401 48.5247936 4.38169866 52.28941098 4.42578125 56.0546875 C4.42387283 57.20290985 4.42196442 58.3511322 4.41999817 59.53414917 C4.54391739 67.7592827 5.53015163 75.53015163 11.5625 81.5625 C15.95583278 84.15343985 20.00473752 84.47483484 25 84 C28.57563106 83.01845422 30.34030315 81.98680415 32.41015625 78.890625 C37.90459163 68.57454224 38.34843038 58.48802868 38.31567383 47.06933594 C38.31248778 44.74107103 38.33612894 42.41404841 38.36132812 40.0859375 C38.3635992 38.59375159 38.36430551 37.10156229 38.36328125 35.609375 C38.372491 34.91970642 38.38170074 34.23003784 38.39118958 33.51947021 C38.34979133 29.19089339 37.68452111 26.42550844 35 23 C32.56117696 22.01281728 32.56117696 22.01281728 29.875 21.75 C25.05084746 21.05084746 25.05084746 21.05084746 24 20 C23.4375 17.375 23.4375 17.375 24 14 C29.15102661 7.10671439 37.11091426 4.55000751 45 2 C45.7115625 1.7525 46.423125 1.505 47.15625 1.25 C53.0409926 -0.5453452 59.98345767 -1.17697066 66 0 C71.88209865 6.53706467 70.16320202 18.50778889 70.2109375 26.6953125 C70.23181809 28.69109399 70.25271607 30.68687547 70.27463722 32.6826458 C70.32753419 37.57238233 70.37210729 42.46211414 70.40136719 47.35205078 C70.41828795 50.10747283 70.44299101 52.86261589 70.47622681 55.6178894 C70.50712085 58.20430236 70.5265977 60.79088314 70.53329468 63.37747192 C70.54986115 64.55244232 70.56642761 65.72741272 70.58349609 66.93798828 C70.59158295 67.96642853 70.5996698 68.99486877 70.60800171 70.05447388 C71.07434177 73.55861375 72.19082895 75.97737765 74 79 C76.21180779 80.33476999 76.21180779 80.33476999 78.6875 80.875 C79.49574219 81.09929687 80.30398438 81.32359375 81.13671875 81.5546875 C81.75160156 81.70164062 82.36648438 81.84859375 83 82 C83.48763282 88.21731846 83.48763282 88.21731846 81.45703125 91.4765625 C78.41498932 94.60082178 75.33450251 96.30670905 71.4375 98.1875 C70.72803223 98.53482178 70.01856445 98.88214355 69.28759766 99.23999023 C61.80772842 102.76674604 54.25248972 105.23040263 46 103 C43.55833216 96.16914355 42.58359712 90.2484945 43 83 C42.34 83 41.68 83 41 83 C40.79375 83.66 40.5875 84.32 40.375 85 C36.77725851 92.8496178 31.19326002 98.94015297 23.4375 102.75 C13.2150572 106.46725193 0.97192255 106.56901678 -9 102 C-16.63128313 97.8561312 -21.10572636 91.52796585 -23.89892578 83.37670898 C-26.57810097 72.86054528 -26.49092155 62.41754348 -26.5625 51.625 C-26.58641643 48.78836702 -26.61464931 45.95202898 -26.65428162 43.11557007 C-26.67833991 41.36488156 -26.69344012 39.61403784 -26.69789124 37.8631897 C-26.76138329 32.8869565 -27.23788066 28.67812539 -29 24 C-31.31371422 22.56274605 -31.31371422 22.56274605 -34.0625 22.125 C-38.99257885 21.00742115 -38.99257885 21.00742115 -40 20 C-40.5625 17.375 -40.5625 17.375 -40 14 C-31.46916315 3.15773529 -13.39178102 -2.61973281 0 0 Z " fill="#6F7F6F" transform="translate(1054,223)"/>
<path d="M0 0 C1.32673988 -0.00956978 1.32673988 -0.00956978 2.68028259 -0.01933289 C3.62827225 -0.02044571 4.5762619 -0.02155853 5.55297852 -0.02270508 C6.53428238 -0.02603348 7.51558624 -0.02936188 8.52662659 -0.03279114 C10.60026583 -0.03784957 12.67391319 -0.0401998 14.74755859 -0.04003906 C17.91655907 -0.04222575 21.08521148 -0.0603936 24.25415039 -0.0793457 C26.27042524 -0.08227981 28.28670175 -0.08426449 30.30297852 -0.08520508 C31.72192665 -0.09598335 31.72192665 -0.09598335 33.16954041 -0.10697937 C41.69965203 -0.07741352 41.69965203 -0.07741352 45.49438477 2.14526367 C46.55688477 4.45776367 46.55688477 4.45776367 46.49438477 7.14526367 C43.89366936 11.30640832 40.29293676 14.12368822 36.49438477 17.14526367 C37.54183566 27.14196279 41.23119651 36.23341367 44.83422852 45.52783203 C45.8766591 48.22659631 46.8931287 50.93424713 47.90844727 53.64331055 C48.56836588 55.36460477 49.22977061 57.08533014 49.89282227 58.80541992 C50.1940097 59.61366714 50.49519714 60.42191437 50.80551147 61.25465393 C51.09906525 61.99980759 51.39261902 62.74496124 51.69506836 63.51269531 C51.94662689 64.16790665 52.19818542 64.82311798 52.45736694 65.4981842 C53.79185543 67.61773176 55.21194541 68.21058573 57.49438477 69.14526367 C57.75791748 68.3223584 58.0214502 67.49945313 58.29296875 66.65161133 C59.63901392 62.72316169 61.15712792 58.89091266 62.71704102 55.04370117 C63.34403294 53.48642513 63.97098488 51.92913298 64.59790039 50.37182617 C65.58019467 47.93788366 66.56334434 45.50429069 67.54736328 43.07104492 C68.50197389 40.70865114 69.45340911 38.34499723 70.40454102 35.98120117 C70.69933853 35.25508636 70.99413605 34.52897156 71.29786682 33.78085327 C74.81789648 25.20211846 74.81789648 25.20211846 74.49438477 16.14526367 C72.5679576 14.13452897 70.49105381 12.51767227 68.29516602 10.80932617 C66.49438477 9.14526367 66.49438477 9.14526367 65.68188477 5.89526367 C66.49438477 3.14526367 66.49438477 3.14526367 68.64282227 1.49829102 C71.97271915 -0.08169944 74.25681347 -0.24202116 77.93188477 -0.25317383 C79.76879883 -0.25897461 79.76879883 -0.25897461 81.64282227 -0.26489258 C82.91383789 -0.25329102 84.18485352 -0.24168945 85.49438477 -0.22973633 C86.76540039 -0.24133789 88.03641602 -0.25293945 89.34594727 -0.26489258 C90.57055664 -0.26102539 91.79516602 -0.2571582 93.05688477 -0.25317383 C94.17192383 -0.24979004 95.28696289 -0.24640625 96.43579102 -0.24291992 C99.86791588 0.19267064 101.77411854 1.02659479 104.49438477 3.14526367 C105.05688477 6.12182617 105.05688477 6.12182617 104.49438477 9.14526367 C102.80688477 10.91870117 102.80688477 10.91870117 100.49438477 12.52026367 C96.48875562 15.82581717 94.09287953 19.1614732 91.89282227 23.80151367 C91.56051605 24.48430389 91.22820984 25.16709412 90.88583374 25.87057495 C85.62465304 36.84699838 80.91771247 48.08671035 76.11938477 59.27026367 C64.8465434 85.48945298 64.8465434 85.48945298 59.05297852 98.34057617 C58.65909943 99.2213382 58.26522034 100.10210022 57.85940552 101.009552 C51.13550399 115.81249726 41.25873125 132.79953257 25.36938477 138.89526367 C15.30895149 141.88944024 3.58084795 142.56331197 -6.04858398 137.91870117 C-10.82991173 135.00154526 -14.99533145 131.74631613 -16.50561523 126.14526367 C-17.21225539 120.19460972 -17.35514998 115.04037965 -14.88061523 109.52026367 C-10.97763502 105.61728346 -7.55134605 103.99684557 -2.06811523 103.70776367 C2.58101274 103.90343404 6.03259301 104.97195456 9.49438477 108.14526367 C13.93912238 113.92342258 14.60356496 121.11247575 15.49438477 128.14526367 C24.76757588 122.70499155 29.64511914 116.72221215 33.92797852 106.93041992 C35.49290671 99.23529023 32.68202279 92.29498602 29.62719727 85.33666992 C29.23637466 84.41999542 28.84555206 83.50332092 28.44288635 82.55886841 C27.17980662 79.60344695 25.90011424 76.65557406 24.61938477 73.70776367 C23.74570907 71.67606356 22.87307291 69.64391612 22.00146484 67.61132812 C20.70381715 64.5867279 19.40493133 61.56270875 18.10084534 58.5408783 C15.68486712 52.94112612 13.30812735 47.32865937 10.99829102 41.68432617 C10.26618408 39.90626587 10.26618408 39.90626587 9.51928711 38.09228516 C8.66134804 36.00131317 7.81074552 33.90730712 6.96948242 31.80957031 C3.85881791 24.30213923 0.1463248 18.07055362 -6.31811523 13.02026367 C-8.91907137 10.9084254 -9.4569034 10.29139917 -10.56811523 6.95776367 C-10.50561523 4.14526367 -10.50561523 4.14526367 -8.50561523 1.14526367 C-5.67928155 0.10509595 -2.99187392 0.01470671 0 0 Z " fill="#6F7F6F" transform="translate(380.505615234375,222.854736328125)"/>
<path d="M0 0 C1.3303125 0.86625 1.3303125 0.86625 2.6875 1.75 C10.39042521 9.24473804 14.06551629 17.83312975 14.29541016 28.44921875 C14.3010498 29.20847656 14.30668945 29.96773438 14.3125 30.75 C14.31813965 31.48347656 14.3237793 32.21695313 14.32958984 32.97265625 C14.27452418 37.05684861 14.02970959 40.41740148 12 44 C8.74913219 47.07952287 6.44946976 47.36837901 2.03808594 47.34057617 C0.83714294 47.34034958 -0.36380005 47.34012299 -1.60113525 47.33988953 C-2.89291687 47.32440567 -4.18469849 47.30892181 -5.515625 47.29296875 C-6.85511805 47.28737052 -8.19461726 47.28310149 -9.53411865 47.28010559 C-13.05237921 47.26867454 -16.57026571 47.23922294 -20.08837891 47.20599365 C-23.68126364 47.17525489 -27.27420906 47.16159216 -30.8671875 47.14648438 C-37.91161096 47.11435113 -44.955781 47.06317621 -52 47 C-51.39379799 48.90029013 -50.78040308 50.79828648 -50.1640625 52.6953125 C-49.8232666 53.75250488 -49.4824707 54.80969727 -49.13134766 55.89892578 C-46.18176095 63.98387406 -42.0283829 68.60903462 -34.5625 72.80859375 C-26.27893335 76.65994715 -17.50861453 77.83402925 -8.703125 74.90234375 C-2.9428264 72.1610849 1.74741794 68.90535327 6.18359375 64.3203125 C8.59643765 62.56646038 10.08245916 62.61099455 13 63 C15 65 15 65 15.5 68 C15.28588334 74.85173327 10.24302599 80.92613362 5.75 85.75 C-5.63361104 96.38139005 -19.30178203 99.54433178 -34.44140625 99.2734375 C-47.89369346 98.69979131 -60.98204725 93.613842 -70.375 83.8125 C-78.90720977 73.39609391 -82.3966756 61.99563269 -82.3125 48.75 C-82.30686035 47.82195557 -82.3012207 46.89391113 -82.29541016 45.93774414 C-82.02611102 30.68501457 -77.15800062 17.38189279 -66.4765625 6.25390625 C-48.52580726 -10.08297983 -20.51864663 -13.43886567 0 0 Z M-49.875 14.3125 C-53.40225751 20.45254085 -53.43783135 28.08616471 -54 35 C-34.45797122 35.4400141 -34.45797122 35.4400141 -15 34 C-13.47827113 32.47827113 -13.75743711 31.12019862 -13.6875 29 C-13.79847316 21.23187904 -17.28483092 14.97801623 -22.51171875 9.375 C-26.5450618 5.64865681 -31.15189709 5.49519308 -36.4375 5.62890625 C-42.2038778 6.46397621 -46.40068415 9.74423047 -49.875 14.3125 Z " fill="#6F7F6F" transform="translate(878,229)"/>
<path d="M0 0 C8.2324666 6.44524735 12.52308962 13.74079597 15.03515625 23.7890625 C15.66016217 31.28913353 16.19458866 39.02049296 12.28515625 45.7890625 C8.96538312 47.94449119 6.22735434 48.03251711 2.32324219 48.01611328 C0.5218277 48.01588669 0.5218277 48.01588669 -1.315979 48.01565552 C-2.60776062 48.00533295 -3.89954224 47.99501038 -5.23046875 47.984375 C-6.56996448 47.98064284 -7.90946296 47.97779682 -9.2489624 47.97579956 C-12.7671264 47.96817907 -16.28512415 47.94854437 -19.80322266 47.9263916 C-23.39613598 47.90589893 -26.98907628 47.89679054 -30.58203125 47.88671875 C-37.62636992 47.86529684 -44.67059596 47.83118015 -51.71484375 47.7890625 C-50.92358048 49.88525234 -50.12859769 51.98003841 -49.33203125 54.07421875 C-48.88972168 55.24090088 -48.44741211 56.40758301 -47.99169922 57.60961914 C-44.99964944 65.05999471 -40.38859514 70.36618978 -33.2734375 74.0546875 C-24.8825021 77.52342935 -15.562461 78.6865792 -6.96484375 75.2265625 C-1.31081909 72.31071614 3.79596096 68.27825779 8.28515625 63.7890625 C11.91015625 64.1640625 11.91015625 64.1640625 15.28515625 64.7890625 C16.87745531 70.68685443 15.05664076 74.53529187 12.28515625 79.7890625 C5.52360371 90.01384927 -6.6612679 96.90812569 -18.53515625 99.375 C-34.21256959 101.41653048 -50.491108 99.59738372 -63.34375 89.78125 C-73.16801539 81.37718393 -78.70738269 71.98992569 -81.46484375 59.3515625 C-82.64746582 42.49919804 -80.91016454 25.09644159 -69.5078125 11.7734375 C-68.91613281 11.11859375 -68.32445312 10.46375 -67.71484375 9.7890625 C-66.96654297 8.86867187 -66.96654297 8.86867187 -66.203125 7.9296875 C-50.81015846 -9.59580589 -19.05799545 -12.58137586 0 0 Z M-46.90234375 12.8515625 C-52.4271139 19.7393993 -52.90264823 27.29612641 -52.71484375 35.7890625 C-33.17281497 36.2290766 -33.17281497 36.2290766 -13.71484375 34.7890625 C-12.46709261 33.77095071 -12.46709261 33.77095071 -12.66015625 31.63671875 C-13.19742573 23.30904177 -15.17438976 16.24316396 -21.27734375 10.2890625 C-30.18869458 4.8051543 -39.35388178 5.02626207 -46.90234375 12.8515625 Z " fill="#6F7F6F" transform="translate(349.71484375,228.2109375)"/>
<path d="M0 0 C7.32911786 6.72180866 11.23334279 15.65222717 11.83984375 25.51953125 C12.00020363 37.73360912 12.00020363 37.73360912 8.63671875 43.21484375 C5.16994631 45.52602538 3.87339994 45.45902271 -0.21166992 45.44189453 C-2.01319771 45.44166794 -2.01319771 45.44166794 -3.85112 45.44143677 C-5.1480629 45.4311142 -6.4450058 45.42079163 -7.78125 45.41015625 C-9.12217498 45.4064253 -10.46310269 45.40357872 -11.80403137 45.40158081 C-15.33042958 45.39395074 -18.85666259 45.37430778 -22.38299561 45.35217285 C-25.98252121 45.33170085 -29.58207356 45.3225762 -33.18164062 45.3125 C-40.24225501 45.2910612 -47.30275734 45.25693288 -54.36328125 45.21484375 C-53.76027899 47.29130665 -53.14774586 49.36500325 -52.53125 51.4375 C-52.0211438 53.17012085 -52.0211438 53.17012085 -51.50073242 54.93774414 C-48.61593489 63.24910652 -42.9775963 68.11793795 -35.36328125 72.21484375 C-27.67083623 75.46933972 -18.06031711 75.50086639 -10.17578125 72.77734375 C-5.14848743 70.52936684 -1.56914965 66.97933772 2.21484375 63.04296875 C4.63671875 61.21484375 4.63671875 61.21484375 7.80859375 60.76171875 C8.741875 60.91125 9.67515625 61.06078125 10.63671875 61.21484375 C12.85729578 64.5457093 12.91891534 66.08894217 12.29296875 69.97265625 C9.61407471 79.12554421 1.62336237 86.21620872 -6.29296875 90.9765625 C-20.29929772 98.33612213 -35.93806879 99.41328926 -51.234375 95.31640625 C-65.49509213 90.29577925 -73.90766792 82.73143809 -80.91796875 69.55859375 C-84.21115206 61.93976965 -84.70274387 55.1043728 -84.67578125 46.90234375 C-84.69995117 45.44924805 -84.69995117 45.44924805 -84.72460938 43.96679688 C-84.73460249 28.98712309 -79.23559984 15.29911128 -68.83984375 4.46875 C-50.16833098 -12.52409364 -20.47696657 -15.46772516 0 0 Z M-52.296875 12.25 C-55.80317933 18.71033362 -56.53501949 25.99279882 -56.36328125 33.21484375 C-36.82125247 33.65485785 -36.82125247 33.65485785 -17.36328125 32.21484375 C-15.97783689 31.04279419 -15.97783689 31.04279419 -16.05078125 27.77734375 C-16.16462853 19.85072688 -19.7662897 12.6785736 -25.36328125 7.21484375 C-34.53485154 0.81607378 -45.66440458 3.64748886 -52.296875 12.25 Z " fill="#6F7F6F" transform="translate(1228.36328125,230.78515625)"/>
<path d="M0 0 C4.41355895 4.6105129 6.81179156 9.46993684 7.1015625 15.8671875 C6.86287865 20.87954836 5.80793198 24.04705458 2.5625 27.875 C-1.43259769 31.18800784 -4.80811591 31.29153534 -9.7890625 31.2109375 C-14.32116812 30.7785458 -16.50506938 28.49493062 -19.625 25.375 C-24.00423968 19.82520883 -25.26851534 12.87595579 -26 6 C-35.32241812 7.1674804 -43.2548845 9.20135631 -49.375 16.75 C-56.4633089 27.23519932 -56.70258091 39.08076091 -54.84765625 51.2421875 C-52.6767136 60.86636642 -48.25378504 68.48129275 -40 74 C-32.95946057 77.985211 -24.85862777 78.99904579 -17 77.0625 C-10.35394545 74.77625723 -4.19048244 70.33345218 0.65625 65.26953125 C2 64 2 64 4.5625 63.6875 C7 64 7 64 9 66 C9.73968642 73.28899328 6.40058032 78.53443906 2 84 C1.51789063 84.61875 1.03578125 85.2375 0.5390625 85.875 C-5.75940483 93.03670905 -17.42473489 99.1236198 -27 100 C-43.0455533 100.93570181 -56.85002274 98.42103468 -69.8125 88.1875 C-79.4208739 79.36066847 -84.28421054 66.74478282 -85.22265625 53.96875 C-85.67088583 37.91043792 -81.20574845 22.9482522 -70.75 10.5625 C-53.9422592 -6.78650703 -20.93616052 -14.81026158 0 0 Z " fill="#6F7F6F" transform="translate(652,228)"/>
<path d="M0 0 C4.35830549 5.13125283 4.12371153 11.66534465 4.15771484 18.10351562 C4.16279556 18.78725754 4.16787628 19.47099945 4.17311096 20.17546082 C4.18375512 21.65026093 4.19239828 23.12507659 4.19923019 24.59989929 C4.21109691 26.93765482 4.23056681 29.275232 4.25234985 31.61291504 C4.31372141 38.25604299 4.36802893 44.89914767 4.40136719 51.54248047 C4.42234796 55.61497741 4.45766928 59.68713982 4.50212479 63.75944519 C4.51624782 65.30629027 4.52499886 66.85319443 4.52817917 68.40010071 C4.53310559 70.56591706 4.55630344 72.73084883 4.58349609 74.89648438 C4.59158295 76.12637085 4.5996698 77.35625732 4.60800171 78.62341309 C5.19612079 83.68934124 6.75646008 86.93410864 10.625 90.25 C11.40875 90.8275 12.1925 91.405 13 92 C14.39431504 94.78863007 14.25660094 96.92078868 14 100 C10.8760509 102.08263273 10.13408684 102.25591745 6.57617188 102.29052734 C5.23963562 102.3096669 5.23963562 102.3096669 3.87609863 102.32919312 C2.91667358 102.33141876 1.95724854 102.33364441 0.96875 102.3359375 C-0.51244324 102.3459227 -0.51244324 102.3459227 -2.02355957 102.35610962 C-4.1115533 102.3662357 -6.19957939 102.37092665 -8.28759766 102.37060547 C-11.4878438 102.37498337 -14.68671626 102.41131686 -17.88671875 102.44921875 C-19.91405777 102.45508587 -21.94140336 102.45905596 -23.96875 102.4609375 C-24.92817505 102.47530853 -25.8876001 102.48967957 -26.87609863 102.50448608 C-27.7671228 102.49833282 -28.65814697 102.49217957 -29.57617188 102.48583984 C-30.35988159 102.48868988 -31.14359131 102.49153992 -31.9510498 102.49447632 C-34 102 -34 102 -35.77258301 100.12197876 C-37 98 -37 98 -37.0625 95.5625 C-35.5708747 91.96505075 -33.01210055 90.39738615 -30 88 C-24.8158699 79.44613045 -26.81382056 66.3157877 -26.81469727 56.65014648 C-26.81250238 53.94043453 -26.79427058 51.23112508 -26.77539062 48.52148438 C-26.77245718 46.77343887 -26.77047206 45.02539146 -26.76953125 43.27734375 C-26.76234573 42.48021469 -26.75516022 41.68308563 -26.74775696 40.86180115 C-26.76936421 35.46900499 -27.18567685 30.11994733 -29 25 C-32.21905457 22.22803634 -35.95988254 21.22143086 -40 20 C-40.5 17.4375 -40.5 17.4375 -40 14 C-35.00416308 7.45373093 -27.51559705 4.67965577 -20 2 C-18.865625 1.566875 -17.73125 1.13375 -16.5625 0.6875 C-11.14473065 -0.35803444 -5.44787442 -1.05276492 0 0 Z " fill="#6F7F6F" transform="translate(1288,223)"/>
<path d="M0 0 C1.29550781 -0.03738281 2.59101562 -0.07476562 3.92578125 -0.11328125 C9.4720823 0.51449322 12.30108724 2.64978415 15.83007812 6.88208008 C18.22842786 11.31152437 18.2870884 14.60009677 18.17578125 19.5546875 C18.16452713 20.46467499 18.15327301 21.37466248 18.14167786 22.31222534 C17.8580786 33.02155125 16.19449341 43.53185008 14.43432617 54.08203125 C13.87022657 57.46613641 13.3307095 60.85349525 12.79492188 64.2421875 C12.44150692 66.43512236 12.0867381 68.62783956 11.73046875 70.8203125 C11.57096237 71.81322296 11.41145599 72.80613342 11.24711609 73.82913208 C8.05875259 92.81597073 8.05875259 92.81597073 3.6875 96.3125 C1.75 96.78125 1.75 96.78125 -0.3125 96.8125 C-0.993125 96.8434375 -1.67375 96.874375 -2.375 96.90625 C-4.3125 96.3125 -4.3125 96.3125 -5.94921875 94.27734375 C-7.58876039 90.71169302 -8.41249161 87.20760885 -9.125 83.375 C-9.36440308 82.12710693 -9.36440308 82.12710693 -9.60864258 80.85400391 C-11.23090532 72.15408158 -12.67482183 63.42016199 -14.09359741 54.68502808 C-14.36014119 53.04699577 -14.62927817 51.40938287 -14.90127563 49.77224731 C-16.34746117 41.02156116 -17.52817222 32.3231952 -18.05859375 23.46484375 C-18.10501511 22.72374359 -18.15143646 21.98264343 -18.19926453 21.21908569 C-18.55939028 13.84441296 -17.51966186 8.96109423 -12.8125 3.3125 C-8.67962611 0.00620089 -5.16095053 0.09699116 0 0 Z " fill="#6F7F6F" transform="translate(1336.3125,183.6875)"/>
<path d="M0 0 C4.80759707 3.82422494 8.30061311 9.05554645 9.38574219 15.17553711 C9.53499513 17.42359689 9.55549654 19.62280579 9.5 21.875 C9.48791504 22.66438965 9.47583008 23.4537793 9.46337891 24.26708984 C9.09548187 35.10555942 4.81538194 43.53573546 -3.0703125 50.9453125 C-8.82165856 55.73476096 -14.46764553 58.51783463 -21.9375 59.3125 C-24 59 -24 59 -26 57 C-26.5234375 54.6953125 -26.5234375 54.6953125 -26 52 C-23.89486848 50.04904712 -21.9632797 48.48811701 -19.625 46.875 C-14.79218101 43.49142835 -14.79218101 43.49142835 -11 39 C-10.83300768 35.87478167 -10.83300768 35.87478167 -11 33 C-12.12019531 32.48050781 -13.24039062 31.96101563 -14.39453125 31.42578125 C-15.86754898 30.72211036 -17.34018553 30.01764115 -18.8125 29.3125 C-19.55048828 28.97283203 -20.28847656 28.63316406 -21.04882812 28.28320312 C-25.35594884 26.19785509 -28.17910121 24.6643023 -30 20 C-30.82118478 14.50324061 -30.72530457 9.56219446 -28.375 4.5 C-20.378552 -3.91731369 -10.22247912 -5.45198886 0 0 Z " fill="#6F7F6F" transform="translate(506,295)"/>
<path d="M0 0 C4.2486361 2.93358207 7.66094354 5.98057348 9.625 10.8125 C10.29916884 15.93147968 10.42366642 21.08444214 8 25.75 C4.60000856 30.13419949 1.06915459 32.73375085 -4.375 33.8125 C-11.2284487 34.52348702 -16.70901653 33.91719025 -22.375 29.8125 C-26.78228025 25.7121945 -28.18257233 22.36216658 -28.625 16.5 C-28.24728846 10.92875478 -26.72787156 6.71573248 -22.5 3 C-15.57453504 -1.84782547 -8.02436138 -2.82338641 0 0 Z " fill="#6F7F6F" transform="translate(1345.375,293.1875)"/>
<path d="M0 0 C1.28648438 -0.02835938 2.57296875 -0.05671875 3.8984375 -0.0859375 C9.29578565 0.58165902 12.27682581 2.99134754 16 6.8125 C18.49218343 12.2761329 18.3545706 17.47074305 17.625 23.375 C15.72104543 27.71601643 13.14900387 30.47662462 8.8828125 32.68359375 C2.77706974 34.55334543 -3.93985385 34.18671538 -9.9375 32.1875 C-14.57960386 28.73567918 -17.19507455 25.06009534 -18.375 19.375 C-18.61971788 13.90057046 -18.11603401 9.68422225 -14.5625 5.375 C-10.16309457 0.67023738 -6.38694248 0.06374194 0 0 Z " fill="#6F7F6F" transform="translate(1275.375,175.625)"/>
</svg>
