<?xml version="1.0" encoding="UTF-8"?>
<svg version="1.1" xmlns="http://www.w3.org/2000/svg" width="1347" height="1390">
<path d="M0 0 C3.87181439 3.40400295 7.59098512 6.95910305 11.28662109 10.55224609 C11.77791504 11.02307617 12.26920898 11.49390625 12.77539062 11.97900391 C18.5833366 17.55072754 23.89978219 23.3267842 28.91943359 29.61474609 C31.58377611 32.92099292 34.32869348 36.14740359 37.09912109 39.36474609 C37.60491699 39.95215576 38.11071289 40.53956543 38.63183594 41.14477539 C39.66567561 42.34504202 40.69969378 43.54515493 41.73388672 44.74511719 C43.27308091 46.53648754 44.80449228 48.33420497 46.33349609 50.13427734 C72.63287095 81.06996444 103.45242221 115.82545676 146.52294922 119.75634766 C171.70476449 121.60882581 197.08888102 119.73053653 222.24975586 118.26708984 C232.77634677 117.66045811 243.27637238 117.33648441 253.82104492 117.31201172 C256.35221375 117.30223415 258.88259113 117.27099581 261.41357422 117.23974609 C275.19410656 117.15138853 291.12395564 117.30378891 303.28662109 124.55224609 C304.01751953 124.98408203 304.74841797 125.41591797 305.50146484 125.86083984 C328.49919782 140.36710219 340.94853289 164.58839495 346.95947266 190.44677734 C350.22312269 205.90127227 351.47006632 221.01190071 351.41162109 236.80224609 C351.41073486 237.50288177 351.40984863 238.20351746 351.40893555 238.92538452 C351.39595097 247.74952909 351.22849988 256.55038636 350.78662109 265.36474609 C348.88049854 304.25235462 347.83449409 344.86773966 372.28662109 377.55224609 C372.81642578 378.27798828 373.34623047 379.00373047 373.89208984 379.75146484 C387.08758822 396.33543687 406.07541959 399.77643103 425.88427734 402.26318359 C448.81140291 405.15478723 468.15231624 411.35448256 483.03662109 430.17724609 C499.89404943 453.97956777 505.48146047 482.61172269 500.76538086 511.20458984 C495.56448582 539.64492727 482.32375542 566.20910038 467.66162109 590.86474609 C445.05611263 628.97442386 421.80749035 671.78483542 432.19677734 717.60302734 C432.55072343 718.92197421 432.91465712 720.23826684 433.28662109 721.55224609 C433.5017334 722.31714355 433.7168457 723.08204102 433.93847656 723.87011719 C438.65650732 740.10616466 445.82585277 755.13922127 453.10400391 770.35058594 C471.80643312 809.45840529 492.9282163 854.54451272 477.99755859 898.47802734 C473.43052854 911.03226809 466.48353816 920.94105349 457.28662109 930.55224609 C456.74650391 931.15552734 456.20638672 931.75880859 455.64990234 932.38037109 C441.38615906 947.75790793 420.32604772 956.58689739 401.90966797 965.72851562 C374.04767954 979.59815784 346.8861337 994.28541754 336.35160828 1025.58769226 C334.64213623 1031.05574747 333.35146881 1036.51655169 332.29833984 1042.14599609 C332.12821884 1043.04821899 331.95809784 1043.95044189 331.78282166 1044.88000488 C329.65684632 1056.52697294 328.35125139 1068.28306879 327.00756836 1080.04101562 C323.38885348 1111.4306063 317.09529607 1141.79860722 292.06787109 1163.42724609 C267.68983676 1182.05315997 236.77782366 1185.79781338 207.18896484 1188.48193359 C206.28362 1188.5649321 205.37827515 1188.6479306 204.44549561 1188.73344421 C199.9020381 1189.14910663 195.35821749 1189.55272595 190.81152344 1189.93139648 C163.52995766 1192.29628674 138.25603455 1197.54602597 117.95849609 1217.11865234 C116.28662109 1218.55224609 116.28662109 1218.55224609 114.28662109 1218.55224609 C113.89990234 1219.42816406 113.89990234 1219.42816406 113.50537109 1220.32177734 C112.18695074 1222.73465562 110.71796093 1224.28861794 108.78662109 1226.23974609 C95.48963318 1241.05432502 88.95267323 1260.02965363 83.59130859 1278.84912109 C83.35482101 1279.67789261 83.11833344 1280.50666412 82.87467957 1281.36054993 C81.6916567 1285.52527406 80.53148106 1289.69459895 79.40600586 1293.87524414 C75.40949869 1308.46740709 70.36774618 1320.79094974 59.28662109 1331.55224609 C58.59955078 1332.24833984 57.91248047 1332.94443359 57.20458984 1333.66162109 C37.70867637 1352.32561248 10.61258295 1356.38181648 -15.28759766 1355.82958984 C-40.55539071 1354.93023404 -63.88064026 1346.9609299 -86.71337891 1336.55224609 C-113.35703974 1324.50320202 -135.54141704 1325.84475215 -162.65087891 1336.05224609 C-170.78979073 1339.21305653 -178.76768513 1342.74506531 -186.75927734 1346.25640869 C-224.63397308 1362.89283567 -258.24136505 1369.50561767 -297.98681641 1354.47021484 C-327.19462149 1342.89518188 -353.97725411 1322.86980414 -373.41357422 1298.19824219 C-374.31122278 1297.06151293 -375.21459393 1295.92928757 -376.12255859 1294.80078125 C-383.26486969 1285.90918937 -389.64181803 1276.70765394 -395.71337891 1267.05224609 C-412.28149965 1240.73898606 -430.37986935 1216.68490328 -461.58837891 1207.73974609 C-462.25812744 1207.54485596 -462.92787598 1207.34996582 -463.61791992 1207.14916992 C-476.23342172 1203.8016581 -489.26318627 1203.25990738 -502.23903656 1203.21672058 C-504.71591819 1203.20821923 -507.19246652 1203.18753036 -509.66925049 1203.16418457 C-514.93390842 1203.11659081 -520.19860084 1203.08330067 -525.46337891 1203.05224609 C-578.23119356 1202.74007519 -578.23119356 1202.74007519 -595.71337891 1198.23974609 C-596.58655762 1198.0217334 -597.45973633 1197.8037207 -598.359375 1197.57910156 C-614.40909576 1193.43021444 -626.76028273 1185.97135516 -638.71337891 1174.55224609 C-639.65310547 1173.72466797 -639.65310547 1173.72466797 -640.61181641 1172.88037109 C-651.67252318 1162.77058482 -657.61574169 1147.77526078 -661.83837891 1133.73974609 C-662.08023926 1132.96566406 -662.32209961 1132.19158203 -662.57128906 1131.39404297 C-667.85329556 1112.95951445 -668.32966605 1093.32822605 -669.21337891 1074.30224609 C-669.85104258 1060.66101095 -670.62378915 1047.08619161 -672.17041016 1033.51318359 C-672.28924561 1032.46136902 -672.40808105 1031.40955444 -672.53051758 1030.3258667 C-674.75685332 1011.83338402 -679.97868628 992.74676934 -692.71337891 978.55224609 C-693.34501953 977.82908203 -693.97666016 977.10591797 -694.62744141 976.36083984 C-707.85025056 962.15233037 -726.99656659 955.1108426 -745.08874512 949.29602051 C-747.46196796 948.53259478 -749.83074018 947.75654574 -752.19873047 946.97705078 C-755.31300454 945.95241947 -758.42824193 944.93086463 -761.54492188 943.91357422 C-774.83024041 939.57603156 -787.63591915 935.18918259 -799.94970703 928.5078125 C-801.60514302 927.61088885 -803.27601368 926.74262011 -804.94775391 925.87646484 C-813.00394472 921.50399858 -819.26696269 915.97119179 -825.71337891 909.55224609 C-826.45587891 908.84455078 -827.19837891 908.13685547 -827.96337891 907.40771484 C-840.62096638 894.47818701 -845.22059941 877.0915299 -845.13793945 859.48339844 C-844.46469591 834.32345403 -829.86297236 812.30808205 -816.27587891 792.05224609 C-807.80044315 779.37308976 -807.80044315 779.37308976 -799.72900391 766.43505859 C-799.19981102 765.55895935 -799.19981102 765.55895935 -798.65992737 764.66516113 C-784.62837068 741.06237372 -779.7595086 715.93299752 -786.47509766 689.08740234 C-786.88144393 687.57394688 -787.2940171 686.06214689 -787.71337891 684.55224609 C-787.90109863 683.86372559 -788.08881836 683.17520508 -788.28222656 682.46582031 C-794.00427829 662.16442728 -803.79659061 642.86918075 -812.57543945 623.74243164 C-828.91804421 588.12670791 -846.14231641 547.90578523 -831.71313477 508.64038086 C-826.53098385 495.50360298 -819.10575529 484.93041125 -809.71337891 474.55224609 C-808.72724609 473.45783203 -808.72724609 473.45783203 -807.72119141 472.34130859 C-801.69970057 466.00969805 -794.66625478 460.80589278 -787.71337891 455.55224609 C-787.12137695 455.10478027 -786.529375 454.65731445 -785.91943359 454.19628906 C-778.42827478 448.56453553 -770.77670435 443.19484189 -763.02587891 437.92724609 C-733.85938153 418.08766533 -709.54694855 397.58116603 -702.05712891 361.38037109 C-701.53859548 358.43693134 -701.07835525 355.51903403 -700.71337891 352.55224609 C-700.58589012 351.53493408 -700.58589012 351.53493408 -700.45582581 350.49707031 C-699.54409112 342.1006058 -699.62672441 333.75202064 -699.69934464 325.31999779 C-699.72170381 322.59527243 -699.73556631 319.87062013 -699.74703979 317.14582825 C-699.78029163 309.40498 -699.82157385 301.66425022 -699.88476562 293.92358398 C-700.4693273 219.84793189 -700.4693273 219.84793189 -674.18212891 191.85693359 C-656.50872593 174.85927838 -631.77947184 167.43015156 -607.5793457 167.39453125 C-606.80890427 167.38945053 -606.03846283 167.38436981 -605.24467468 167.37913513 C-603.58386525 167.36850243 -601.92304214 167.35985494 -600.26221275 167.3530159 C-597.61409288 167.34109015 -594.96612633 167.32159964 -592.31806946 167.29989624 C-584.79258511 167.23877054 -577.26711644 167.18456788 -569.74145508 167.15087891 C-565.121976 167.12965536 -560.50277849 167.09413476 -555.88346291 167.05012131 C-554.14360736 167.03617249 -552.40370204 167.02728797 -550.66379356 167.02406693 C-526.49043924 166.97461883 -502.79764507 164.02507323 -484.19775391 147.18896484 C-478.31041387 140.94060868 -473.59519255 134.22621375 -469.65087891 126.61474609 C-469.19608154 125.74503174 -468.74128418 124.87531738 -468.27270508 123.97924805 C-463.16836507 113.92187739 -458.98845261 103.46178003 -454.83618164 92.98413086 C-451.98949929 85.83438825 -448.98926268 78.82230135 -445.55712891 71.93115234 C-445.23811111 71.28901291 -444.91909332 70.64687347 -444.59040833 69.98527527 C-438.71089723 58.41443311 -430.65860885 48.83849653 -421.71337891 39.55224609 C-421.01986328 38.78396484 -420.32634766 38.01568359 -419.61181641 37.22412109 C-395.35475946 11.18758893 -356.06213352 -2.93207449 -321.12890625 -4.56884766 C-299.8098693 -5.31806702 -280.2837708 -1.94391889 -259.81103516 3.68310547 C-236.41143503 10.04615463 -211.43429391 11.06839708 -187.71337891 5.55224609 C-186.90400879 5.36903809 -186.09463867 5.18583008 -185.26074219 4.99707031 C-167.21309036 0.75640264 -149.83103807 -5.87541575 -132.44702148 -12.22949219 C-85.48808925 -29.29358917 -40.63159271 -34.33248002 0 0 Z M-140.10748291 9.97058105 C-186.53346409 26.97549593 -230.29678196 32.15949153 -278.09228516 17.87646484 C-283.57403018 16.26314187 -289.03721268 15.20458162 -294.71337891 14.55224609 C-295.61830078 14.44267578 -296.52322266 14.33310547 -297.45556641 14.22021484 C-331.61395695 10.59149064 -368.87062764 20.21826999 -396.08837891 41.55224609 C-397.64346943 42.8698983 -399.1852401 44.2034297 -400.71337891 45.55224609 C-401.55384766 46.27283203 -402.39431641 46.99341797 -403.26025391 47.73583984 C-423.98376693 65.85321411 -433.62698756 88.7101951 -443.68847656 113.75610352 C-450.67471708 131.03248901 -458.53096521 147.09988536 -471.71337891 160.55224609 C-472.36564453 161.24060547 -473.01791016 161.92896484 -473.68994141 162.63818359 C-492.94262523 181.4448593 -521.32007156 184.82777675 -546.93522072 184.85720634 C-549.5584941 184.86094764 -552.1814146 184.87787885 -554.80461121 184.89796448 C-562.25142786 184.95264748 -569.69829305 184.98391987 -577.14526367 185.00854492 C-581.73388661 185.02461517 -586.32225343 185.05502273 -590.91074181 185.0933094 C-592.6346835 185.10478009 -594.35867129 185.11088814 -596.08265114 185.11099052 C-620.21609746 185.11294418 -643.39982392 188.65608313 -661.87353516 205.61865234 C-679.99771785 224.66636027 -682.12250069 251.65440734 -681.83314323 276.5735054 C-681.80223878 279.30321175 -681.78596188 282.03269469 -681.77308655 284.76254272 C-681.7339461 292.51113817 -681.66891159 300.25945983 -681.59692383 308.0078125 C-681.12314548 361.01977765 -681.12314548 361.01977765 -689.71337891 385.55224609 C-690.07044922 386.60283203 -690.42751953 387.65341797 -690.79541016 388.73583984 C-702.29416828 419.33147542 -731.25979744 438.87001078 -757.15869141 456.45068359 C-767.3702632 463.3880553 -777.31327731 470.52950078 -786.71337891 478.55224609 C-787.99341797 479.62925781 -787.99341797 479.62925781 -789.29931641 480.72802734 C-806.64273956 495.75010001 -817.23648965 514.38702738 -818.91650391 537.32568359 C-819.47503453 568.32413305 -804.51916881 597.58924281 -791.71337891 624.98974609 C-774.34565278 662.19059085 -756.20141362 704.12151809 -769.71337891 745.55224609 C-770.20451172 747.12619141 -770.20451172 747.12619141 -770.70556641 748.73193359 C-777.42502524 768.00746149 -789.04454096 784.88770032 -800.40707397 801.64372253 C-821.6967943 832.90063002 -821.6967943 832.90063002 -826.71337891 869.55224609 C-823.82197102 884.49118686 -815.44057585 895.93927789 -803.40087891 904.92724609 C-789.44464589 914.25981107 -774.6037677 920.41810179 -758.71337891 925.55224609 C-753.4204288 927.27873398 -748.13280751 929.02121681 -742.84664917 930.76837158 C-740.53517139 931.52863304 -738.22042238 932.27812986 -735.9050293 933.02636719 C-728.49095843 935.44582002 -721.21732499 938.04579488 -714.06103516 941.15380859 C-713.11094574 941.56469727 -713.11094574 941.56469727 -712.1416626 941.98388672 C-687.90963354 952.80409878 -671.19902603 971.02606921 -661.71337891 995.55224609 C-653.00939236 1019.77316103 -652.55777429 1045.99401317 -651.25244141 1071.41943359 C-648.83752362 1123.22422321 -648.83752362 1123.22422321 -621.44775391 1165.69677734 C-597.53468805 1186.40295854 -562.93908323 1184.88077184 -533.33837891 1184.61474609 C-505.32252406 1184.40278403 -505.32252406 1184.40278403 -492.56884766 1184.97021484 C-491.2897905 1185.02629662 -491.2897905 1185.02629662 -489.9848938 1185.08351135 C-456.30517537 1186.80590034 -428.27945284 1197.83801479 -404.83837891 1222.55224609 C-396.54176611 1231.91154232 -389.77825008 1242.41584925 -382.88916016 1252.82568359 C-382.46016418 1253.47290878 -382.03116821 1254.12013397 -381.58917236 1254.78697205 C-379.4442964 1258.0240906 -377.30640911 1261.26536449 -375.18261719 1264.51635742 C-367.64665217 1275.98663987 -359.49498975 1287.0232306 -350.02587891 1296.98974609 C-349.47609375 1297.57336914 -348.92630859 1298.15699219 -348.35986328 1298.75830078 C-344.35537055 1302.9679707 -340.2626996 1306.92948429 -335.71337891 1310.55224609 C-334.77365234 1311.31794922 -333.83392578 1312.08365234 -332.86572266 1312.87255859 C-308.03020351 1332.78259769 -275.20329567 1348.38778372 -242.71337891 1345.55224609 C-225.12386042 1343.30574774 -208.83552881 1335.83701228 -192.76171875 1328.75268555 C-160.02255473 1314.32676116 -125.99561533 1301.75718129 -90.58837891 1314.67724609 C-86.74631046 1316.21964842 -82.97650145 1317.8818688 -79.22509766 1319.63037109 C-47.52684235 1334.38025683 -9.99170875 1344.94644958 24.29907227 1332.55126953 C37.88498063 1327.26508477 49.31082864 1318.49636361 56.28662109 1305.55224609 C57.42330293 1302.83215012 58.27711628 1300.0689936 59.09912109 1297.23974609 C59.34355957 1296.43851318 59.58799805 1295.63728027 59.83984375 1294.81176758 C61.3306061 1289.89299211 62.74775655 1284.95339763 64.16552734 1280.01318359 C71.0564279 1256.10813471 78.58757798 1232.55796637 95.28662109 1213.55224609 C95.94919922 1212.74658203 96.61177734 1211.94091797 97.29443359 1211.11083984 C124.3201665 1179.24839828 163.71273247 1173.712568 202.98193359 1170.48095703 C233.47114642 1167.96879397 266.98467026 1164.98197103 288.76708984 1140.79833984 C305.18489475 1120.14545628 307.32735435 1092.86277108 310.21630859 1067.57177734 C313.45788647 1039.34629986 317.60488045 1012.55443842 335.28662109 989.55224609 C335.82673828 988.82779297 336.36685547 988.10333984 336.92333984 987.35693359 C353.65443338 966.53789025 382.43831703 955.00877595 405.54052734 943.41162109 C428.66197305 931.71904131 450.73573682 918.25893865 460.66162109 892.98974609 C472.50384543 856.57228628 455.932114 819.81479624 440.50048828 787.32739258 C418.43921552 740.87515078 402.27360261 697.3699066 419.52880859 646.44970703 C428.20085477 622.42607435 441.02458941 599.68339488 453.85791016 577.67895508 C473.37105221 544.12516808 490.88180256 506.98485016 481.28662109 467.55224609 C478.49812042 458.08323789 474.01830382 449.56839425 468.28662109 441.55224609 C467.54412109 440.50037109 466.80162109 439.44849609 466.03662109 438.36474609 C452.45876304 424.47830036 436.91335421 421.60895145 418.40673828 419.53173828 C394.73087185 416.84180416 374.74199334 409.53628853 359.03662109 390.80224609 C337.61761715 362.09358114 331.83189183 329.96529717 332.09912109 294.92724609 C332.10599254 293.06152473 332.11249925 291.19580199 332.11865234 289.33007812 C332.16887652 278.75702204 332.40235515 268.20965713 332.92382812 257.6484375 C334.65596173 222.13011113 333.65673814 181.62672053 308.91162109 153.36474609 C307.387482 151.74391704 305.84645972 150.13874862 304.28662109 148.55224609 C303.62533203 147.87806641 302.96404297 147.20388672 302.28271484 146.50927734 C290.70355896 135.53831955 274.47049973 135.17273222 259.28662109 135.23974609 C257.99135498 135.24103516 256.69608887 135.24232422 255.36157227 135.24365234 C237.08278339 135.36162286 218.80735893 136.49832024 200.55810547 137.48461914 C147.9086298 140.29416579 107.75803793 135.80430245 67.28662109 99.55224609 C66.26366706 98.65195687 65.24024536 97.7521987 64.21630859 96.85302734 C59.59858397 92.74488813 55.26263744 88.59972948 51.28662109 83.86865234 C49.12897131 81.36965562 46.88687379 78.96804766 44.62573242 76.56298828 C39.39136757 70.9953716 34.36846907 65.34803015 29.58349609 59.38427734 C25.94667814 54.90010555 22.16594262 50.54168985 18.39599609 46.16943359 C16.32820483 43.77084762 14.2772847 41.35938864 12.23974609 38.93505859 C-8.55310881 14.24795721 -32.5139265 -5.5921062 -65.72900391 -8.73291016 C-91.44511442 -9.55898633 -116.41731145 1.27490334 -140.10748291 9.97058105 Z " fill="#6F7F6F" transform="translate(844.71337890625,26.44775390625)"/>
<path d="M0 0 C1.65322266 0.01740234 1.65322266 0.01740234 3.33984375 0.03515625 C4.44457031 0.04417969 5.54929687 0.05320312 6.6875 0.0625 C7.54214844 0.07410156 8.39679688 0.08570312 9.27734375 0.09765625 C10.83724802 3.2174648 10.39848622 6.52688846 10.375 9.94921875 C10.37399292 10.6352417 10.37298584 11.32126465 10.37194824 12.02807617 C10.36671264 14.59295318 10.35275138 17.15780638 10.33984375 19.72265625 C10.31921875 25.45640625 10.29859375 31.19015625 10.27734375 37.09765625 C23.80734375 37.09765625 37.33734375 37.09765625 51.27734375 37.09765625 C51.23774158 25.29502122 51.23774158 25.29502122 51.18725586 13.49243164 C51.18433666 12.01839266 51.18178811 10.54435288 51.1796875 9.0703125 C51.17457153 8.29812378 51.16945557 7.52593506 51.16418457 6.73034668 C51.16387401 4.85240438 51.21500806 2.97456372 51.27734375 1.09765625 C52.27734375 0.09765625 52.27734375 0.09765625 54.74609375 -0.03515625 C55.74640625 -0.03257813 56.74671875 -0.03 57.77734375 -0.02734375 C58.77765625 -0.02992187 59.77796875 -0.0325 60.80859375 -0.03515625 C63.27734375 0.09765625 63.27734375 0.09765625 64.27734375 1.09765625 C64.36589536 3.76391655 64.39259048 6.40412739 64.375 9.0703125 C64.37358505 9.86795517 64.3721701 10.66559784 64.37071228 11.4874115 C64.36509691 14.0450306 64.35254187 16.60256343 64.33984375 19.16015625 C64.33483073 20.8899727 64.33026748 22.61979051 64.32617188 24.34960938 C64.31597166 28.59901864 64.29639943 32.84824041 64.27734375 37.09765625 C70.54734375 37.09765625 76.81734375 37.09765625 83.27734375 37.09765625 C83.25414062 35.7003125 83.2309375 34.30296875 83.20703125 32.86328125 C83.18827068 31.02474493 83.17007078 29.18620283 83.15234375 27.34765625 C83.13558594 26.42726562 83.11882813 25.506875 83.1015625 24.55859375 C83.09189453 23.22441406 83.09189453 23.22441406 83.08203125 21.86328125 C83.0663208 20.63786621 83.0663208 20.63786621 83.05029297 19.38769531 C83.29904459 16.87878107 84.02034246 15.2637 85.27734375 13.09765625 C87.73596776 13.04381777 90.19341925 13.00406587 92.65234375 12.97265625 C93.70035156 12.94751953 93.70035156 12.94751953 94.76953125 12.921875 C96.60631861 12.90421358 98.44336338 12.99462364 100.27734375 13.09765625 C102.9380458 15.7583583 102.5265092 17.75245303 102.55523682 21.37158203 C102.54916412 22.65911377 102.54916412 22.65911377 102.54296875 23.97265625 C102.54583893 25.29305908 102.54583893 25.29305908 102.54876709 26.64013672 C102.55012927 28.50293259 102.54643057 30.36573794 102.53808594 32.22851562 C102.52738682 35.08615361 102.53798007 37.94316291 102.55078125 40.80078125 C102.54945966 42.60807431 102.54689728 44.41536698 102.54296875 46.22265625 C102.54701721 47.08101074 102.55106567 47.93936523 102.55523682 48.82373047 C102.5072612 54.8677388 102.5072612 54.8677388 100.27734375 57.09765625 C97.69670246 57.2426361 95.22790491 57.2844317 92.65234375 57.22265625 C91.9459375 57.21363281 91.23953125 57.20460937 90.51171875 57.1953125 C88.76678277 57.17173228 87.0220208 57.13586086 85.27734375 57.09765625 C84.61734375 55.11765625 83.95734375 53.13765625 83.27734375 51.09765625 C77.00734375 51.09765625 70.73734375 51.09765625 64.27734375 51.09765625 C64.27734375 60.66765625 64.27734375 70.23765625 64.27734375 80.09765625 C68.18900391 80.27941406 68.18900391 80.27941406 72.1796875 80.46484375 C81.46585627 80.95449833 90.63087065 81.95457095 99.83984375 83.22265625 C100.62638336 83.32958801 101.41292297 83.43651978 102.22329712 83.54669189 C185.17272145 94.94162578 269.30751503 127.08192213 335.58984375 178.79101562 C338.22529162 180.83165755 340.91028097 182.80282664 343.58984375 184.78515625 C349.28835418 189.06479127 354.81623795 193.51974815 360.27734375 198.09765625 C360.80553711 198.53948242 361.33373047 198.98130859 361.87792969 199.43652344 C375.09237176 210.52184349 387.55939985 222.30173028 399.77734375 234.47265625 C401.03248779 235.72079102 401.03248779 235.72079102 402.31298828 236.99414062 C407.17484825 241.86868456 411.79821006 246.87154592 416.27734375 252.09765625 C417.29883967 253.25432176 418.32223514 254.40931287 419.34765625 255.5625 C426.82765648 264.03829724 433.83491072 272.78779723 440.59619141 281.84570312 C441.73829958 283.3755907 442.88393748 284.90284826 444.03271484 286.42773438 C462.65374703 311.14726905 478.39214019 337.44569246 492.27734375 365.09765625 C492.77621094 366.08604492 493.27507813 367.07443359 493.7890625 368.09277344 C518.45321431 417.2467161 533.97577303 470.68597449 541.46484375 525.09765625 C541.6973584 526.76658936 541.6973584 526.76658936 541.93457031 528.46923828 C544.72994857 549.92787725 545.65923743 571.41132472 545.58984375 593.03515625 C545.58802094 594.22699524 545.58619812 595.41883423 545.58432007 596.64678955 C545.53322961 616.60735064 544.7887037 636.29186954 542.27734375 656.09765625 C542.19248718 656.77604553 542.10763062 657.45443481 542.02020264 658.15338135 C535.46877664 710.07651262 521.28943841 760.5819973 499.27734375 808.09765625 C498.80570801 809.12455566 498.33407227 810.15145508 497.84814453 811.20947266 C484.00133558 841.23355587 467.42179166 869.64403994 447.69677734 896.1875 C446.43065099 897.89134805 445.17549398 899.60333487 443.921875 901.31640625 C435.6543527 912.52048018 426.91170805 923.44984398 417.47265625 933.69140625 C415.61669186 935.72570173 413.80238202 937.78516056 411.99609375 939.86328125 C402.21247787 951.06840357 391.943192 961.74136601 380.86279297 971.66503906 C379.21482252 973.15415064 377.58956967 974.6649965 375.96875 976.18359375 C369.28531875 982.4434134 362.46661617 988.41668596 355.27734375 994.09765625 C354.64763672 994.59990723 354.01792969 995.1021582 353.36914062 995.61962891 C273.916092 1058.9092516 177.43335852 1098.39728221 41.27734375 1109.09765625 C40.41447754 1109.12102051 39.55161133 1109.14438477 38.66259766 1109.16845703 C-39.4331948 1110.9677599 -117.46608048 1093.51601963 -271.72265625 1011.09765625 C-272.76292969 1010.34226562 -273.80320312 1009.586875 -274.875 1008.80859375 C-297.62982747 992.00972783 -318.70035316 973.16355999 -338.72265625 953.22265625 C-339.5118042 952.43818115 -340.30095215 951.65370605 -341.11401367 950.84545898 C-345.85609686 946.09026637 -350.35344323 941.19550748 -354.72265625 936.09765625 C-355.7680651 934.90626398 -356.81491176 933.71613162 -357.86328125 932.52734375 C-365.10817392 924.26390779 -372.07414618 915.84802475 -378.72265625 907.09765625 C-379.24939941 906.40752441 -379.77614258 905.71739258 -380.31884766 905.00634766 C-441.27515762 824.8044213 -477.75227737 727.1089056 -480.38452148 525.70727539 C-472.2640468 466.65093218 -454.41051276 411.34377725 -427.72265625 358.09765625 C-427.27035645 357.19047852 -426.81805664 356.28330078 -426.35205078 355.34863281 C-410.77722883 324.29629354 -391.02054066 294.24285657 -368.22265625 267.99609375 C-365.88469334 265.285518 -363.64201763 262.52068834 -361.41015625 259.72265625 C-351.81254656 248.00890692 -341.0666055 237.3325421 -330.40151978 226.60128784 C-329.1730887 225.36478198 -327.94613869 224.12680267 -326.72079468 222.88723755 C-320.09619098 216.19398041 -313.44982918 209.79022957 -306.04614258 203.95361328 C-303.80808527 202.16589534 -301.69777943 200.29429015 -299.59765625 198.34765625 C-275.9942925 177.17590014 -248.3360765 159.49901592 -220.72265625 144.09765625 C-219.76681641 143.56027832 -218.81097656 143.02290039 -217.82617188 142.46923828 C-192.43578234 128.25305373 -166.22610764 116.59507887 -138.72265625 107.09765625 C-137.04768066 106.51806152 -137.04768066 106.51806152 -135.33886719 105.92675781 C-99.97138826 93.82655639 -63.70992842 85.95683465 -26.59765625 81.72265625 C-25.84600189 81.63689331 -25.09434753 81.55113037 -24.31991577 81.46276855 C-17.41682273 80.6872961 -10.68823844 80.09765625 -3.72265625 80.09765625 C-3.72265625 70.52765625 -3.72265625 60.95765625 -3.72265625 51.09765625 C-5.93726563 51.12085938 -8.151875 51.1440625 -10.43359375 51.16796875 C-12.57486396 51.18355939 -14.71612789 51.19570745 -16.85742188 51.20751953 C-18.34735945 51.21758668 -19.83727722 51.23124143 -21.32714844 51.24853516 C-23.46684653 51.27275278 -25.60628378 51.28413189 -27.74609375 51.29296875 C-29.03435059 51.30344238 -30.32260742 51.31391602 -31.64990234 51.32470703 C-34.72265625 51.09765625 -34.72265625 51.09765625 -36.72265625 49.09765625 C-36.98828125 46.78515625 -36.98828125 46.78515625 -36.97265625 44.09765625 C-36.9778125 43.21078125 -36.98296875 42.32390625 -36.98828125 41.41015625 C-36.72265625 39.09765625 -36.72265625 39.09765625 -34.72265625 37.09765625 C-31.64990234 36.87060547 -31.64990234 36.87060547 -27.74609375 36.90234375 C-27.06084625 36.90517365 -26.37559875 36.90800354 -25.66958618 36.91091919 C-23.47876598 36.92212344 -21.28835309 36.94722766 -19.09765625 36.97265625 C-17.61328715 36.98268577 -16.12891165 36.99181167 -14.64453125 37 C-11.00377364 37.02206331 -7.36325469 37.05659449 -3.72265625 37.09765625 C-3.73051147 35.46969116 -3.73051147 35.46969116 -3.73852539 33.80883789 C-3.75657461 29.79647643 -3.76808796 25.78411858 -3.77758789 21.77172852 C-3.78262829 20.03246457 -3.78946055 18.29320489 -3.7980957 16.55395508 C-3.81017417 14.05939688 -3.81588733 11.56489452 -3.8203125 9.0703125 C-3.82547379 8.28801773 -3.83063507 7.50572296 -3.83595276 6.69972229 C-3.83614851 4.83198511 -3.78465319 2.96436421 -3.72265625 1.09765625 C-2.72265625 0.09765625 -2.72265625 0.09765625 0 0 Z M10.27734375 51.09765625 C10.27734375 66.27765625 10.27734375 81.45765625 10.27734375 97.09765625 C5.94609375 97.34515625 1.61484375 97.59265625 -2.84765625 97.84765625 C-95.36258564 103.77868636 -190.53054592 136.44049306 -264.04394531 193.79980469 C-266.63130707 195.80015592 -269.27513724 197.72324618 -271.91015625 199.66015625 C-277.30787239 203.70478637 -282.43895273 208.01204891 -287.5546875 212.40234375 C-290.47753509 214.90611638 -293.46811084 217.31734374 -296.47265625 219.72265625 C-300.79861819 223.23867756 -304.72602508 226.99373435 -308.61328125 230.984375 C-310.56190452 232.93660683 -312.56356253 234.74466521 -314.66015625 236.53515625 C-321.54326625 242.45847003 -327.86858341 248.95638313 -333.76171875 255.859375 C-335.76643148 258.1476228 -337.84022958 260.36242956 -339.92626953 262.57641602 C-345.56431344 268.57852054 -350.77987858 274.78177672 -355.78759766 281.31665039 C-357.65952489 283.7445221 -359.5597273 286.14283092 -361.50244141 288.5144043 C-368.74057495 297.35863072 -375.31071249 306.49586089 -381.59765625 316.03515625 C-382.06899994 316.74599365 -382.54034363 317.45683105 -383.02597046 318.18920898 C-391.43188403 330.87746056 -399.34682654 343.77889736 -406.72265625 357.09765625 C-407.35252441 358.22300781 -407.35252441 358.22300781 -407.99511719 359.37109375 C-449.13553813 433.20073987 -469.45531512 521.76341178 -447.87939453 730.11914062 C-427.01169333 802.56904397 -389.81896113 869.80425183 -339.02587891 925.55932617 C-337.57487034 927.1584502 -336.1311604 928.76425702 -334.69799805 930.37939453 C-329.0572023 936.72899863 -323.17797485 942.79348313 -317.16015625 948.78515625 C-316.26619141 949.68298828 -315.37222656 950.58082031 -314.45117188 951.50585938 C-309.36944488 956.58015151 -304.18276103 961.43547312 -298.72265625 966.09765625 C-297.51927442 967.15447753 -296.31742957 968.21305171 -295.1171875 969.2734375 C-287.2168159 976.20875335 -279.18091621 982.85106448 -270.72265625 989.09765625 C-270.05395508 989.59233398 -269.38525391 990.08701172 -268.69628906 990.59667969 C-197.28999059 1043.22036904 -114.41131676 1078.01692905 20.27734375 1091.09765625 C21.07575684 1091.11812012 21.87416992 1091.13858398 22.69677734 1091.15966797 C103.42499148 1093.14304135 183.97953214 1073.24827215 345.27734375 978.09765625 C346.31985512 977.2286177 347.36284903 976.36015777 348.40625 975.4921875 C355.32653494 969.71362615 362.05469115 963.75238375 368.65136719 957.60595703 C370.40634048 955.97799532 372.17334645 954.36373462 373.94140625 952.75 C381.63207403 945.69808874 388.90367693 938.4225845 395.86865234 930.65478516 C397.25470283 929.1226829 398.66150021 927.61320719 400.078125 926.109375 C405.90582624 919.90377172 411.27393948 913.457728 416.46875 906.71484375 C418.33611395 904.29256485 420.23781178 901.90591943 422.1796875 899.54296875 C430.17262593 889.79918362 437.30928225 879.59362798 444.27734375 869.09765625 C444.75558594 868.38351562 445.23382812 867.669375 445.7265625 866.93359375 C491.79476443 798.02485473 519.01247127 717.54390374 526.27734375 635.09765625 C526.42091309 633.49772827 526.42091309 633.49772827 526.56738281 631.86547852 C531.74645658 565.81372504 522.97737745 499.87880572 502.27734375 437.09765625 C501.97860352 436.17839355 501.67986328 435.25913086 501.37207031 434.31201172 C486.22289533 387.93644513 462.88164393 343.02977298 433.68066406 303.97558594 C432.41877326 302.28691787 431.1713419 300.58746768 429.92578125 298.88671875 C418.01193742 282.72721422 405.23054527 266.49601722 390.7265625 252.57421875 C388.70339762 250.5284667 386.83916572 248.45106772 384.96875 246.26953125 C381.39143489 242.14419168 377.54093527 238.41901224 373.52734375 234.72265625 C372.82778564 234.07345215 372.12822754 233.42424805 371.4074707 232.75537109 C369.36782584 230.86537982 367.3228999 228.98124451 365.27734375 227.09765625 C364.24461578 226.13951247 363.21204442 225.18119982 362.1796875 224.22265625 C356.07178574 218.59811362 349.77870067 213.26027447 343.27734375 208.09765625 C342.64473633 207.59250488 342.01212891 207.08735352 341.36035156 206.56689453 C317.40979335 187.49097935 292.04672271 170.93059284 265.27734375 156.09765625 C264.50487305 155.66743164 263.73240234 155.23720703 262.93652344 154.79394531 C208.17214559 124.49020103 146.25784444 106.46095121 84.21484375 99.34765625 C83.20623291 99.23188232 82.19762207 99.1161084 81.15844727 98.99682617 C71.1892649 97.94444801 61.33576799 97.60057746 51.27734375 97.09765625 C51.27734375 81.91765625 51.27734375 66.73765625 51.27734375 51.09765625 C37.74734375 51.09765625 24.21734375 51.09765625 10.27734375 51.09765625 Z " fill="#6F7F6F" transform="translate(642.72265625,108.90234375)"/>
<path d="M0 0 C2 2 2 2 2.5703125 4.76171875 C1.83299974 8.94824122 0.35248249 9.89787112 -2.97412109 12.33520508 C-3.68391113 12.8227124 -4.39370117 13.31021973 -5.125 13.8125 C-5.85928223 14.33674561 -6.59356445 14.86099121 -7.35009766 15.40112305 C-9.55085825 16.95858805 -11.77074128 18.48369315 -14 20 C-15.61648438 21.11375 -15.61648438 21.11375 -17.265625 22.25 C-43.44358218 39.61427311 -72.13913231 56.07525243 -102 66 C-102.74926758 66.25072266 -103.49853516 66.50144531 -104.27050781 66.75976562 C-114.65592991 70.1710021 -125.1690859 72.52404377 -136 74 C-136.68022217 74.09571289 -137.36044434 74.19142578 -138.0612793 74.29003906 C-146.97713199 75.36537588 -155.97103493 75.23940712 -164.9375 75.25 C-165.84097168 75.25233643 -166.74444336 75.25467285 -167.67529297 75.25708008 C-185.04244604 75.27379972 -202.26719935 74.25023866 -219.57225037 72.85714722 C-223.38028313 72.55374714 -227.18960867 72.27195414 -231 72 C-232.09119141 71.91830566 -233.18238281 71.83661133 -234.30664062 71.75244141 C-239.13558299 71.44198174 -239.13558299 71.44198174 -243.15625 73.7734375 C-243.5996875 74.63195312 -244.043125 75.49046875 -244.5 76.375 C-246.28932703 79.80377595 -248.10355004 83.20813437 -250.01293945 86.5715332 C-257.34478255 99.4953895 -264.09242242 112.70988613 -270.76000977 125.98461914 C-272.04206729 128.53547433 -273.33264419 131.08172313 -274.63110352 133.62426758 C-289.4006864 162.48915028 -289.4006864 162.48915028 -296 194 C-296.06960938 194.70511719 -296.13921875 195.41023437 -296.2109375 196.13671875 C-296.72285246 205.52838939 -294.02665911 216.07334524 -289 224 C-288.1646875 225.3303125 -288.1646875 225.3303125 -287.3125 226.6875 C-281.91838014 232.08161986 -274.63527563 235.51212296 -267 236 C-253.47204924 235.26677774 -244.37969829 229.3638274 -235 220 C-234.37222656 219.38382813 -233.74445313 218.76765625 -233.09765625 218.1328125 C-224.43221195 208.97612986 -219.6038363 197.36807161 -214.94311523 185.85644531 C-211.98202862 178.66303559 -208.5668992 171.5668992 -203 166 C-200 165.6875 -200 165.6875 -197 166 C-195 169 -195 169 -195 171.625 C-195.94183107 174.80367987 -196.77564372 176.21819633 -198.6875 178.8125 C-204.3763636 186.939448 -209.23112633 198.80144761 -208.4453125 208.86328125 C-206.97645136 215.91123776 -203.72298295 219.77095059 -197.90234375 223.87109375 C-192.68952981 226.96452954 -186.84977154 226.71321951 -181 226 C-167.86323015 221.47565122 -159.98236552 213.25464618 -153.92724609 201.01806641 C-149.53592725 191.46076216 -146.50946516 181.19195059 -144 171 C-145.01578125 171.2165625 -146.0315625 171.433125 -147.078125 171.65625 C-160.23726542 174.36288788 -173.86495722 176.51908835 -186 169.1875 C-190.44075856 164.33042032 -191.55888785 159.96894871 -191.35546875 153.52734375 C-190.78610561 149.47923436 -189.18967089 146.4070054 -187 143 C-186.46375 142.13375 -185.9275 141.2675 -185.375 140.375 C-177.59497575 132.59497575 -167.1826613 129.07950152 -156.3125 128.625 C-149.34483321 128.95259374 -143.93724554 130.53336408 -139.125 135.75 C-134.37173326 141.77960689 -132.65951539 147.48152457 -132 155 C-118.19615132 150.57596221 -106.09947878 144.52353014 -94.3125 136.0625 C-93.64105957 135.59706787 -92.96961914 135.13163574 -92.27783203 134.65209961 C-87.17992325 130.84589508 -85.21788504 126.86785932 -83 121 C-75.20640655 105.11305951 -64.59827123 90.25607486 -48 83 C-47.11828125 82.5875 -46.2365625 82.175 -45.328125 81.75 C-30.82951168 76.10729644 -9.57357555 76.70493422 5 82 C7 84 7 84 7.25 87 C7 90 7 90 5 92 C2.64453125 92.01171875 2.64453125 92.01171875 -0.1875 91.6875 C-1.10917969 91.58824219 -2.03085937 91.48898437 -2.98046875 91.38671875 C-5.08917074 91.11665213 -7.1934025 90.81030138 -9.29296875 90.4765625 C-24.23082369 88.55620602 -39.39954198 89.09229547 -51.953125 98.32421875 C-59.90750045 104.83648415 -64.8970271 112.16314449 -70 121 C-70.556875 121.91652344 -71.11375 122.83304688 -71.6875 123.77734375 C-74.65350629 128.80013417 -74.61439377 133.93275725 -73.4921875 139.53515625 C-70.54712325 150.3861454 -65.23725042 160.29635642 -60.29931641 170.34521484 C-58.59973718 173.81782373 -56.94576575 177.30818996 -55.3125 180.8125 C-54.62607422 182.27623047 -54.62607422 182.27623047 -53.92578125 183.76953125 C-53 186 -53 186 -53 188 C-52.38519775 187.63463135 -51.77039551 187.2692627 -51.13696289 186.89282227 C-33.53337784 176.47713926 -15.58391161 166.8934916 2.67626953 157.68261719 C4.66774662 156.67444471 6.65475543 155.65725843 8.63232422 154.62207031 C13.69683972 151.98681912 13.69683972 151.98681912 16.875 152.125 C19 153 19 153 21 155 C21.4375 157.375 21.4375 157.375 21 160 C17.35593498 163.39062441 13.26017876 165.54910958 8.8125 167.6875 C7.38649523 168.38757156 5.96055366 169.08777187 4.53466797 169.78808594 C3.79359802 170.14930542 3.05252808 170.5105249 2.28900146 170.88269043 C-14.6230704 179.13782702 -31.08468438 187.93741335 -47 198 C-46.72285156 199.09699219 -46.44570313 200.19398438 -46.16015625 201.32421875 C-45.79420763 202.77862993 -45.42832573 204.2330579 -45.0625 205.6875 C-44.78889648 206.7693457 -44.78889648 206.7693457 -44.50976562 207.87304688 C-43.99738992 209.91323376 -43.49764869 211.95618077 -43 214 C-42.69642578 215.19689453 -42.69642578 215.19689453 -42.38671875 216.41796875 C-39.77109621 233.88187276 -42.78212403 250.36588057 -53.0390625 264.88671875 C-61.46471022 275.56019829 -71.14486291 285.33555056 -85 288 C-95.76221019 288.82057908 -104.81968312 287.48004759 -113.31640625 280.5390625 C-119.78263399 274.62794015 -122.54754188 268.06753097 -123.3125 259.5 C-123.01810787 246.44861542 -116.31727621 236.62593791 -107.6015625 227.484375 C-94.02051973 214.53014958 -77.48817015 204.48186674 -62 194 C-62.89735089 192.10342504 -63.79479665 190.20689493 -64.69262695 188.31054688 C-65.49122259 186.6233219 -66.28922213 184.93581467 -67.08666992 183.24804688 C-69.26665538 178.63905535 -71.46095693 174.03780995 -73.68359375 169.44921875 C-82.28868524 151.63978658 -82.28868524 151.63978658 -85 143 C-85.825 143.6290625 -86.65 144.258125 -87.5 144.90625 C-99.02133515 153.51470761 -118.10523656 167 -133 167 C-133.061875 168.27875 -133.12375 169.5575 -133.1875 170.875 C-135.07750851 188.79228064 -142.28000902 209.90589164 -155 223 C-155.59039063 223.61746094 -156.18078125 224.23492188 -156.7890625 224.87109375 C-166.63454551 234.29115466 -178.0418768 237.6832076 -191.33203125 237.3984375 C-200.23824808 236.8909505 -206.66562448 232.8132539 -212.625 226.375 C-214.84113311 223.7100298 -216.55906265 221.15294212 -218 218 C-218.7734375 218.85722656 -219.546875 219.71445312 -220.34375 220.59765625 C-232.30814733 233.7804711 -244.71281037 245.83292431 -263.453125 247.17578125 C-274.78272915 247.50593843 -283.01462134 244.22497318 -292.1875 237.75 C-295.83463528 234.18391217 -298.42739295 230.38727888 -301 226 C-301.38285156 225.36835937 -301.76570313 224.73671875 -302.16015625 224.0859375 C-306.31065841 216.16368624 -306.8260488 206.742379 -308 198 C-308.61746094 199.02738281 -309.23492188 200.05476562 -309.87109375 201.11328125 C-315.05929687 209.64228674 -320.44256013 217.45275788 -327 225 C-327.83917969 226.05574219 -327.83917969 226.05574219 -328.6953125 227.1328125 C-335.49450172 235.50862531 -345.21886839 243.75764343 -356 246 C-364.25896437 246.78617396 -373.22351168 247.58936628 -380 242 C-387.34295091 235.33226297 -389.4605065 227.46080035 -390.16015625 217.78515625 C-390.53001459 207.34871879 -388.82042522 196.22405947 -385.890625 186.20703125 C-384.31638824 180.538398 -385.0515488 175.93338129 -387.625 170.6875 C-391.00053276 166.8678182 -394.19325957 164.48683285 -399.20703125 163.6171875 C-404.63002743 163.34003267 -408.76590305 164.51588884 -413 168 C-429.57023491 183.26205847 -437.02985493 208.13753074 -444.59863281 228.70874023 C-445.54747761 231.2799189 -446.51104687 233.84519978 -447.4765625 236.41015625 C-447.75690338 237.18521011 -448.03724426 237.96026398 -448.32608032 238.75880432 C-450.19091662 243.68038352 -452.27691897 247.24203115 -456 251 C-459.125 251.5625 -459.125 251.5625 -462 251 C-465.72799762 248.11057397 -466.08061395 244.74743363 -466.7734375 240.2734375 C-467.74982352 226.16634301 -462.43572781 212.16343298 -458 199 C-458.65484375 199.44730469 -459.3096875 199.89460937 -459.984375 200.35546875 C-470.20291197 207.12452784 -479.59071498 211.73129501 -492 212 C-492.165 213.299375 -492.33 214.59875 -492.5 215.9375 C-495.43067578 230.4257704 -503.14419196 243.54910536 -515.375 251.875 C-524.71025469 257.41700382 -533.86779216 259.44572584 -544.63671875 257.53125 C-553.6134102 255.22177961 -560.84269878 249.68238936 -566 242 C-571.67385324 231.73993312 -571.81804779 221.11182711 -569 210 C-579.99312421 209.29640708 -579.99312421 209.29640708 -589.63818359 213.48779297 C-592.40224954 217.32660187 -594.17521886 221.65910089 -596.04052734 225.98486328 C-598.41251218 230.966635 -602.3123482 234.96054496 -606 239 C-606.74636719 239.83917969 -607.49273438 240.67835938 -608.26171875 241.54296875 C-612.94935973 246.54053641 -617.96713207 250.61714018 -623.625 254.4375 C-624.23424316 254.8507251 -624.84348633 255.2639502 -625.47119141 255.68969727 C-632.85479338 260.48814609 -640.09666302 263.28281356 -649 262 C-652.125 260.6875 -652.125 260.6875 -654 258 C-655.58275878 250.68740903 -653.69487607 245.00890991 -649.8984375 238.76171875 C-637.28783771 220.41666927 -619.77710978 207.05130369 -597.77734375 202.3046875 C-593.7652825 200.419978 -592.65402274 197.39202207 -591 193.5 C-590.66532715 192.75041016 -590.3306543 192.00082031 -589.98583984 191.22851562 C-584.26291506 178.08678268 -578.73256974 163.73240956 -578.6875 149.25 C-578.66236328 147.37054687 -578.66236328 147.37054687 -578.63671875 145.453125 C-579.02568075 141.75589481 -579.75346181 139.92523474 -582 137 C-585.76084636 134.4927691 -588.64991173 134.39814891 -593 135 C-603.4300262 138.18430416 -612.72672228 145.04968845 -620 153 C-620.78375 153.763125 -621.5675 154.52625 -622.375 155.3125 C-672.86907345 207.0088133 -699.34785953 295.87114032 -712.45385742 364.72875977 C-712.63150635 365.64713623 -712.80915527 366.5655127 -712.9921875 367.51171875 C-713.21430908 368.70994263 -713.21430908 368.70994263 -713.44091797 369.93237305 C-714 372 -714 372 -716 375 C-719.5 375.375 -719.5 375.375 -723 375 C-725.1841175 371.72382375 -725.21965972 371.44145417 -724.63793945 367.82299805 C-724.44701973 366.57278618 -724.44701973 366.57278618 -724.25224304 365.2973175 C-724.10326065 364.39869492 -723.95427826 363.50007233 -723.80078125 362.57421875 C-723.50421038 360.65551491 -723.20816156 358.73673031 -722.91259766 356.81787109 C-722.75857483 355.84315857 -722.604552 354.86844604 -722.44586182 353.86419678 C-721.78363475 349.61007909 -721.19178433 345.34716611 -720.60546875 341.08203125 C-720.49139679 340.25909073 -720.37732483 339.43615021 -720.25979614 338.58827209 C-719.90086197 335.99655301 -719.5440024 333.40455463 -719.1875 330.8125 C-719.06060791 329.89344879 -718.93371582 328.97439758 -718.80297852 328.02749634 C-717.24884892 316.73662946 -715.78951442 305.44014574 -714.48828125 294.1171875 C-714.36527145 293.04706924 -714.24226166 291.97695099 -714.11552429 290.87440491 C-713.99272598 289.80572678 -713.86992767 288.73704865 -713.7434082 287.63598633 C-707.43253176 232.76283531 -695.87809539 172.87809539 -655 132 C-651.375 132.375 -651.375 132.375 -648 133 C-647.1328125 135.46875 -647.1328125 135.46875 -647 139 C-648.57853282 142.11663032 -650.71998141 144.76145248 -652.875 147.5 C-654.08860547 149.1099715 -655.299526 150.72197027 -656.5078125 152.3359375 C-657.10625977 153.12838867 -657.70470703 153.92083984 -658.32128906 154.73730469 C-662.19453035 159.95795627 -665.61779193 165.45367913 -669 171 C-669.36013184 171.5779834 -669.72026367 172.1559668 -670.09130859 172.75146484 C-689.0442498 203.3985963 -701.20985129 244.85233255 -701 281 C-700.72961914 280.2378418 -700.45923828 279.47568359 -700.18066406 278.69042969 C-667.16559804 186.0655965 -667.16559804 186.0655965 -635.9921875 153.1171875 C-634.15616284 151.1659613 -632.49421513 149.14581874 -630.8125 147.0625 C-621.80632469 136.81123132 -606.69798884 124.88832648 -592.70703125 123.7265625 C-579.56884285 123.38394174 -579.56884285 123.38394174 -574.58203125 127.2734375 C-567.26985426 135.25364054 -566.72519326 144.73594179 -567.1171875 155.09765625 C-568.69603898 170.94393392 -575.21789352 186.73431046 -582 201 C-570.48136222 199.41531179 -570.48136222 199.41531179 -561.5625 192.875 C-561.046875 191.92625 -560.53125 190.9775 -560 190 C-559.67 189.67 -559.34 189.34 -559 189 C-556.66055264 189.28730055 -554.3260857 189.61936779 -552 190 C-550.70216553 195.04880114 -551.28341276 197.43015717 -553.8125 201.9375 C-558.84032848 211.46820968 -560.94885291 220.94785323 -558.34765625 231.6953125 C-555.87010962 237.96892844 -551.88152941 242.03037634 -545.8984375 245.06640625 C-539.37911048 247.63497502 -533.07181867 247.70753686 -526.578125 244.984375 C-512.9263109 237.74616484 -507.99543038 227.10214418 -503 213 C-504.00417969 212.79246094 -505.00835938 212.58492187 -506.04296875 212.37109375 C-519.85919272 209.33611007 -531.93353935 204.39671728 -541 193 C-544.88979311 186.86734568 -546.48197035 181.22955531 -546 174 C-544.04613751 166.44314949 -540.3401036 161.49978232 -533.6875 157.3125 C-532.78386719 156.73113281 -531.88023437 156.14976562 -530.94921875 155.55078125 C-522.6965766 151.21131246 -512.5013495 150.32965328 -503.4609375 152.65234375 C-497.29123822 155.42751737 -492.95011527 160.52865188 -490.1875 166.625 C-488.60561089 171.12089536 -487.87372025 175.14667647 -487.8671875 179.90625 C-487.86589844 180.81503906 -487.86460937 181.72382812 -487.86328125 182.66015625 C-487.86714844 183.59730469 -487.87101563 184.53445313 -487.875 185.5 C-487.87113281 186.43714844 -487.86726562 187.37429688 -487.86328125 188.33984375 C-487.86521484 189.70302734 -487.86521484 189.70302734 -487.8671875 191.09375 C-487.86831543 191.91552734 -487.86944336 192.73730469 -487.87060547 193.58398438 C-488.00728773 196.13607433 -488.44156569 198.50895043 -489 201 C-470.39515418 196.23786935 -457.82428974 185.8350299 -447.97265625 169.54296875 C-445.58939157 165.40313714 -443.74465517 161.09220881 -442.0703125 156.62109375 C-440.80925812 153.53289123 -439.3870728 150.3870728 -437 148 C-434.5625 147.8125 -434.5625 147.8125 -432 148 C-430 150 -430 150 -429.61328125 152.87109375 C-429.78541379 158.56617965 -432.18983799 163.80187204 -434.1875 169.0625 C-435.01310036 171.29163721 -435.83862165 173.52080371 -436.6640625 175.75 C-437.0652832 176.82121094 -437.46650391 177.89242187 -437.87988281 178.99609375 C-439.31255702 182.83820872 -440.69482459 186.69687764 -442.0625 190.5625 C-442.44535156 191.63628906 -442.82820313 192.71007812 -443.22265625 193.81640625 C-443.47917969 194.53699219 -443.73570312 195.25757813 -444 196 C-443.25556641 194.45892578 -443.25556641 194.45892578 -442.49609375 192.88671875 C-426.47980391 160.05948316 -426.47980391 160.05948316 -412 154 C-403.8336814 151.45417477 -396.33163266 151.36006538 -388.5859375 155.1953125 C-382.17063694 159.12173391 -377.97154134 164.05691731 -374.625 170.75 C-373.06470734 178.86352182 -373.86510554 186.00895007 -376 193.9375 C-377.76818942 200.67360678 -378.44114926 207.09910825 -378.5 214.0625 C-378.51804687 214.93060303 -378.53609375 215.79870605 -378.5546875 216.69311523 C-378.50004219 222.59082401 -377.29367481 227.06401829 -374 232 C-371.05340382 234.77326699 -368.36499793 235.26715216 -364.4375 235.5625 C-355.60203551 235.27281264 -347.3513861 230.17677651 -341.046875 224.2109375 C-325.98394023 207.94066827 -315.27510734 188.48480906 -305 169 C-304.43345703 167.92862793 -303.86691406 166.85725586 -303.28320312 165.75341797 C-296.64243181 153.16346948 -290.20541813 140.50066766 -284.11083984 127.63745117 C-275.38667665 109.23516828 -266.277706 91.15712459 -255.89526367 73.62866211 C-254.91971467 72.16369574 -254.91971467 72.16369574 -255 71 C-284.32615206 71.62624275 -328.39852157 73.39852157 -351 96 C-354.5 96.125 -354.5 96.125 -358 96 C-359 95 -359 95 -359.6875 91.875 C-358.90246484 87.45025636 -358.46916205 87.09028139 -355 84.5625 C-353.02773276 83.32948817 -351.02389588 82.14629913 -349 81 C-348.43716309 80.6788623 -347.87432617 80.35772461 -347.29443359 80.02685547 C-322.07290258 65.8859423 -292.32079591 59.78368947 -263.5546875 60.01171875 C-252.90400917 60.51101751 -252.90400917 60.51101751 -243.16796875 57.171875 C-241.24790035 54.78058779 -241.24790035 54.78058779 -239.77734375 52.04296875 C-237.4868619 48.12146246 -234.59320957 45.23469047 -231.375 42.0625 C-230.83528564 41.50723633 -230.29557129 40.95197266 -229.73950195 40.37988281 C-226.45624983 37.08907372 -223.41308647 34.69829451 -219 33 C-216.125 33.8125 -216.125 33.8125 -214 35 C-213.26932247 40.96471452 -213.26932247 40.96471452 -215.12207031 43.58984375 C-216.72689572 45.15421137 -218.38610843 46.58620555 -220.125 48 C-221.27710041 48.97485419 -222.42554723 49.95404256 -223.5703125 50.9375 C-224.1365332 51.42347656 -224.70275391 51.90945313 -225.28613281 52.41015625 C-228.12400087 55.04266291 -230.5649733 57.99757765 -233 61 C-231.90429688 61.04898438 -230.80859375 61.09796875 -229.6796875 61.1484375 C-228.0780924 61.22326386 -226.47653323 61.29886103 -224.875 61.375 C-223.98973633 61.41681396 -223.10447266 61.45862793 -222.19238281 61.50170898 C-216.82740257 61.76849863 -211.4732513 62.10229533 -206.1171875 62.51171875 C-142.55007737 67.32423579 -94.43515731 55.6382353 -39.44970703 22.47460938 C-37.36963044 21.22250028 -35.2806899 19.98888327 -33.18359375 18.765625 C-24.82941045 13.80436768 -17.16368999 8.02671138 -9.48950195 2.08813477 C-6.30147639 -0.24083261 -3.90239354 -0.2438996 0 0 Z M-175.59375 145.55078125 C-178.96593248 149.02600264 -180.93371624 152.27662215 -181.125 157.25 C-180.20605756 160.18566557 -180.20605756 160.18566557 -177.5 161.8125 C-166.07988667 165.68718131 -154.36753111 163.18290871 -143 160 C-142.6778923 153.96346301 -142.43193076 149.16754855 -146 144 C-153.92042474 135.85956346 -167.41169799 138.87278292 -175.59375 145.55078125 Z M-533 171 C-533.66 171.66 -534.32 172.32 -535 173 C-536.51382702 176.95923989 -535.8162579 180.02568998 -534.1875 183.88671875 C-529.15289147 192.84633459 -520.06424231 197.57930412 -510.62890625 200.8125 C-507.0646215 201.78274008 -503.68691896 202.23043244 -500 202 C-498.4185747 196.39885622 -497.64186013 191.37529916 -497.6875 185.5625 C-497.69241455 184.81967773 -497.6973291 184.07685547 -497.70239258 183.31152344 C-497.85617769 176.10964833 -498.80101824 170.63877812 -503.5 165 C-512.62449392 157.70040487 -526.22109208 162.95004685 -533 171 Z M-446 198 C-445 200 -445 200 -445 200 Z M-447 200 C-446 203 -446 203 -446 203 Z M-448 203 C-447 205 -447 205 -447 205 Z M-58 204 C-91.51475123 224.27333444 -91.51475123 224.27333444 -112.625 255.125 C-113.35315223 260.27933603 -112.59150208 264.47570539 -110 269 C-105.8700014 274.09848884 -100.42386498 276.90836281 -94 278 C-84.11863696 278.36824955 -77.72731653 274.7014484 -70.4375 268.375 C-60.43279542 258.90996828 -52.87911998 247.02502928 -51.76171875 233.01171875 C-51.55019519 223.5376898 -52.99822207 214.983423 -56 206 C-56.66 205.34 -57.32 204.68 -58 204 Z M-449 206 C-448 208 -448 208 -448 208 Z M-451 211 C-450 213 -450 213 -450 213 Z M-452 214 C-451 216 -451 216 -451 216 Z M-631 232 C-639.73879707 240.86730963 -639.73879707 240.86730963 -644 252 C-628.63360675 248.10272635 -613.71201257 234.72942156 -605.39453125 221.43359375 C-604.20874772 219.31114088 -603.07266771 217.18143482 -602 215 C-611.70580409 215 -624.57447718 225.68631381 -631 232 Z M-703 284 C-702 287 -702 287 -702 287 Z " fill="#6F7F6F" transform="translate(1025,581)"/>
<path d="M0 0 C2.125 1.5625 2.125 1.5625 3.1875 3.875 C3.09798373 7.72419941 1.81278963 8.80915452 -0.875 11.5625 C-2.07647768 12.61206671 -3.2855963 13.65291673 -4.5 14.6875 C-10.5757391 19.87243524 -16.43836592 25.90754888 -20.875 32.5625 C-12.82302434 33.20619241 -4.77042139 33.84118929 3.28300476 34.46644497 C7.0265568 34.75733445 10.76987054 35.05071669 14.51269531 35.35083008 C78.58485958 40.48046929 141.77865142 39.13465735 197.34594727 1.52270508 C200.33797288 -0.09217577 202.84679731 0.03798757 206.125 0.5625 C208.125 3.5625 208.125 3.5625 207.99658203 6.06396484 C206.92519743 9.13526738 205.92506815 9.85594363 203.1796875 11.5390625 C201.95523926 12.29558105 201.95523926 12.29558105 200.70605469 13.06738281 C138.54259971 49.07655783 78.25419638 51.36106124 8.60476685 46.0675354 C5.52836163 45.83419956 2.45173657 45.60392258 -0.625 45.375 C-1.72859863 45.29282227 -2.83219727 45.21064453 -3.96923828 45.12597656 C-12.29351263 44.5360775 -20.53347949 44.37845375 -28.875 44.5625 C-37.46330537 59.12918093 -45.33738223 73.98514722 -52.87646484 89.11938477 C-54.62738621 92.62978408 -56.39321429 96.13240805 -58.16015625 99.63476562 C-77.98916916 136.61684288 -77.98916916 136.61684288 -80.63671875 177.2890625 C-79.13984426 181.75665713 -77.17396309 184.62075176 -73.375 187.375 C-64.12185335 191.77024466 -53.36612356 190.04268746 -44.015625 186.82421875 C-19.05549399 176.79670343 -7.84567926 150.69823483 2.1640625 127.25 C3.29334159 124.56737931 3.29334159 124.56737931 3.125 121.5625 C2.54492188 121.30597656 1.96484375 121.04945313 1.3671875 120.78515625 C-5.0457626 117.64217576 -8.67054763 113.95996026 -11.875 107.5625 C-14.48930251 99.65543782 -13.40984644 91.18060847 -10.0078125 83.74609375 C-6.83820458 77.63640125 -3.15376516 72.70188258 3.125 69.5625 C7.77548294 68.99514108 11.22230577 69.1026369 15.4375 71.25 C20.39370515 75.51464164 23.6027469 79.71431924 24.49609375 86.296875 C24.71109083 96.06027161 22.19417204 104.40979053 19.125 113.5625 C35.62233451 109.85290383 51.64081446 104.83723901 66.65795898 96.96386719 C69.59141953 95.4768898 71.6499837 94.53643601 74.97265625 94.71875 C77.125 95.5625 77.125 95.5625 79.125 97.5625 C78.88875236 102.42920142 77.42590251 104.85928247 74.3125 108.5 C61.31744971 125.21683269 50.82106191 146.38242705 51.65234375 167.953125 C52.4677922 174.18018592 54.13451703 179.09340384 59.07421875 183.171875 C61.37053175 184.57357414 63.6174273 185.59106239 66.125 186.5625 C66.89199219 186.87960937 67.65898438 187.19671875 68.44921875 187.5234375 C83.09585733 192.53594489 100.26707149 190.49404606 114.109375 184.20703125 C116.87926663 182.78000144 119.49367614 181.22967466 122.125 179.5625 C123.02089844 179.03785156 123.91679688 178.51320313 124.83984375 177.97265625 C127.35399812 176.32625316 129.26823278 174.92777885 131.125 172.5625 C131.66989005 169.02071465 130.97732573 166.01029506 130.125 162.5625 C126.41137974 138.63028053 130.49067059 111.53953786 144.59375 91.47265625 C148.97100133 85.96616721 153.68686267 82.7408734 160.6875 81.625 C164.94011832 81.3352134 167.62033489 81.97572337 171.125 84.5625 C177.70592059 95.22812992 175.78532772 109.00271013 173.15625 120.6875 C168.41803703 139.11388378 160.18951448 157.31422742 147.3359375 171.54296875 C145.90627535 173.51814231 145.90627535 173.51814231 146.1875 175.99609375 C148.31247055 181.81320064 153.32381493 186.80201708 158.51171875 190.0625 C181.01338404 200.45376139 213.57657755 188.84098303 235.2890625 181.140625 C269.58011105 168.47659619 302.17178891 150.44372027 332.125 129.5625 C332.8684668 129.04461914 333.61193359 128.52673828 334.37792969 127.99316406 C342.60197998 122.70774817 342.60197998 122.70774817 350.125 116.5625 C353.0625 116.375 353.0625 116.375 356.125 116.5625 C358.125 118.5625 358.125 118.5625 358.51098633 121.44897461 C358.125 124.5625 358.125 124.5625 356.40112305 126.58422852 C355.59199463 127.17647217 354.78286621 127.76871582 353.94921875 128.37890625 C353.03317871 129.05711426 352.11713867 129.73532227 351.17333984 130.43408203 C349.66441162 131.48764893 349.66441162 131.48764893 348.125 132.5625 C347.09713379 133.28163574 346.06926758 134.00077148 345.01025391 134.74169922 C341.67487018 137.0297815 338.3138138 139.27308088 334.9375 141.5 C334.34139923 141.89501709 333.74529846 142.29003418 333.13113403 142.69702148 C324.27182667 148.56633302 315.3768252 154.32552388 306.125 159.5625 C305.43712402 159.95308594 304.74924805 160.34367188 304.04052734 160.74609375 C299.49156877 163.31972794 294.92012611 165.84940895 290.33203125 168.35253906 C288.27613895 169.47964108 286.23128639 170.62458182 284.1875 171.7734375 C251.38905836 189.96151503 200.90729944 213.00056812 162.1875 203.375 C150.87324509 199.71649841 143.20790571 193.00637429 136.125 183.5625 C135.28582031 184.19865234 135.28582031 184.19865234 134.4296875 184.84765625 C119.65104077 195.65840265 105.47317866 201.13362067 87.125 200.9375 C86.03960938 200.94910156 84.95421875 200.96070313 83.8359375 200.97265625 C72.55516554 200.93227162 62.62455819 198.76469089 53.125 192.5625 C52.238125 192.005625 51.35125 191.44875 50.4375 190.875 C43.00023549 183.43773549 40.19175895 174.70783225 39.8125 164.4375 C40.24436444 146.19757815 47.87465476 130.40413923 56.125 114.5625 C54.98804688 114.96082031 53.85109375 115.35914063 52.6796875 115.76953125 C40.26342283 120.05505369 28.23246258 123.23100072 15.125 124.5625 C14.68671875 125.66722656 14.2484375 126.77195312 13.796875 127.91015625 C3.51119319 153.34157385 -8.72182716 183.10572866 -34.875 195.5625 C-47.47104736 200.88590956 -62.45299048 203.73097041 -75.6875 198.875 C-84.57358185 194.39345785 -88.27630917 188.7939243 -91.875 179.5625 C-92.80274966 175.91335135 -93.44805231 172.30197289 -93.875 168.5625 C-94.85726562 170.05136719 -94.85726562 170.05136719 -95.859375 171.5703125 C-107.26556132 188.64257951 -119.56337373 205.79195791 -139.875 212.5625 C-151.16156269 213.25583366 -161.44530639 213.70625489 -170.6875 206.3125 C-178.91181917 195.9733559 -180.82095588 186.74855171 -179.875 173.5625 C-178.88091364 165.94498002 -177.16658422 158.50808122 -175.0625 151.125 C-173.70543288 145.84033652 -173.57228326 141.58941289 -175.875 136.5625 C-179.06100911 132.73928907 -181.08699161 130.73779494 -186.0625 130.25 C-194.18451086 130.91573859 -198.53182676 135.76840677 -203.625 141.6875 C-207.54370541 146.69473469 -210.76570529 152.02778155 -213.875 157.5625 C-214.23110352 158.18576172 -214.58720703 158.80902344 -214.95410156 159.45117188 C-222.15469648 172.16403325 -227.9434577 185.49848621 -233.69750977 198.90893555 C-234.01012253 199.63212982 -234.32273529 200.3553241 -234.64482117 201.10043335 C-235.23180685 202.45947123 -235.81397172 203.82060632 -236.39021301 205.18423462 C-238.1690996 209.29528919 -240.10344962 213.03254352 -242.875 216.5625 C-246.5 217.0625 -246.5 217.0625 -249.875 216.5625 C-253.3603075 213.0771925 -252.86231473 208.36167196 -252.9375 203.625 C-252.916875 202.614375 -252.89625 201.60375 -252.875 200.5625 C-253.42285156 201.0471875 -253.97070312 201.531875 -254.53515625 202.03125 C-270.27420923 215.33906715 -288.02223018 222.1817762 -308.75439453 220.78125 C-317.96533609 219.83109992 -324.84401873 215.46043483 -330.875 208.5625 C-332.59752761 205.99338922 -333.85377608 203.47801491 -334.875 200.5625 C-335.22949219 199.55058594 -335.58398438 198.53867187 -335.94921875 197.49609375 C-342.52587012 173.74129209 -332.3121768 147.44042561 -320.890625 126.94921875 C-318.23371552 122.48499294 -315.25035586 118.49915099 -311.875 114.5625 C-311.10671875 113.58667969 -310.3384375 112.61085938 -309.546875 111.60546875 C-301.08572855 101.47847946 -288.57294007 96.21353791 -275.75 94.625 C-269.0629102 94.29283083 -263.03466508 94.90111234 -257.76953125 99.3359375 C-251.68914814 105.88018488 -250.4445823 111.68713197 -250.62890625 120.48046875 C-251.90435831 136.45398741 -262.14619294 148.70154263 -273.5859375 159.00390625 C-288.43842088 170.96493979 -307.80576776 178.66512437 -326.875 179.5625 C-325.72180701 193.82573389 -325.72180701 193.82573389 -318.0625 205.4375 C-310.38144779 210.55820147 -301.92095423 210.32654916 -293.03125 209.203125 C-276.43393544 205.82894567 -259.68694573 195.02034154 -249.9453125 181.2734375 C-245.89140208 174.53172894 -244.15023509 166.69821014 -241.97216797 159.20703125 C-239.93154821 152.42857737 -237.67858186 145.71919901 -235.43814087 139.00463867 C-234.63638425 136.59669077 -233.84251323 134.18624986 -233.04956055 131.77539062 C-232.54902893 130.26680641 -232.04814875 128.75833778 -231.546875 127.25 C-231.20971214 126.21993835 -231.20971214 126.21993835 -230.86573792 125.16906738 C-229.50700037 121.11180599 -228.08729501 117.23438199 -225.875 113.5625 C-222.3125 112.5625 -222.3125 112.5625 -218.875 112.5625 C-218.215 113.2225 -217.555 113.8825 -216.875 114.5625 C-217.09364098 122.07168691 -219.3903272 128.35356977 -222.0625 135.3125 C-226.26941529 146.58844678 -229.75924487 157.94256617 -232.875 169.5625 C-232.3903125 168.55832031 -231.905625 167.55414062 -231.40625 166.51953125 C-222.947095 149.17911623 -213.51415002 131.12039805 -196.6875 120.5625 C-189.9567312 118.79705245 -182.74982238 118.04915735 -176.14453125 120.62890625 C-169.59180394 124.65713225 -166.21581168 129.98700219 -163.5625 137.0625 C-162.00623251 144.98531633 -163.37721086 151.55214595 -165.3125 159.25 C-169.60661837 175.93735877 -169.60661837 175.93735877 -166.875 192.5625 C-164.55857562 196.2988997 -162.11291528 198.88459401 -158.25 201 C-146.36769794 202.98038368 -138.48469889 200.80387424 -128.578125 193.98046875 C-97.25624474 168.66004365 -79.67679364 119.33110343 -63.00317383 84.10913086 C-56.45495116 70.36885547 -49.54194098 56.71638428 -41.875 43.5625 C-78.25715467 47.0221096 -118.48391168 51.68124821 -148.0078125 75.0703125 C-150.875 76.5625 -150.875 76.5625 -154.2421875 75.8046875 C-155.11101562 75.39476562 -155.97984375 74.98484375 -156.875 74.5625 C-157.47951569 71.66082471 -157.71543662 70.34119357 -156.875 67.5625 C-153.92163935 64.35687313 -150.47728097 61.9921764 -146.875 59.5625 C-145.70517578 58.75619141 -145.70517578 58.75619141 -144.51171875 57.93359375 C-119.20586183 41.64427745 -78.77457031 32.91059122 -48.94921875 33.65234375 C-39.84212011 34.04871847 -39.84212011 34.04871847 -31.9921875 30.18359375 C-29.71674027 27.07963001 -27.81068527 23.88648413 -25.875 20.5625 C-23.02017639 17.09173842 -19.95724335 13.83171767 -16.875 10.5625 C-16.25625 9.89089844 -15.6375 9.21929687 -15 8.52734375 C-6.01800258 -0.915783 -6.01800258 -0.915783 0 0 Z M4.625 80.8125 C0.46463554 85.66625853 -2.76841968 90.32060319 -2.93359375 96.89453125 C-2.58144206 101.41256244 -1.82002515 104.98639803 1.125 108.5625 C3.51556942 110.4979148 3.51556942 110.4979148 6.125 111.5625 C7.115 111.2325 8.105 110.9025 9.125 110.5625 C10.18374795 107.83659682 11.03597204 105.24332307 11.8125 102.4375 C12.14991211 101.31601562 12.14991211 101.31601562 12.49414062 100.171875 C14.09773495 94.57635437 15.4152004 89.20154627 12.75 83.75 C11.16503788 81.50523063 11.16503788 81.50523063 9.125 79.5625 C6.18368357 79.2424078 6.18368357 79.2424078 4.625 80.8125 Z M154.125 96.5625 C141.31812433 112.32689569 137.82890215 135.70850142 139.4375 155.5 C139.79368265 158.94788503 139.79368265 158.94788503 142.125 161.5625 C154.91687657 142.87806917 166.25231914 120.86042881 165.125 97.5625 C164.24285113 94.68035113 164.24285113 94.68035113 163.125 92.5625 C158.35402813 92.5625 157.52382399 93.39492511 154.125 96.5625 Z M-297.875 115.5625 C-298.54273438 116.14902344 -299.21046875 116.73554688 -299.8984375 117.33984375 C-311.79357202 128.482987 -324.26432993 149.66512969 -325.00390625 166.49609375 C-324.96136719 167.17800781 -324.91882813 167.85992188 -324.875 168.5625 C-304.76488216 167.92408356 -285.78222291 157.06351521 -272.125 142.8125 C-265.14410108 134.73000532 -260.0957613 125.50726178 -260.875 114.5625 C-262.35103705 110.21207502 -264.00864702 107.96868776 -267.875 105.5625 C-279.14108462 103.53570034 -289.59102605 108.21601282 -297.875 115.5625 Z M-234.875 171.5625 C-233.875 173.5625 -233.875 173.5625 -233.875 173.5625 Z " fill="#6F7F6F" transform="translate(687.875,386.4375)"/>
<path d="M0 0 C2.15737845 1.19597985 3.78255832 2.26511103 5.44140625 4.08984375 C6.06640625 7.27734375 6.06640625 7.27734375 5.44140625 10.08984375 C3.44140625 12.08984375 3.44140625 12.08984375 0.56640625 12.33984375 C-2.55859375 12.08984375 -2.55859375 12.08984375 -4.49609375 11.02734375 C-7.85734403 9.49950271 -10.04359234 10.13662303 -13.55859375 11.08984375 C-20.69891599 14.94165937 -23.18807389 21.69122904 -25.55859375 29.08984375 C-29.77849218 43.66168053 -27.61668987 60.16313067 -26.55859375 75.08984375 C-14.59007293 71.43279572 -3.55339269 67.06712985 7.44140625 61.08984375 C8.36179687 60.59846924 8.36179687 60.59846924 9.30078125 60.09716797 C17.92728672 55.47286336 25.7567545 50.14852385 33.44140625 44.08984375 C34.70393118 43.10743529 35.96697541 42.12569392 37.23046875 41.14453125 C43.54961551 36.36206102 43.54961551 36.36206102 49.44140625 31.08984375 C52.44140625 30.83984375 52.44140625 30.83984375 55.44140625 31.08984375 C57.44140625 33.08984375 57.44140625 33.08984375 57.8046875 35.96484375 C57.23403477 40.87368442 54.52744367 42.33639594 50.87109375 45.40234375 C49.73212943 46.3035932 48.58843265 47.19887757 47.44140625 48.08984375 C46.74950195 48.62738281 46.05759766 49.16492188 45.34472656 49.71875 C-1.94990038 86.08984375 -1.94990038 86.08984375 -26.55859375 86.08984375 C-26.6565625 87.11722656 -26.75453125 88.14460937 -26.85546875 89.203125 C-28.10777604 101.23546816 -30.28472749 112.70400002 -38.55859375 122.08984375 C-43.74126724 126.20057908 -48.62577633 128.4789236 -55.3671875 128.3671875 C-60.84388443 127.6740583 -64.60131375 125.29258015 -67.99609375 121.02734375 C-70.84131578 115.67832634 -71.29420502 111.05083163 -70.55859375 105.08984375 C-66.88610643 94.13825599 -59.56858176 86.99173182 -49.6484375 81.5 C-45.3757407 79.55000816 -41.21217858 78.59432529 -36.55859375 78.08984375 C-36.88859375 77.09984375 -37.21859375 76.10984375 -37.55859375 75.08984375 C-37.77316874 73.31911522 -37.94643604 71.54321341 -38.09375 69.765625 C-38.18076172 68.73759766 -38.26777344 67.70957031 -38.35742188 66.65039062 C-38.44443359 65.57853516 -38.53144531 64.50667969 -38.62109375 63.40234375 C-38.75741211 61.7771582 -38.75741211 61.7771582 -38.89648438 60.11914062 C-39.12048148 57.44296468 -39.34104995 54.76655074 -39.55859375 52.08984375 C-40.22366943 52.5187793 -40.88874512 52.94771484 -41.57397461 53.38964844 C-46.02268235 56.24160841 -49.64100455 58.24002744 -54.87109375 59.15234375 C-57.40986344 59.68848879 -57.40986344 59.68848879 -59.55859375 61.08984375 C-61.32716517 64.24674374 -62.39677475 67.3574969 -63.5 70.80078125 C-66.43169401 79.90958699 -72.7066362 86.72425911 -80.9765625 91.48046875 C-88.86928461 95.04411434 -96.62931345 95.39009186 -104.80859375 92.52734375 C-111.8844546 89.31512755 -117.02940518 84.1329187 -119.8984375 76.8671875 C-122.49498857 65.94323598 -120.98416864 54.86158502 -115.4375 45.12109375 C-114.2762108 43.31747976 -113.07997157 41.61122157 -111.55859375 40.08984375 C-109.21914639 40.3771443 -106.88467945 40.70921154 -104.55859375 41.08984375 C-103.46097027 44.29828161 -103.28311818 46.41338638 -104.5703125 49.57421875 C-105.4636981 51.30467337 -106.38356159 53.02176933 -107.33203125 54.72265625 C-110.0229051 59.91587138 -110.18773804 65.33893328 -109.55859375 71.08984375 C-107.803971 76.39381768 -104.48863373 79.57649003 -99.55859375 82.08984375 C-93.74766245 83.70399133 -89.72346965 82.90435547 -84.55859375 80.08984375 C-76.39457201 75.09303195 -73.70687259 67.68798407 -70.55859375 59.08984375 C-71.83734375 58.86296875 -73.11609375 58.63609375 -74.43359375 58.40234375 C-85.82571956 55.79536825 -93.844029 49.66166128 -100.62109375 40.21484375 C-102.21547904 34.90022613 -102.83659378 29.25526048 -100.71484375 24 C-96.97450236 18.22521617 -91.10145451 14.62836919 -84.55859375 12.77734375 C-77.61788435 11.36475319 -71.93312198 11.60189434 -65.55859375 15.08984375 C-60.31256219 19.50127938 -57.58457383 24.34635648 -56.55859375 31.08984375 C-56.46569853 33.83025285 -56.41872147 36.53836581 -56.43359375 39.27734375 C-56.42972656 40.00115234 -56.42585937 40.72496094 -56.421875 41.47070312 C-56.43185764 46.83637153 -56.43185764 46.83637153 -57.55859375 49.08984375 C-47.6939597 44.54105228 -41.66140737 39.88562501 -37.7890625 29.56640625 C-36.88768835 27.08665916 -36.02131661 24.60623244 -35.21777344 22.09301758 C-32.35078587 13.42721902 -27.17724719 6.25670591 -19.55859375 1.08984375 C-13.46840853 -1.85408299 -6.40276798 -2.27762586 0 0 Z M-87.99609375 25.83984375 C-90.69541314 27.91200203 -90.69541314 27.91200203 -91.87109375 30.83984375 C-91.37393514 36.01029328 -88.30299844 38.69538342 -84.55859375 42.08984375 C-79.32046734 46.29092695 -74.1507866 48.06744347 -67.55859375 49.08984375 C-65.91811061 41.74735875 -65.36101092 33.72255522 -68.45703125 26.69140625 C-73.54998752 19.28675351 -81.62935076 22.59859277 -87.99609375 25.83984375 Z M-53.765625 97.09375 C-57.95905243 101.74624738 -60.65595735 105.26629928 -60.43359375 111.71484375 C-59.82387318 115.06789248 -59.82387318 115.06789248 -57.87109375 117.08984375 C-54.60342366 118.50289027 -52.93005388 118.19072869 -49.55859375 117.08984375 C-46.80859375 114.83984375 -46.80859375 114.83984375 -44.55859375 112.08984375 C-44.02234375 111.51234375 -43.48609375 110.93484375 -42.93359375 110.33984375 C-38.94333816 103.8103346 -38.01346385 96.60304297 -37.55859375 89.08984375 C-43.57729258 89.08984375 -49.40680823 93.13609866 -53.765625 97.09375 Z " fill="#6F7F6F" transform="translate(602.55859375,602.91015625)"/>
<path d="M0 0 C2.4375 1.6875 2.4375 1.6875 4.4375 4.6875 C5.10600523 10.07440845 5.58605466 15.78165854 2.4375 20.4375 C1.4475 21.55125 1.4475 21.55125 0.4375 22.6875 C1.4275 23.0175 2.4175 23.3475 3.4375 23.6875 C6.48494375 28.18222473 5.93909968 33.48629713 5.4375 38.6875 C3.66091957 43.04012204 2.77369015 43.51940492 -1.5625 45.6875 C-6.8425 45.6875 -12.1225 45.6875 -17.5625 45.6875 C-17.5625 30.5075 -17.5625 15.3275 -17.5625 -0.3125 C-11.81719711 -2.22760096 -5.65913455 -2.08494431 0 0 Z M-12.5625 3.6875 C-12.5625 8.9675 -12.5625 14.2475 -12.5625 19.6875 C-5.3072414 20.26472166 -5.3072414 20.26472166 -2.08984375 18.5 C-0.08908197 16.12569446 -0.05631508 14.76458428 -0.125 11.6875 C-0.12628906 10.82125 -0.12757813 9.955 -0.12890625 9.0625 C-0.40035138 6.66143412 -0.40035138 6.66143412 -1.796875 4.88671875 C-4.0889468 3.32993547 -5.50509502 3.38065631 -8.25 3.5 C-9.673125 3.561875 -11.09625 3.62375 -12.5625 3.6875 Z M-12.5625 23.6875 C-12.5625 29.6275 -12.5625 35.5675 -12.5625 41.6875 C-5.68365995 41.88984184 -5.68365995 41.88984184 -0.5625 38.6875 C1.05338379 35.45573243 1.01201407 32.18134717 0.4375 28.6875 C-1.39583333 25.52083333 -1.39583333 25.52083333 -4.5625 23.6875 C-7.2025 23.6875 -9.8425 23.6875 -12.5625 23.6875 Z " fill="#6F7F6F" transform="translate(501.5625,891.3125)"/>
<path d="M0 0 C3.1627423 1.88418691 3.7221325 2.4162583 4.9375 5.75 C5.23828125 8.80859375 5.23828125 8.80859375 5.25 12.1875 C5.27513672 13.85619141 5.27513672 13.85619141 5.30078125 15.55859375 C4.7811235 20.12375917 3.27012183 22.64582762 -0.25 25.5625 C-0.848125 25.954375 -1.44625 26.34625 -2.0625 26.75 C-1.19625 28.43029297 -1.19625 28.43029297 -0.3125 30.14453125 C0.43781605 31.6170265 1.18779875 33.08969164 1.9375 34.5625 C2.3190625 35.30048828 2.700625 36.03847656 3.09375 36.79882812 C3.4546875 37.51103516 3.815625 38.22324219 4.1875 38.95703125 C4.52265625 39.6116333 4.8578125 40.26623535 5.203125 40.94067383 C5.9375 42.75 5.9375 42.75 5.9375 45.75 C4.2875 45.75 2.6375 45.75 0.9375 45.75 C0.69104736 45.20996338 0.44459473 44.66992676 0.19067383 44.11352539 C-0.93723577 41.6705548 -2.09307654 39.24185592 -3.25 36.8125 C-3.83104492 35.53729492 -3.83104492 35.53729492 -4.42382812 34.23632812 C-4.81376953 33.42744141 -5.20371094 32.61855469 -5.60546875 31.78515625 C-6.1317688 30.66185913 -6.1317688 30.66185913 -6.66870117 29.51586914 C-8.22136247 27.15645369 -8.22136247 27.15645369 -13.0625 26.75 C-13.0625 33.02 -13.0625 39.29 -13.0625 45.75 C-14.7125 45.75 -16.3625 45.75 -18.0625 45.75 C-18.0625 30.57 -18.0625 15.39 -18.0625 -0.25 C-12.37621342 -2.14542886 -5.63263501 -2.18190493 0 0 Z M-13.0625 3.75 C-13.0625 9.69 -13.0625 15.63 -13.0625 21.75 C-4.89955748 22.45922656 -4.89955748 22.45922656 -1.5 20.375 C0.75731342 16.2529494 0.66108826 12.33526458 -0.0625 7.75 C-1.29327315 4.93573025 -1.29327315 4.93573025 -4.0625 3.75 C-7.0325 3.75 -10.0025 3.75 -13.0625 3.75 Z " fill="#6F7F6F" transform="translate(605.0625,891.25)"/>
<path d="M0 0 C1.40378906 -0.02126953 1.40378906 -0.02126953 2.8359375 -0.04296875 C7.14233122 0.31288171 9.6588944 1.22517912 12.74389648 4.2980957 C15.04950495 7.83954622 15.18860126 10.63041552 15.12109375 14.71875 C15.12254898 15.43228638 15.12400421 16.14582275 15.12550354 16.88098145 C15.12384973 18.38374939 15.11234641 19.88653517 15.09155273 21.38916016 C15.06258533 23.68074978 15.070955 25.97002446 15.08398438 28.26171875 C15.07774631 29.72657367 15.06935482 31.19142133 15.05859375 32.65625 C15.06152939 33.33659302 15.06446503 34.01693604 15.06748962 34.71789551 C14.98254911 39.03161907 14.21286705 41.72967765 11.625 45.1875 C8.13438863 47.84739379 4.14128519 47.45099612 -0.0625 47.375 C-1.09600586 47.3740332 -1.09600586 47.3740332 -2.15039062 47.37304688 C-7.23444475 47.32805525 -7.23444475 47.32805525 -8.375 46.1875 C-8.4678726 44.77524954 -8.49246772 43.35841066 -8.48852539 41.94311523 C-8.48844986 41.04225693 -8.48837433 40.14139862 -8.48829651 39.21324158 C-8.48313522 38.23408279 -8.47797394 37.25492401 -8.47265625 36.24609375 C-8.4712413 35.24868668 -8.46982635 34.2512796 -8.46836853 33.22364807 C-8.46275114 30.02406876 -8.45019571 26.82455831 -8.4375 23.625 C-8.43248724 21.46158955 -8.42792395 19.29817801 -8.42382812 17.13476562 C-8.41277607 11.81898675 -8.39602104 6.50324829 -8.375 1.1875 C-5.33978606 0.17576202 -3.17766921 0.02176486 0 0 Z M-3.375 5.1875 C-3.39964928 10.43855442 -3.41783568 15.68957545 -3.42993164 20.94067383 C-3.43497218 22.72844021 -3.44180454 24.51620245 -3.45043945 26.30395508 C-3.4625173 28.86801168 -3.46823094 31.43201397 -3.47265625 33.99609375 C-3.47781754 34.8002623 -3.48297882 35.60443085 -3.48829651 36.43296814 C-3.48849215 38.35151715 -3.43701983 40.26995368 -3.375 42.1875 C-3.045 42.5175 -2.715 42.8475 -2.375 43.1875 C-0.33514353 43.20023699 -0.33514353 43.20023699 2 42.9375 C2.79148437 42.87046875 3.58296875 42.8034375 4.3984375 42.734375 C7.15601627 42.05707495 7.94185301 41.47403371 9.625 39.1875 C10.10609755 36.05750535 10.10609755 36.05750535 10.05859375 32.47265625 C10.0638356 31.82050644 10.06907745 31.16835663 10.07447815 30.4964447 C10.08089347 29.11881939 10.07956757 27.74113927 10.07104492 26.36352539 C10.06254137 24.26023299 10.09128361 22.15966417 10.12304688 20.05664062 C10.12465929 18.71614664 10.12408059 17.37564787 10.12109375 16.03515625 C10.12294678 14.81836182 10.1247998 13.60156738 10.12670898 12.34790039 C9.82686626 9.17677816 9.82686626 9.17677816 8.15649414 6.75952148 C4.4093687 4.43261043 0.92374312 4.85682745 -3.375 5.1875 Z " fill="#6F7F6F" transform="translate(646.375,889.8125)"/>
<path d="M0 0 C3.7260504 1.6560224 5.93593517 3.49805955 8 7 C8.29218937 9.56226192 8.42110851 11.87442015 8.3984375 14.43359375 C8.40130768 15.14854507 8.40417786 15.8634964 8.40713501 16.60011292 C8.40917193 18.10882359 8.40366801 19.61756089 8.39111328 21.1262207 C8.37507634 23.42655002 8.39096064 25.72511629 8.41015625 28.02539062 C8.40817329 29.49479552 8.40432851 30.96419933 8.3984375 32.43359375 C8.40754654 33.45881386 8.40754654 33.45881386 8.4168396 34.50474548 C8.35357321 38.83599996 7.65595488 41.56207897 5 45 C0.33834068 48.10777288 -4.54471087 47.73620636 -10 47 C-13.48242391 44.47353559 -14.65226822 43.04319535 -16 39 C-16.22757756 34.76395412 -16.22828166 30.52760889 -16.24023438 26.28588867 C-16.24991783 24.20515627 -16.28094366 22.12542168 -16.3125 20.04492188 C-16.31903307 18.71094333 -16.32428235 17.37695776 -16.328125 16.04296875 C-16.3374707 14.83664795 -16.34681641 13.63032715 -16.35644531 12.38745117 C-15.85785644 7.64914941 -14.45313194 4.24554166 -10.8125 1.125 C-7.08821435 -0.36471426 -3.95916073 -0.59427565 0 0 Z M-10 7 C-11.80408615 12.41225844 -11.31263203 18.21085474 -11.375 23.875 C-11.41238281 25.15503906 -11.44976563 26.43507813 -11.48828125 27.75390625 C-11.88168246 35.11058443 -11.88168246 35.11058443 -8.70703125 41.3828125 C-5.99794585 43.31519229 -5.99794585 43.31519229 -2.3125 43 C1.25539113 42.30616669 1.25539113 42.30616669 3 39 C3.3874302 34.57261981 3.32917156 30.13610127 3.31567383 25.69384766 C3.31251104 23.50763231 3.33598905 21.32276708 3.36132812 19.13671875 C3.36360094 17.74739754 3.3643047 16.35807269 3.36328125 14.96875 C3.36626221 13.70482422 3.36924316 12.44089844 3.37231445 11.13867188 C3.25087761 8.05191281 3.25087761 8.05191281 1.69604492 6.08398438 C-2.28702546 3.53830531 -6.32356746 4.54904497 -10 7 Z " fill="#6F7F6F" transform="translate(806,890)"/>
<path d="M0 0 C3.6716415 3.32196136 4.46035239 6.54748469 4.8996582 11.42358398 C4.92795296 14.88691563 4.94675565 18.34903671 4.9375 21.8125 C4.95361328 23.01455078 4.96972656 24.21660156 4.98632812 25.45507812 C4.99373972 38.89230714 4.99373972 38.89230714 -0.22265625 44.28515625 C-4.37976677 46.39011784 -8.8508768 45.99832364 -13.375 45.375 C-16.37697464 43.57381522 -17.82666366 42.47167268 -19.375 39.375 C-19.49798713 36.88003837 -19.5633444 34.41405183 -19.578125 31.91796875 C-19.58382507 31.17799149 -19.58952515 30.43801422 -19.59539795 29.6756134 C-19.60485018 28.10789419 -19.61138282 26.54015509 -19.61523438 24.97241211 C-19.62492032 22.58216293 -19.65593195 20.19278095 -19.6875 17.80273438 C-19.69403223 16.27865093 -19.69928184 14.75456135 -19.703125 13.23046875 C-19.7154718 12.51884079 -19.7278186 11.80721283 -19.74053955 11.07402039 C-19.72088561 6.66088728 -19.08670003 3.88341552 -16.375 0.375 C-11.06532236 -2.81080659 -5.39440463 -2.59730593 0 0 Z M-13.07495117 4.45507812 C-15.05078241 7.37300055 -14.74651393 9.85309486 -14.73828125 13.34375 C-14.73877975 14.02046753 -14.73927826 14.69718506 -14.73979187 15.39440918 C-14.73745423 16.82335348 -14.72774383 18.25230212 -14.71118164 19.68115234 C-14.6875838 21.86723687 -14.69062295 24.05210167 -14.69726562 26.23828125 C-15.00863383 33.67885129 -15.00863383 33.67885129 -12.375 40.375 C-7.56345626 41.63390636 -7.56345626 41.63390636 -3 40.125 C1.30344262 35.49052333 -0.19055433 27.8354048 -0.1875 21.9375 C-0.17525391 20.69677734 -0.16300781 19.45605469 -0.15039062 18.17773438 C-0.14845703 16.98599609 -0.14652344 15.79425781 -0.14453125 14.56640625 C-0.14042236 13.47529541 -0.13631348 12.38418457 -0.13208008 11.26000977 C-0.37335959 8.3944821 -0.7972798 6.75528001 -2.375 4.375 C-5.72390143 2.70054928 -9.84507967 2.40295239 -13.07495117 4.45507812 Z " fill="#6F7F6F" transform="translate(554.375,891.625)"/>
<path d="M0 0 C2.9375 1.6875 2.9375 1.6875 4.9375 4.6875 C5.15716954 7.31430463 5.26547233 9.83260999 5.2734375 12.4609375 C5.2800943 13.22169586 5.2867511 13.98245422 5.29360962 14.76626587 C5.30372923 16.37507715 5.30842685 17.98393036 5.30810547 19.59277344 C5.3124723 22.04693307 5.34877784 24.49928433 5.38671875 26.953125 C5.39258849 28.51822303 5.39655683 30.08332959 5.3984375 31.6484375 C5.41280853 32.37880219 5.42717957 33.10916687 5.44198608 33.86166382 C5.39836642 38.75770328 4.42790111 41.2572642 0.9375 44.6875 C-2.23643689 46.27446844 -5.64424205 45.8306447 -9.125 45.8125 C-9.87072266 45.81636719 -10.61644531 45.82023438 -11.38476562 45.82421875 C-16.93586499 45.81413501 -16.93586499 45.81413501 -18.0625 44.6875 C-18.1553726 43.27524954 -18.17996772 41.85841066 -18.17602539 40.44311523 C-18.17594986 39.54225693 -18.17587433 38.64139862 -18.17579651 37.71324158 C-18.17063522 36.73408279 -18.16547394 35.75492401 -18.16015625 34.74609375 C-18.1587413 33.74868668 -18.15732635 32.7512796 -18.15586853 31.72364807 C-18.15025114 28.52406876 -18.13769571 25.32455831 -18.125 22.125 C-18.11998724 19.96158955 -18.11542395 17.79817801 -18.11132812 15.63476562 C-18.10027607 10.31898675 -18.08352104 5.00324829 -18.0625 -0.3125 C-12.36177723 -2.21274092 -5.62147356 -2.2604241 0 0 Z M-13.0625 3.6875 C-13.08714928 8.93855442 -13.10533568 14.18957545 -13.11743164 19.44067383 C-13.12247218 21.22844021 -13.12930454 23.01620245 -13.13793945 24.80395508 C-13.1500173 27.36801168 -13.15573094 29.93201397 -13.16015625 32.49609375 C-13.16531754 33.3002623 -13.17047882 34.10443085 -13.17579651 34.93296814 C-13.17599215 36.85151715 -13.12451983 38.76995368 -13.0625 40.6875 C-11.91336031 42.05357015 -11.91336031 42.05357015 -8.8125 41.9375 C-4.84885381 41.67325692 -3.06525905 41.24867684 -0.0625 38.6875 C1.41283743 33.28391027 1.12153104 27.74478055 1.125 22.1875 C1.13724609 21.15496094 1.14949219 20.12242187 1.16210938 19.05859375 C1.16404297 18.05957031 1.16597656 17.06054688 1.16796875 16.03125 C1.17207764 15.12568359 1.17618652 14.22011719 1.18041992 13.28710938 C0.80640609 9.28459754 -0.21417095 6.53582905 -3.0625 3.6875 C-5.50262949 3.44462511 -5.50262949 3.44462511 -8.1875 3.5625 C-9.09757813 3.58054687 -10.00765625 3.59859375 -10.9453125 3.6171875 C-11.64398437 3.64039063 -12.34265625 3.66359375 -13.0625 3.6875 Z " fill="#6F7F6F" transform="translate(757.0625,891.3125)"/>
<path d="M0 0 C2.5 0.25 2.5 0.25 4.5 2.25 C5.08891296 4.06480408 5.08891296 4.06480408 5.5690918 6.28491211 C5.75235519 7.11594955 5.93561859 7.946987 6.12443542 8.8032074 C6.31411392 9.70217239 6.50379242 10.60113739 6.69921875 11.52734375 C6.99817802 12.91077721 6.99817802 12.91077721 7.30317688 14.32215881 C7.7228372 16.2741184 8.13868536 18.22690086 8.55102539 20.18041992 C9.18470389 23.17428955 9.8346586 26.16429826 10.48632812 29.15429688 C10.89161175 31.0492684 11.29594075 32.94444439 11.69921875 34.83984375 C11.89496994 35.73678452 12.09072113 36.63372528 12.29240417 37.55784607 C12.46621109 38.39203568 12.64001801 39.22622528 12.8190918 40.08569336 C12.97516403 40.8191246 13.13123627 41.55255585 13.29203796 42.30821228 C13.5 44.25 13.5 44.25 12.5 47.25 C11.18 47.25 9.86 47.25 8.5 47.25 C7.99564306 45.3136296 7.49666126 43.37585854 7 41.4375 C6.58234375 39.81908203 6.58234375 39.81908203 6.15625 38.16796875 C5.5 35.25 5.5 35.25 5.5 32.25 C1.87 32.25 -1.76 32.25 -5.5 32.25 C-5.63277344 33.08144531 -5.76554688 33.91289063 -5.90234375 34.76953125 C-6.07894531 35.85621094 -6.25554688 36.94289063 -6.4375 38.0625 C-6.69853516 39.68091797 -6.69853516 39.68091797 -6.96484375 41.33203125 C-7.5 44.25 -7.5 44.25 -8.5 47.25 C-10.15 47.25 -11.8 47.25 -13.5 47.25 C-12.90982718 41.24490819 -12.0330755 35.45314631 -10.72265625 29.56640625 C-10.55124619 28.78482651 -10.37983612 28.00324677 -10.20323181 27.19798279 C-9.84339087 25.5648035 -9.48110848 23.93216034 -9.11645508 22.30004883 C-8.55889684 19.79631991 -8.0144807 17.28995663 -7.47070312 14.78320312 C-7.11797669 13.18992925 -6.7644887 11.59682373 -6.41015625 10.00390625 C-6.24862564 9.25500626 -6.08709503 8.50610626 -5.92066956 7.73451233 C-4.26377152 0.42637715 -4.26377152 0.42637715 0 0 Z M-0.5 6.25 C-1.17189656 9.16555115 -1.83769308 12.08226951 -2.5 15 C-2.69078125 15.825 -2.8815625 16.65 -3.078125 17.5 C-3.25859375 18.29921875 -3.4390625 19.0984375 -3.625 19.921875 C-3.79257812 20.6550293 -3.96015625 21.38818359 -4.1328125 22.14355469 C-4.61448443 24.55039489 -4.61448443 24.55039489 -4.5 28.25 C-1.53 28.25 1.44 28.25 4.5 28.25 C3.42373883 20.84211729 2.22864339 13.53499714 0.5 6.25 C0.17 6.25 -0.16 6.25 -0.5 6.25 Z " fill="#6F7F6F" transform="translate(699.5,889.75)"/>
<path d="M0 0 C1.63001953 0.01353516 1.63001953 0.01353516 3.29296875 0.02734375 C4.12441406 0.03894531 4.95585938 0.05054688 5.8125 0.0625 C6.375 2 6.375 2 6.8125 4.0625 C4.72056125 6.15443875 0.31072957 5.44385525 -2.5234375 5.5859375 C-5.16445568 5.88661375 -5.16445568 5.88661375 -7.0390625 7.2265625 C-8.85842264 10.13506341 -8.83371679 11.68826677 -8.1875 15.0625 C-6.17937566 17.58290096 -3.78501987 19.57101823 -1.3125 21.625 C6.73515704 28.43762056 6.73515704 28.43762056 7.8125 33.0625 C8.05590032 37.34634557 7.2358033 40.42071758 4.875 44 C2.07943054 46.79556946 1.36592759 47.04695428 -2.6640625 47.16015625 C-4.04690867 47.15350795 -5.42973728 47.14158295 -6.8125 47.125 C-7.51890625 47.12048828 -8.2253125 47.11597656 -8.953125 47.11132812 C-10.69795275 47.09953875 -12.442737 47.08160324 -14.1875 47.0625 C-14.1875 45.7425 -14.1875 44.4225 -14.1875 43.0625 C-9.2375 42.4025 -4.2875 41.7425 0.8125 41.0625 C2.33671767 34.66926826 2.33671767 34.66926826 0.6875 31.37890625 C-1.39144408 28.81054409 -3.54367752 26.9789326 -6.1875 25 C-13.73953213 19.32473776 -13.73953213 19.32473776 -14.65625 14.6953125 C-14.71129938 10.27759966 -14.71738457 7.04654026 -11.875 3.5 C-7.92742885 -0.08035523 -5.14690319 -0.05534305 0 0 Z " fill="#6F7F6F" transform="translate(856.1875,889.9375)"/>
<path d="M0 0 C2.5 0.125 2.5 0.125 3.5 1.125 C3.54063832 2.79117115 3.542721 4.45888095 3.5 6.125 C1.125 7.1875 1.125 7.1875 -1.5 8.125 C-2.16 7.795 -2.82 7.465 -3.5 7.125 C-3.54254356 5.12545254 -3.54080783 3.12458364 -3.5 1.125 C-2.5 0.125 -2.5 0.125 0 0 Z " fill="#6F7F6F" transform="translate(895.5,909.875)"/>
<path d="M0 0 C2.625 0.375 2.625 0.375 5 1 C5.6875 2.8125 5.6875 2.8125 6 5 C4.8125 6.8125 4.8125 6.8125 3 8 C0.8125 7.6875 0.8125 7.6875 -1 7 C-1.625 4.625 -1.625 4.625 -2 2 C-1.34 1.34 -0.68 0.68 0 0 Z " fill="#6F7F6F" transform="translate(449,910)"/>
</svg>
