<?xml version="1.0" encoding="UTF-8"?>
<svg version="1.1" xmlns="http://www.w3.org/2000/svg" width="1401" height="1071">
<path d="M0 0 C2.5625 1.4375 2.5625 1.4375 4 4 C4.60912432 7.13933304 4.84104443 9.90224008 4 13 C0.89458652 16.60914365 -2.54370644 19.20155895 -6.5 21.8125 C-11.63279096 25.25321179 -16.52881729 28.93138857 -21.39770508 32.7355957 C-31.31447013 40.46458519 -41.43021751 47.23856182 -52.33984375 53.47412109 C-55.16536635 55.09485496 -57.97433804 56.74178943 -60.78125 58.39453125 C-152.99046723 112.62994039 -237.97815815 145.60892486 -346.75390625 140.1796875 C-347.62253233 140.13703892 -348.49115841 140.09439034 -349.38610649 140.05044937 C-370.01762676 139.0290805 -390.61658409 137.579943 -411.21801758 136.08129883 C-416.07413206 135.72910445 -420.93064009 135.38241755 -425.78710938 135.03515625 C-435.19178109 134.36191608 -444.5960311 133.68298258 -454 133 C-454.30841827 133.78608643 -454.61683655 134.57217285 -454.93460083 135.38208008 C-455.86623682 137.67131448 -456.86842169 139.60393761 -458.1796875 141.6875 C-458.60717285 142.37400635 -459.0346582 143.0605127 -459.47509766 143.76782227 C-459.93706543 144.50444092 -460.3990332 145.24105957 -460.875 146 C-478.90434377 175.22417024 -494.01124657 205.9487294 -509.375 236.625 C-509.92085754 237.71394562 -510.46671509 238.80289124 -511.02911377 239.92483521 C-517.22571041 252.2950574 -523.34493688 264.69608941 -529.27560425 277.19631958 C-531.79236482 282.4993385 -534.36024225 287.77224191 -536.98980713 293.02032471 C-553.39842391 326.13607919 -563.98174327 368.1229616 -552.09008789 404.38745117 C-546.82546727 419.44828838 -537.29742902 431.53028242 -523.1875 439.1875 C-508.95629131 445.76633728 -493.64319284 445.87776658 -478.91943359 440.73193359 C-445.38493317 427.94429275 -423.94832461 398.62901891 -409.640625 366.91015625 C-407.89863174 362.89118694 -406.51097486 358.77722097 -405.125 354.625 C-400.78147053 341.72996272 -391.77195844 318.38597922 -379 312 C-375.0913205 311.74508612 -372.29057502 311.76710981 -369 314 C-366.5029351 317.74559735 -366.19793809 320.66504636 -367 325 C-368.50209642 328.15323353 -370.48096078 330.9079436 -372.5 333.75 C-378.94001072 343.33778456 -383.10004995 353.17769989 -387 364 C-387.66322266 365.74603516 -387.66322266 365.74603516 -388.33984375 367.52734375 C-392.7259032 379.15586436 -394.29747881 391.76003248 -389.32421875 403.50390625 C-383.09544091 415.24487688 -373.57738089 422.09398109 -361 426 C-345.8314768 428.99097641 -331.05104502 424.27062698 -318.375 415.875 C-288.13690497 394.33534858 -277.12977208 354.44456065 -269 320 C-269.99257812 320.26554687 -270.98515625 320.53109375 -272.0078125 320.8046875 C-294.46582277 326.70427158 -321.24769786 330.9808063 -342.875 320.3125 C-349.52227215 316.38809006 -355.19127367 310.98176859 -357.5625 303.453125 C-359.84663691 290.64564306 -357.64467602 279.9999111 -350.375 269.375 C-338.26186222 253.74370823 -321.99240898 246.15599646 -302.75 243.25 C-288.17695706 242.2784638 -276.18644527 243.8310489 -263.9296875 252.45703125 C-255.07650158 260.29785734 -250.45148658 273.5678152 -249 285 C-248.92080835 288.00252997 -248.93595313 290.99733225 -249 294 C-220.97915182 283.15434501 -194.8646238 271.47075285 -171.53271484 252.23876953 C-170.04682811 251.03784737 -168.517884 249.89081592 -166.98828125 248.74609375 C-166.08464844 248.06675781 -165.18101563 247.38742187 -164.25 246.6875 C-163.08210938 245.82705078 -163.08210938 245.82705078 -161.890625 244.94921875 C-159.48330293 242.4672896 -158.90287285 240.31608138 -158 237 C-152.10257475 218.17253909 -140.34508554 201.19847344 -128 186 C-127.25492188 185.07058594 -126.50984375 184.14117188 -125.7421875 183.18359375 C-107.93329294 162.1874985 -82.64668932 150.91466893 -55.609375 148.2109375 C-39.21423315 146.88558172 -23.20594313 148.50202511 -7 151 C-5.79633789 151.17619873 -5.79633789 151.17619873 -4.56835938 151.35595703 C-2.47751941 151.66903616 -0.39531981 152.01278194 1.6875 152.375 C3.36392578 152.66503906 3.36392578 152.66503906 5.07421875 152.9609375 C8.72599128 154.25782868 10.51447121 156.06581981 13 159 C14.14639029 162.05704077 14.14657359 163.48699244 13.25 166.625 C12.00106782 168.99797114 11.07604296 170.33018461 9 172 C2.14585203 173.17588271 -4.97722324 171.41672819 -11.6875 170.0625 C-40.23284237 164.75184687 -70.1523511 165.29956872 -95.13183594 181.68164062 C-110.84238982 192.76854483 -121.63122206 208.52326326 -131 225 C-131.41121094 225.7130127 -131.82242187 226.42602539 -132.24609375 227.16064453 C-139.8457383 240.51297083 -141.75128489 251.66843775 -137.62792969 266.87011719 C-132.46689969 284.37588146 -124.11435502 300.67527771 -116.01391602 316.96038818 C-114.95176426 319.0970319 -113.89261174 321.23514321 -112.83398438 323.37353516 C-110.64493398 327.79349005 -108.44947179 332.21022252 -106.25 336.625 C-105.89993896 337.32807281 -105.54987793 338.03114563 -105.18920898 338.75552368 C-104.19627734 340.74709649 -103.20030164 342.73711237 -102.203125 344.7265625 C-101.63239258 345.86689941 -101.06166016 347.00723633 -100.47363281 348.18212891 C-99.01550686 351.09152667 -99.01550686 351.09152667 -97 354 C-96.14664062 353.45214844 -95.29328125 352.90429688 -94.4140625 352.33984375 C-63.65409213 332.7641648 -31.23432421 316.16311537 1.1875 299.5625 C2.18810455 299.04969482 3.18870911 298.53688965 4.21963501 298.00854492 C7.07602939 296.54593742 9.93414366 295.08675595 12.79296875 293.62890625 C13.64990326 293.19010635 14.50683777 292.75130646 15.38973999 292.29920959 C27.42488753 286.17811094 27.42488753 286.17811094 34 287 C36.91963173 288.98783437 38.61102978 290.4314697 39.48046875 293.9375 C39.74792532 297.75417755 39.598029 299.29010624 37.04223633 302.32397461 C33.45439629 305.79742413 29.11872872 307.73234061 24.66015625 309.87890625 C23.74962494 310.32787766 22.83909363 310.77684906 21.90097046 311.23942566 C19.96070676 312.19530103 18.01829883 313.14683431 16.07394409 314.09436035 C11.04126652 316.54789203 6.02494702 319.03441023 1.0078125 321.51953125 C0.03253098 322.00179169 -0.94275055 322.48405212 -1.94758606 322.98092651 C-11.37102236 327.65299836 -20.58981024 332.63869586 -29.76855469 337.7734375 C-32.7757313 339.4263976 -35.82483126 340.99188246 -38.87670898 342.56030273 C-47.76423887 347.13599562 -56.40590204 352.08766358 -65 357.1875 C-66.12172607 357.85297852 -67.24345215 358.51845703 -68.39916992 359.20410156 C-71.60883216 361.12098649 -74.805619 363.0577805 -78 365 C-79.07507812 365.64018066 -80.15015625 366.28036133 -81.2578125 366.93994141 C-82.26585937 367.55401855 -83.27390625 368.1680957 -84.3125 368.80078125 C-85.21613281 369.34516846 -86.11976562 369.88955566 -87.05078125 370.45043945 C-87.69402344 370.96179443 -88.33726563 371.47314941 -89 372 C-89 375.01626688 -88.49682709 376.91472781 -87.57421875 379.76171875 C-87.27338379 380.70813232 -86.97254883 381.6545459 -86.66259766 382.62963867 C-86.34081543 383.63873291 -86.0190332 384.64782715 -85.6875 385.6875 C-81.54971453 398.98663671 -78.6288652 412.02740133 -78 426 C-77.938125 427.29744141 -77.938125 427.29744141 -77.875 428.62109375 C-77.15444905 458.92926828 -89.08860994 486.55083599 -109.59375 508.5 C-110.3878125 509.325 -111.181875 510.15 -112 511 C-112.68449219 511.72316406 -112.68449219 511.72316406 -113.3828125 512.4609375 C-128.01985684 527.88071148 -145.16073528 540.01099891 -167.05078125 541.16015625 C-184.27836159 541.60090636 -200.29774986 536.89913252 -213.5625 525.6875 C-224.10407551 515.35852769 -229.78635763 502.16268985 -230.25 487.5 C-229.92665002 465.61998474 -218.66063256 447.45309918 -204 432 C-202.79923828 430.70255859 -202.79923828 430.70255859 -201.57421875 429.37890625 C-189.39003243 416.64005288 -174.51845559 406.83369075 -160.23974609 396.61181641 C-158.05319286 395.03827984 -155.87840833 393.44986431 -153.70703125 391.85546875 C-143.90794888 384.6807052 -133.91538087 377.87418826 -123.70654297 371.29174805 C-122.71928223 370.64633057 -121.73202148 370.00091309 -120.71484375 369.3359375 C-119.82917725 368.76407715 -118.94351074 368.1922168 -118.03100586 367.60302734 C-115.72265939 366.08257394 -115.72265939 366.08257394 -115 363 C-115.93808272 360.6013342 -116.93688297 358.38137133 -118.0859375 356.0859375 C-118.58432884 355.0624395 -118.58432884 355.0624395 -119.0927887 354.01826477 C-120.17706044 351.7988835 -121.2756992 349.5869703 -122.375 347.375 C-123.12243376 345.85291865 -123.86925949 344.33053858 -124.61547852 342.80786133 C-128.59227486 334.71963623 -132.67787509 326.70414414 -136.97143555 318.77905273 C-145.62969911 302.6374117 -154.74595381 284.34327242 -157 266 C-157.93457031 266.72703125 -158.86914062 267.4540625 -159.83203125 268.203125 C-182.05049272 285.2893944 -220.7088148 314 -250 314 C-250.02126953 314.91652344 -250.02126953 314.91652344 -250.04296875 315.8515625 C-251.32445879 340.44231725 -260.35044354 365.0254291 -271 387 C-271.35320312 387.73234863 -271.70640625 388.46469727 -272.0703125 389.21923828 C-277.0331368 399.37472992 -282.66613044 408.392288 -290 417 C-290.54785156 417.6496875 -291.09570312 418.299375 -291.66015625 418.96875 C-305.65079487 434.14018421 -326.39276409 444.77330079 -347.00390625 446.37890625 C-363.50586749 446.87896568 -378.65593829 442.61171149 -391.25 431.625 C-392.85142058 430.10213011 -394.43602267 428.56129929 -396 427 C-396.97453125 426.04287109 -396.97453125 426.04287109 -397.96875 425.06640625 C-403.00798633 419.750896 -405.98486767 413.62666447 -409 407 C-409.81082031 408.01578125 -410.62164063 409.0315625 -411.45703125 410.078125 C-431.18740419 434.67656379 -454.77001023 459.21739407 -488 463 C-510.06507925 464.22535322 -529.81832829 461.56903035 -547.1652832 446.91674805 C-570.20351838 426.22775042 -575.26116689 397.54602606 -577 368 C-577.64324219 369.07894531 -578.28648437 370.15789062 -578.94921875 371.26953125 C-591.40469598 392.00060708 -604.84235285 411.98963375 -621.58642578 429.51904297 C-622.5429207 430.52113247 -623.4942952 431.52813038 -624.44091797 432.53955078 C-639.52201324 448.61832626 -659.06052829 461.79065334 -681.640625 463.16015625 C-695.47273729 463.57656801 -707.21708523 460.19353492 -717.6875 451 C-730.27884085 437.48588948 -732.33803493 417.54719532 -732.1484375 399.93359375 C-731.46064896 381.70719745 -728.06779137 363.72643711 -723.125 346.1875 C-721.06640566 338.16486376 -722.02111774 330.52959744 -725.71484375 323.12890625 C-730.85546923 314.61328046 -737.748764 309.23783549 -747.375 306.625 C-756.78646689 304.93911984 -765.07634691 306.72164686 -773 312 C-787.02856819 322.5980013 -795.95737176 337.66483321 -804 353 C-804.48799072 353.92039062 -804.48799072 353.92039062 -804.98583984 354.859375 C-817.1826006 378.00416581 -826.25683104 402.39394321 -835.34216309 426.86891174 C-838.02305653 434.08201085 -840.74885272 441.27488843 -843.5625 448.4375 C-843.93125244 449.39978516 -844.30000488 450.36207031 -844.67993164 451.35351562 C-847.64035703 458.8100997 -851.09041777 466.4823958 -858 471 C-862.33503164 471.86080235 -865.96125788 471.54195241 -869.875 469.5 C-877.99477217 459.94732686 -876.84077587 444.74830473 -876 433 C-874.11660109 416.78387443 -868.31961277 401.24413085 -863.01464844 385.89648438 C-862.75128189 385.13188904 -862.48791534 384.3672937 -862.21656799 383.57952881 C-861.71620969 382.13185371 -861.21148023 380.68567981 -860.70176697 379.24127197 C-859.70141484 376.35452551 -859 374.08032019 -859 371 C-859.38027344 371.38929688 -859.76054688 371.77859375 -860.15234375 372.1796875 C-877.21910159 388.38750567 -901.01663707 396.40634675 -924 399 C-924.268125 400.00675781 -924.53625 401.01351563 -924.8125 402.05078125 C-930.30436539 422.00984409 -938.09158971 442.36651557 -952 458 C-952.90492188 459.02867187 -952.90492188 459.02867187 -953.828125 460.078125 C-962.75242569 469.60237868 -973.94099893 476.23142163 -986 481 C-986.82113281 481.3403125 -987.64226562 481.680625 -988.48828125 482.03125 C-1003.53919738 487.2162546 -1021.66445343 484.95271557 -1035.94140625 478.71484375 C-1042.948 475.21641933 -1048.47341945 470.49809302 -1054 465 C-1054.62648438 464.40832031 -1055.25296875 463.81664062 -1055.8984375 463.20703125 C-1067.58640462 451.22818712 -1071.95940189 434.39726458 -1072.375 418.125 C-1072.22320007 409.5736042 -1070.73737751 401.3559585 -1069 393 C-1070.08023437 393.30679687 -1071.16046875 393.61359375 -1072.2734375 393.9296875 C-1077.66920872 395.27684835 -1083.09301661 395.69125837 -1088.625 396.125 C-1089.635625 396.21136719 -1090.64625 396.29773438 -1091.6875 396.38671875 C-1096.46998486 396.78212104 -1101.1965732 397.11475764 -1106 397 C-1106.20367188 397.76957031 -1106.40734375 398.53914063 -1106.6171875 399.33203125 C-1108.55288862 404.46656048 -1111.31209488 408.98836372 -1114.125 413.6875 C-1115.00623535 415.16633667 -1115.00623535 415.16633667 -1115.90527344 416.67504883 C-1119.95257387 423.40365796 -1124.11852456 429.84151411 -1129 436 C-1129.61101562 436.81210937 -1130.22203125 437.62421875 -1130.8515625 438.4609375 C-1148.30417264 460.90000769 -1172.37953912 482.45673432 -1200 491 C-1200.63421875 491.19851563 -1201.2684375 491.39703125 -1201.921875 491.6015625 C-1204.91617498 492.17565761 -1207.82842544 492.21068936 -1210.875 492.25 C-1212.06867188 492.27578125 -1213.26234375 492.3015625 -1214.4921875 492.328125 C-1219.38218099 491.87070913 -1222.65019596 490.23732037 -1226.25 486.9375 C-1229.82919136 480.92957165 -1230.55182888 475.14286792 -1229.125 468.3125 C-1224.03470769 450.97438646 -1212.18255946 436.8991806 -1200 424 C-1199.25492188 423.19046875 -1198.50984375 422.3809375 -1197.7421875 421.546875 C-1178.95385495 401.82842698 -1147.93363188 383.64707169 -1120.40600586 380.72460938 C-1117.84358099 380.21293679 -1117.84358099 380.21293679 -1116.47363281 377.95654297 C-1116.05436523 377.06080566 -1115.63509766 376.16506836 -1115.203125 375.2421875 C-1114.72375488 374.23559082 -1114.24438477 373.22899414 -1113.75048828 372.19189453 C-1113.25532715 371.09731934 -1112.76016602 370.00274414 -1112.25 368.875 C-1111.72776855 367.75077637 -1111.20553711 366.62655273 -1110.66748047 365.46826172 C-1087.44992223 315.43426144 -1087.44992223 315.43426144 -1089 262 C-1090.85173152 258.13651078 -1093.28608952 255.20513435 -1097 253 C-1110.08758281 249.07095823 -1123.11920422 255.04469822 -1134.59765625 261.03125 C-1152.09547671 271.15628044 -1168.11570959 286.54882001 -1181 302 C-1181.44682129 302.53302734 -1181.89364258 303.06605469 -1182.35400391 303.61523438 C-1214.49016133 342.08297377 -1236.74649221 385.42960747 -1257 431 C-1257.29044189 431.65349426 -1257.58088379 432.30698853 -1257.88012695 432.98028564 C-1293.69056048 513.67573816 -1322.54527795 598.13741659 -1340.48974609 687.17431641 C-1340.72272903 688.32412491 -1340.72272903 688.32412491 -1340.9604187 689.49716187 C-1341.24833779 690.92177897 -1341.53149898 692.34736975 -1341.80886841 693.77407837 C-1342.86584255 698.99450246 -1343.49453238 701.99635492 -1348 705 C-1352.78837042 705.54062247 -1354.89466366 705.69083521 -1359 703.125 C-1363.23077838 696.51440878 -1360.8203334 687.5514572 -1359.49609375 680.16796875 C-1359.16785409 678.24654802 -1358.83990563 676.32507753 -1358.51220703 674.40356445 C-1358.33739807 673.3954068 -1358.16258911 672.38724915 -1357.98248291 671.34854126 C-1354.85661964 653.21772914 -1352.02654062 635.0533187 -1349.625 616.8125 C-1349.48819824 615.77367676 -1349.35139648 614.73485352 -1349.21044922 613.66455078 C-1347.17844387 598.10311005 -1345.34763306 582.51966385 -1343.55078125 566.9296875 C-1343.44345924 565.99989515 -1343.33613724 565.07010281 -1343.22556305 564.11213493 C-1342.146856 554.76413521 -1341.07328804 545.41564613 -1340.02561474 536.06411266 C-1337.94041957 517.48262575 -1335.67279947 498.94957768 -1332.8984375 480.45703125 C-1332.7773657 479.64583517 -1332.65629391 478.83463909 -1332.53155327 477.99886131 C-1325.55056513 431.49963006 -1313.5730348 386.45110352 -1293 344 C-1292.58250488 343.12408203 -1292.16500977 342.24816406 -1291.73486328 341.34570312 C-1277.26204394 311.01076564 -1258.19259782 282.7260308 -1237.3125 256.4375 C-1236.80702637 255.7995752 -1236.30155273 255.16165039 -1235.78076172 254.50439453 C-1231.50754559 249.20372238 -1231.50754559 249.20372238 -1227.9765625 248.7265625 C-1221.69778652 248.45538613 -1221.69778652 248.45538613 -1218.4375 251 C-1216.63353039 254.76480615 -1216.24883958 257.93446469 -1217 262 C-1218.52790783 264.93893458 -1220.55581221 267.35195001 -1222.6875 269.875 C-1223.88894892 271.37060703 -1225.08809903 272.86806312 -1226.28515625 274.3671875 C-1227.21158936 275.5133252 -1227.21158936 275.5133252 -1228.15673828 276.68261719 C-1287.00972994 350.67368962 -1309.40082432 438.86906319 -1321 541 C-1320.7004541 540.12005371 -1320.4009082 539.24010742 -1320.09228516 538.33349609 C-1307.32347359 500.94446125 -1293.18694734 464.04876921 -1277 428 C-1276.41603289 426.69154378 -1275.83238271 425.38294608 -1275.24902344 424.07421875 C-1270.90886209 414.34735573 -1266.48770822 404.65964478 -1262 395 C-1261.6762439 394.30203308 -1261.35248779 393.60406616 -1261.0189209 392.88494873 C-1246.16804081 360.91606832 -1229.06589639 330.62872742 -1207 303 C-1206.26394531 302.07058594 -1205.52789063 301.14117188 -1204.76953125 300.18359375 C-1184.55007078 275.0255748 -1159.91771212 248.56665475 -1129 237 C-1127.95972656 236.60941406 -1126.91945313 236.21882812 -1125.84765625 235.81640625 C-1113.96501623 231.88274879 -1100.04329286 230.57356784 -1088.3203125 235.75390625 C-1077.86620277 241.36815036 -1072.18144213 249.36084602 -1068.5625 260.6875 C-1059.37135412 299.91897114 -1078.03655534 342.55188752 -1095 377 C-1079.94586511 375.78547264 -1079.94586511 375.78547264 -1065.21484375 372.5859375 C-1063 372 -1063 372 -1060 372 C-1059.5978125 370.90751953 -1059.5978125 370.90751953 -1059.1875 369.79296875 C-1058.01993223 367.04688008 -1056.67345845 364.77666757 -1055 362.3125 C-1054.484375 361.54550781 -1053.96875 360.77851562 -1053.4375 359.98828125 C-1050.62959994 356.10452818 -1050.62959994 356.10452818 -1047.9765625 355.6640625 C-1041.70420712 355.55987055 -1041.70420712 355.55987055 -1038.5 357.5625 C-1036.35838711 361.04262094 -1035.86838709 362.8541933 -1036 367 C-1037.23571481 369.76800117 -1038.70970813 372.31285629 -1040.24609375 374.92578125 C-1050.41556322 392.75066426 -1055.48621055 412.77567783 -1051 433 C-1047.16283397 445.08064712 -1039.19721738 454.92193932 -1028 460.8125 C-1015.84547718 466.41944224 -1004.04568877 466.30633316 -991.28125 462.25390625 C-972.1124964 454.92870398 -960.17488257 439.46976432 -951.98779297 421.34033203 C-948.91235877 414.05384855 -946.44949023 406.51548138 -944 399 C-945.12535156 398.84144531 -946.25070312 398.68289063 -947.41015625 398.51953125 C-972.39868556 394.80768547 -996.68678237 385.28868428 -1013.2578125 365.375 C-1022.22356972 353.15262245 -1026.24372579 342.20498569 -1025 327 C-1023.31258376 316.23702075 -1016.36267447 306.77638447 -1008 300 C-991.3978251 288.12499182 -974.16452507 284.55320025 -954 286 C-941.92742571 288.19387383 -933.1596806 295.25914699 -926 305 C-918.54758218 317.85831676 -916.80150645 332.34295715 -916.8125 346.9375 C-916.81258057 347.94006836 -916.81266113 348.94263672 -916.81274414 349.97558594 C-916.96332248 369.88996744 -916.96332248 369.88996744 -920 379 C-898.12449921 374.0542346 -881.38930061 365.49342244 -865 350 C-863.89011719 348.98679687 -863.89011719 348.98679687 -862.7578125 347.953125 C-845.39666441 331.51872859 -833.47296448 308.65465432 -826.40625 286.06640625 C-824.78699401 282.5355286 -823.25883654 281.06657927 -820 279 C-815.63956374 278.2992156 -813.76557196 278.49504828 -810.0625 280.9375 C-807.3018492 285.03664816 -807.36897341 288.25221712 -808 293 C-809.35100008 298.04657462 -811.13246132 302.915809 -812.9375 307.8125 C-813.47055687 309.29028672 -814.00292726 310.76832121 -814.53466797 312.24658203 C-819.73147247 326.59884976 -825.29045933 340.81603676 -830.83056641 355.03833008 C-838.02885211 373.53386913 -844.77387152 392.15243763 -851 411 C-849.25409241 407.66887906 -847.86932615 404.24984772 -846.49609375 400.75 C-846.0028947 399.49931573 -845.50939293 398.2487508 -845.015625 396.99829102 C-844.75845703 396.3459549 -844.50128906 395.69361877 -844.23632812 395.02151489 C-809.31312476 306.64483725 -809.31312476 306.64483725 -774.328125 290.7890625 C-760.76451347 285.13086953 -746.59839572 285.48017783 -733 291 C-718.50970907 298.75815577 -709.23492802 309.31768344 -704 325 C-700.72272883 338.2359468 -704.04053533 350.68096087 -707.37158203 363.50537109 C-710.62629307 376.42558764 -712.19122844 388.95293521 -712.25 402.25 C-712.270625 403.40113281 -712.29125 404.55226563 -712.3125 405.73828125 C-712.36438188 417.24308904 -710.72516378 428.97080217 -703 438 C-696.39294061 443.67233975 -688.42236685 443.81900532 -680.12109375 443.41796875 C-674.60629662 442.96898755 -669.95272751 441.43814827 -665 439 C-664.1234375 438.59910156 -663.246875 438.19820312 -662.34375 437.78515625 C-654.2165211 433.75657296 -647.65122427 428.07056184 -641 422 C-640.195625 421.2678125 -639.39125 420.535625 -638.5625 419.78125 C-631.95953535 413.46126955 -626.49661012 406.27205536 -621 399 C-620.54866699 398.40944824 -620.09733398 397.81889648 -619.63232422 397.21044922 C-591.50601353 360.32697369 -571.29243351 317.75671065 -550.625 276.4375 C-550.27834541 275.74477997 -549.93169083 275.05205994 -549.57453156 274.33834839 C-542.20587198 259.61174194 -534.88567875 244.86766392 -527.81617737 229.99438477 C-523.34172059 220.58692278 -518.72612205 211.25241433 -514.0625 201.9375 C-513.63112732 201.07535889 -513.19975464 200.21321777 -512.75531006 199.32495117 C-501.48075013 176.81838269 -489.97922582 153.96883874 -476 133 C-513.19076349 132.53250829 -548.91011404 135.40625337 -585 145 C-585.87317871 145.22913086 -586.74635742 145.45826172 -587.64599609 145.69433594 C-611.7711789 152.13083195 -635.69975024 162.13739499 -656.00610352 176.81445312 C-659.65661411 179.39043285 -662.51257987 180.76647743 -667 181 C-670.20120183 179.8303301 -672.2989787 178.92407353 -674.375 176.1875 C-675.21742344 173.23901795 -675.37436732 171.05733313 -675 168 C-671.78846494 162.9363098 -667.24480361 160.26290526 -662.25 157.1875 C-661.40381104 156.66124023 -660.55762207 156.13498047 -659.68579102 155.59277344 C-652.64762793 151.27682533 -645.477002 147.41259272 -637.99365234 143.93115234 C-635.98150536 142.99136192 -633.98556625 142.02169038 -631.98828125 141.05078125 C-606.65688003 129.00628262 -578.87404209 122.32443081 -551.3125 117.75 C-550.41313721 117.59877686 -549.51377441 117.44755371 -548.5871582 117.29174805 C-528.29892155 114.14354275 -508.05189179 113.72897193 -487.5625 113.875 C-485.06575886 113.88506554 -482.56901372 113.89418498 -480.07226562 113.90234375 C-474.0480875 113.92403797 -468.02406349 113.95722352 -462 114 C-461.54168541 112.81491096 -461.54168541 112.81491096 -461.07411194 111.60588074 C-460.08507963 109.20640993 -459.18413364 107.72831708 -457.49609375 105.80078125 C-457.00794189 105.23697754 -456.51979004 104.67317383 -456.0168457 104.09228516 C-455.23506958 103.2112915 -455.23506958 103.2112915 -454.4375 102.3125 C-453.62188599 101.38123291 -453.62188599 101.38123291 -452.78979492 100.43115234 C-451.69515661 99.18377756 -450.5976297 97.93893109 -449.49707031 96.69677734 C-448.251982 95.28559603 -447.02585154 93.8577156 -445.8046875 92.42578125 C-441.00767861 86.88570628 -435.79948633 81.80309209 -430.5 76.75 C-429.79979736 76.07598145 -429.09959473 75.40196289 -428.37817383 74.70751953 C-416.04222034 63.09974493 -416.04222034 63.09974493 -409.1875 62.875 C-405.64613213 64.12489454 -404.11878291 64.90331728 -402 68 C-400.81103166 72.01276815 -400.59446983 74.09238485 -402.3125 77.9375 C-404.36678738 80.61952286 -406.84659023 82.5082296 -409.51953125 84.5546875 C-415.20801824 89.0547045 -420.28792271 94.0273104 -425.375 99.1875 C-426.68791016 100.50137695 -426.68791016 100.50137695 -428.02734375 101.84179688 C-431.91491406 105.75607569 -435.60638777 109.64289407 -439 114 C-396.91250113 118.26699099 -354.57075499 121.50467708 -312.25134659 121.49944305 C-310.29185772 121.49998835 -308.33237303 121.50618857 -306.37289429 121.51251221 C-250.09250467 121.59541481 -198.55308641 108.44074569 -148 84 C-147.01193359 83.52449707 -146.02386719 83.04899414 -145.00585938 82.55908203 C-131.00739156 75.7883299 -117.42313504 68.42704511 -103.94482422 60.6796875 C-99.90284988 58.37420056 -95.83213232 56.12191803 -91.76196289 53.86669922 C-71.81359468 42.79100003 -52.27292679 31.52469874 -34.13720703 17.63134766 C-28.49560983 13.32507024 -22.75236003 9.1564525 -17 5 C-15.81857422 4.11441406 -15.81857422 4.11441406 -14.61328125 3.2109375 C-9.90954898 -0.097385 -5.72425538 -1.16959246 0 0 Z M-333.55859375 278.9140625 C-338.11843267 284.75328069 -340.94371099 289.31549623 -340 297 C-336.42201834 303.08256882 -331.60584736 305.00044874 -325 307 C-308.43543246 310.75046812 -282.42585673 307.71292836 -267 300 C-266.40655131 288.83437279 -267.81344516 277.22386581 -275.1875 268.375 C-283.22997145 261.58357966 -290.68654463 261.06723819 -300.84130859 261.77246094 C-313.84445385 263.14307068 -325.30422059 268.77711301 -333.55859375 278.9140625 Z M-1001 319 C-1005.52257101 324.44121825 -1007.53911988 329.88361758 -1007 337 C-1005.28320972 343.99433076 -1001.65935854 349.60375994 -997 355 C-996.52175781 355.57234375 -996.04351563 356.1446875 -995.55078125 356.734375 C-983.50834635 369.95981987 -962.87031799 379.0693125 -945.19140625 380.17578125 C-943.12679517 380.18544402 -941.06196983 380.10484592 -939 380 C-932.95483618 360.46751691 -932.14164394 336.23642618 -940.6875 317.375 C-944.11886255 311.1082932 -948.25107391 307.4760758 -954.8671875 304.87109375 C-970.79408451 300.44254259 -989.90900078 307.04251646 -1001 319 Z M-111.75390625 385.421875 C-112.51711182 385.94652344 -113.28031738 386.47117187 -114.06665039 387.01171875 C-114.89028076 387.58535156 -115.71391113 388.15898438 -116.5625 388.75 C-117.84145142 389.63365234 -117.84145142 389.63365234 -119.14624023 390.53515625 C-121.76853478 392.35057224 -124.38528317 394.17369016 -127 396 C-127.74894531 396.52271484 -128.49789063 397.04542969 -129.26953125 397.58398438 C-134.19804327 401.03033876 -139.1043022 404.50722176 -144 408 C-144.7307373 408.52062012 -145.46147461 409.04124023 -146.21435547 409.57763672 C-187.90083779 437.66811835 -187.90083779 437.66811835 -211.52734375 480.296875 C-213.04195679 489.89509698 -210.65003141 499.16471471 -205 507 C-197.31935353 516.45968262 -187.27403801 521.07652568 -175.3125 522.75 C-162.26711616 523.81573484 -149.3259161 519.42955789 -139.3359375 511.0625 C-138.56507812 510.381875 -137.79421875 509.70125 -137 509 C-136.06414062 508.195625 -135.12828125 507.39125 -134.1640625 506.5625 C-118.67199572 493.0034852 -106.18365162 476.86043401 -100 457 C-99.68160156 455.99582031 -99.36320312 454.99164062 -99.03515625 453.95703125 C-92.80378565 430.38120054 -97.72594229 405.38064791 -106 383 C-108.6339923 383 -109.59265642 383.92774106 -111.75390625 385.421875 Z M-1140.25 406 C-1141.31311401 406.47312622 -1141.31311401 406.47312622 -1142.39770508 406.95581055 C-1155.0424465 412.66565993 -1166.38888778 419.00781374 -1177 428 C-1177.51691406 428.43715332 -1178.03382813 428.87430664 -1178.56640625 429.32470703 C-1188.80570202 438.09803846 -1197.26059303 447.93797953 -1204.5 459.3125 C-1204.92168457 459.97016357 -1205.34336914 460.62782715 -1205.77783203 461.30541992 C-1208.33657547 465.45826366 -1209.86983381 469.25207355 -1211 474 C-1205.58332621 473.48978428 -1201.28928716 472.0608487 -1196.4375 469.5625 C-1195.74422607 469.20905518 -1195.05095215 468.85561035 -1194.33666992 468.49145508 C-1166.95821074 454.11706168 -1144.2726359 430.20855968 -1130 403 C-1133.87443443 403 -1136.77679349 404.45090956 -1140.25 406 Z M-853 415 C-852 418 -852 418 -852 418 Z M-854 418 C-853 421 -853 421 -853 421 Z M-855 422 C-854 424 -854 424 -854 424 Z " fill="#6F7F6F" transform="translate(1361,366)"/>
<path d="M0 0 C2.375 1.5 2.375 1.5 4 4 C4.96416859 8.73974464 4.62163818 11.99735778 2.0625 16.125 C-0.12647893 18.38012624 -2.55959841 20.20845314 -5.07421875 22.0859375 C-10.38347604 26.1926225 -15.13663325 30.75431249 -19.875 35.5 C-20.74543945 36.36915039 -21.61587891 37.23830078 -22.51269531 38.13378906 C-29.4999806 45.2356627 -35.51484353 52.69678149 -41 61 C-37.55167267 62.14944244 -34.66817129 62.25114504 -31.03149414 62.40991211 C-29.55251294 62.47885493 -28.07354529 62.54808892 -26.59458923 62.61756897 C-25.80442854 62.65335619 -25.01426785 62.68914341 -24.20016289 62.72601509 C-8.48560794 63.44801789 7.19606089 64.46545957 22.87890625 65.69140625 C23.84541485 65.76676983 24.81192345 65.84213341 25.80772018 65.91978073 C31.72867352 66.38266414 37.64909899 66.85202592 43.56933594 67.32397461 C51.55869256 67.96064683 59.54846239 68.59194337 67.53867912 69.21772575 C70.26638379 69.43254461 72.99373873 69.65142327 75.72108459 69.8707428 C91.5885401 71.12999274 107.49472351 72.14479053 123.41796875 72.16796875 C124.83260406 72.17438889 124.83260406 72.17438889 126.27581787 72.18093872 C129.24643006 72.19070785 132.21687522 72.19103096 135.1875 72.1875 C136.21658478 72.18656342 137.24566956 72.18562683 138.30593872 72.18466187 C153.95067169 72.1539066 169.45597066 71.95168447 185 70 C186.20446777 69.84934082 187.40893555 69.69868164 188.64990234 69.54345703 C251.30255711 61.36317187 313.28983687 38.27523209 367.19921875 5.46875 C367.82932861 5.09008789 368.45943848 4.71142578 369.10864258 4.32128906 C370.72597598 3.3403825 372.32865763 2.33542256 373.9296875 1.328125 C377.99356472 -0.42978626 380.59075375 -0.38026354 385 0 C387.9838283 1.98921886 389.60276841 3.38502568 390.4765625 6.9375 C390.64443214 9.27000448 390.72203486 10.75744467 390 13 C386.72093689 16.62822771 383.4957437 19.11134319 379.22265625 21.4609375 C378.08521973 22.08959717 376.9477832 22.71825684 375.77587891 23.3659668 C374.53854853 24.03649885 373.30074163 24.70615221 372.0625 25.375 C371.10836212 25.89472885 371.10836212 25.89472885 370.13494873 26.42495728 C303.35578515 62.79236346 230.29677137 90.9164653 153.25 91.203125 C151.97503662 91.21013931 150.70007324 91.21715363 149.38647461 91.22438049 C145.2576449 91.24388699 141.1288711 91.24882228 137 91.25 C136.28926331 91.25044186 135.57852661 91.25088371 134.84625244 91.25133896 C109.88785657 91.2594486 85.14353142 90.33221708 60.26495361 88.26940918 C50.5784917 87.47012623 40.889158 86.70511401 31.20028019 85.93569469 C27.7365313 85.66061312 24.27289032 85.3843102 20.80947876 85.10501099 C0.89069539 83.50096617 -19.01788438 82.25671123 -38.99047852 81.54467773 C-39.86146179 81.51278854 -40.73244507 81.48089935 -41.62982178 81.44804382 C-43.23069516 81.39088664 -44.83173249 81.33807478 -46.43292236 81.29060364 C-49.5276152 81.18384922 -52.04253338 80.98582221 -55 80 C-55.26917236 80.71865234 -55.53834473 81.43730469 -55.81567383 82.17773438 C-57.00247138 85.00588933 -58.38220888 87.52145036 -59.94921875 90.15625 C-60.54259033 91.16421631 -61.13596191 92.17218262 -61.74731445 93.21069336 C-62.38757568 94.29616455 -63.02783691 95.38163574 -63.6875 96.5 C-71.39466953 109.70307424 -78.42681504 123.19983006 -85.36621094 136.81787109 C-87.13578599 140.26447019 -88.9514787 143.6833776 -90.78369141 147.09692383 C-96.31105029 157.41130765 -101.40011551 167.9353127 -106.47314453 178.47802734 C-107.17216612 179.93068062 -107.87122265 181.38331708 -108.5703125 182.8359375 C-108.92481476 183.57266693 -109.27931702 184.30939636 -109.64456177 185.06845093 C-112.35038572 190.680371 -115.10170588 196.26883918 -117.8671875 201.8515625 C-143.87304333 253.62066218 -143.87304333 253.62066218 -155 310 C-155.0515625 310.6703125 -155.103125 311.340625 -155.15625 312.03125 C-155.67685774 323.6581562 -153.10747837 336.63617929 -146 346 C-138.70190701 353.48643087 -128.02169951 357.05083999 -117.75634766 357.29223633 C-92.37069915 357.50272672 -66.34352161 347.8647075 -48 330.05859375 C-24.17390337 304.74336608 0.53592734 262.19727805 8 228 C7.10539063 227.61070312 6.21078125 227.22140625 5.2890625 226.8203125 C-7.99018624 220.78680256 -16.47647996 212.7894871 -22 199 C-26.98614037 185.40143535 -24.23888599 169.78201152 -18.38500977 156.97412109 C-13.09847685 145.98702657 -6.04850013 136.72493984 5 131 C11.744412 128.81519048 18.86706855 129.07993179 25.25 132.125 C34.7979233 137.5269154 40.78909941 144.01419281 43.8125 154.6875 C47.97054779 173.87665158 41.92914008 193.16901286 35 211 C64.97715604 211.64593284 96.71695418 196.42630291 123.08203125 183.52734375 C124.24448364 182.96297607 124.24448364 182.96297607 125.43041992 182.38720703 C126.83223887 181.70072277 128.22775073 181.00110221 129.61450195 180.28466797 C133.91063525 178.15885086 137.2292249 177.5483975 142 178 C144.875 179.5625 144.875 179.5625 147 182 C148.08380843 185.72559147 148.58437681 187.86671972 146.77734375 191.37109375 C144.83454076 194.24473421 142.73516688 196.9207611 140.5625 199.625 C116.91849902 229.90652967 92.29756302 273.76277681 95.2578125 313.45703125 C96.79496091 325.46076294 100.76170968 336.16001577 110.40625 343.94140625 C131.61772564 358.38392569 161.34376672 359.95864249 185.99755859 355.97045898 C209.21319112 351.49412079 229.91358625 340.19705783 247 324 C249.43323255 321.09575337 249.43323255 321.09575337 248.390625 317.47265625 C248.0182852 316.00059152 247.63746081 314.53065722 247.25 313.0625 C236.7570551 269.7239923 243.92003576 217.99223521 267.19140625 179.7421875 C275.26136785 167.50652218 285.00614031 156.66714283 299.828125 153.37109375 C305.99514798 152.55284349 311.5375012 152.82556674 317 156 C325.70500186 163.38400936 327.93066638 172.895283 328.87744141 183.91748047 C331.81106199 233.76565489 306.12991538 285.6224438 274.75 322.72265625 C272.83023356 324.96379498 272.83023356 324.96379498 272 328 C277.11840531 341.37461561 288.63551698 352.86298206 301.5625 358.75 C354.24086845 378.6859239 427.26715531 348.63509177 475.8125 327.0625 C480.22223669 325.07100601 484.61475777 323.0448077 489 321 C490.03398926 320.51950195 491.06797852 320.03900391 492.13330078 319.54394531 C516.84238013 308.00757414 540.9899615 295.52890187 564.40332031 281.54443359 C566.7571117 280.14446327 569.12056433 278.76400749 571.4921875 277.39453125 C593.02582277 264.94222159 613.79380121 251.16728016 634.1875 236.9375 C635.02531006 236.35468262 635.86312012 235.77186523 636.72631836 235.17138672 C640.6513335 232.42245359 644.51564341 229.63232619 648.28125 226.66796875 C648.94487549 226.15306885 649.60850098 225.63816895 650.29223633 225.10766602 C651.50755467 224.15692168 652.70947208 223.1886412 653.89331055 222.19897461 C657.97097 219.02290214 661.05025204 218.52080449 666.02661133 218.65429688 C669.00948483 219.17684406 670.29274087 220.5813829 672 223 C673.45147903 225.90295805 673.37239025 227.77261779 673 231 C669.34376592 236.12297915 665.00059716 239.48035606 659.875 243.0625 C658.68583984 243.90603027 658.68583984 243.90603027 657.47265625 244.76660156 C654.98906502 246.52173788 652.49613732 248.26276338 650 250 C649.24879883 250.52513184 648.49759766 251.05026367 647.72363281 251.59130859 C567.48311729 307.55455928 474.33882808 362.68632687 311.35766602 382.28198242 C292.88553778 378.96803799 276.31321256 369.01841317 265 354 C258 343.91570881 258 343.91570881 258 341 C256.52853516 342.14275391 256.52853516 342.14275391 255.02734375 343.30859375 C238.70572808 355.8537956 222.06817838 365.86391565 202.25 371.8125 C201.6017627 372.0074707 200.95352539 372.20244141 200.28564453 372.40332031 C188.35625498 375.77770987 176.68231884 376.37055414 164.375 376.3125 C163.1774559 376.30976578 163.1774559 376.30976578 161.95571899 376.30697632 C135.91061796 376.20668349 111.19590552 372.16205031 92 353 C91.42378906 352.43539063 90.84757813 351.87078125 90.25390625 351.2890625 C78.24065261 338.49572746 75.5437638 320.75667427 75.7890625 303.9453125 C76.77500804 273.04017995 90.452105 244.94265859 104.81420898 218.23217773 C105.90966794 216.17004447 106.96573634 214.09337359 108 212 C106.95380493 212.40726318 106.95380493 212.40726318 105.88647461 212.82275391 C80.9745468 222.45490402 54.16035315 232.46373161 27 231 C26.87794189 231.87873779 26.75588379 232.75747559 26.63012695 233.6628418 C26.03075122 236.83714126 25.1700481 239.42726012 23.91796875 242.39453125 C23.27130249 243.93234253 23.27130249 243.93234253 22.61157227 245.5012207 C22.14162842 246.59394287 21.67168457 247.68666504 21.1875 248.8125 C20.69757568 249.9574292 20.20765137 251.1023584 19.70288086 252.28198242 C6.3729472 283.13560803 -8.96017602 314.31152508 -31 340 C-31.77601563 340.97453125 -32.55203125 341.9490625 -33.3515625 342.953125 C-48.95340663 361.63601791 -78.33384973 373.43780401 -102 376 C-106.31454022 376.28991522 -110.61379809 376.40440635 -114.9375 376.4375 C-115.95529541 376.44773193 -116.97309082 376.45796387 -118.02172852 376.46850586 C-133.62626121 376.28724941 -147.47788223 371.19964633 -158.8125 360.35546875 C-162.08088504 356.83611843 -164.6654358 353.19043226 -167 349 C-167.37769531 348.33871094 -167.75539063 347.67742187 -168.14453125 346.99609375 C-173.68155921 336.06720336 -174.18915592 322.99636368 -175 311 C-175.49814209 311.75506836 -175.99628418 312.51013672 -176.50952148 313.28808594 C-178.40207866 316.15285164 -180.29799284 319.01533956 -182.19604492 321.87646484 C-183.00887324 323.10314026 -183.82044607 324.33064874 -184.63061523 325.55908203 C-204.17620608 355.18684917 -228.33582867 388.17498617 -264.3125 397.9375 C-282.32747016 401.50065749 -300.96032486 398.9647313 -316.625 389.25 C-328.64620752 380.84560796 -334.35622926 368.12641681 -337 354 C-340.93490468 331.31643184 -335.50450709 307.11549224 -328.6875 285.5 C-325.52437254 274.69372373 -325.72910636 264.0834487 -331 254 C-334.41710263 248.58116269 -338.79633364 244.80762003 -345 243 C-354.6909799 241.6094304 -361.7025146 244.42720416 -369.4375 250.0625 C-390.17011732 267.10055057 -403.42486048 292.89608893 -414.87158203 316.67382812 C-416.14424229 319.29734758 -417.44525139 321.9059678 -418.74609375 324.515625 C-426.65616591 340.52545929 -433.75075717 356.82287548 -440.64404297 373.29248047 C-451.58825771 399.33566653 -451.58825771 399.33566653 -459 406 C-462.08680606 406.85098592 -464.87029337 406.62367342 -468 406 C-471.49890004 403.88608123 -472.70578686 402.88263941 -474 399 C-474.08266486 397.08093083 -474.10740663 395.15910526 -474.09765625 393.23828125 C-474.09443359 392.12001953 -474.09121094 391.00175781 -474.08789062 389.84960938 C-474.07951172 388.68236328 -474.07113281 387.51511719 -474.0625 386.3125 C-474.05798828 385.13365234 -474.05347656 383.95480469 -474.04882812 382.74023438 C-474.03703273 379.82677211 -474.0205727 376.91341137 -474 374 C-474.69222656 374.60585938 -475.38445312 375.21171875 -476.09765625 375.8359375 C-497.3870844 394.06799059 -522.99579532 408.63961377 -551 413 C-551.74378906 413.12890625 -552.48757813 413.2578125 -553.25390625 413.390625 C-571.6895276 416.04927248 -593.08927077 414.27686339 -608.4375 402.9375 C-609.63490359 401.97046936 -610.82197928 400.99055075 -612 400 C-612.80566406 399.401875 -613.61132812 398.80375 -614.44140625 398.1875 C-626.97232095 387.47404621 -632.47298979 369.88747398 -634 354 C-637.20658951 303.82849217 -616.68039692 249.78743272 -584 212 C-566.92623137 192.88644485 -543.37280936 179.27007215 -517.421875 177.796875 C-505.19536064 177.64079184 -494.84082757 179.29191151 -485 187 C-475.82182635 196.33641802 -472.09090728 207.66685262 -471.96484375 220.609375 C-472.79860297 240.21288456 -480.60770992 258.88745112 -493 274 C-493.42764648 274.53689453 -493.85529297 275.07378906 -494.29589844 275.62695312 C-522.54197219 310.98936303 -567.81484762 331.6615839 -612.28125 336.65625 C-613.5084375 336.7696875 -614.735625 336.883125 -616 337 C-614.24824844 362.87882148 -614.24824844 362.87882148 -600.875 384.375 C-589.08824217 393.96156303 -574.31847096 395.8508196 -559.625 394.4375 C-533.07157905 391.32595846 -508.99352394 378.36279711 -489 361 C-488.319375 360.46375 -487.63875 359.9275 -486.9375 359.375 C-482.51731745 355.81033666 -478.96556955 351.73281497 -475.4375 347.3125 C-475.00244141 346.77278564 -474.56738281 346.23307129 -474.11914062 345.67700195 C-466.59669004 335.98385913 -461.98474186 326.14343047 -458.875 314.3125 C-458.11820149 311.56355388 -457.346222 308.81892834 -456.57421875 306.07421875 C-456.37244522 305.3519812 -456.17067169 304.62974365 -455.96278381 303.88562012 C-449.68080439 281.52816485 -442.40545756 259.39548507 -434.5 237.5625 C-434.25655853 236.88576233 -434.01311707 236.20902466 -433.76229858 235.51177979 C-426.111407 214.33116139 -426.111407 214.33116139 -422.03320312 211.76000977 C-419.14521811 210.68048319 -417.06188524 210.62507528 -414 211 C-411.30009338 212.79993774 -409.4581135 214.083773 -408 217 C-408.33448222 224.2305092 -410.29800397 229.86762011 -413.0625 236.5 C-418.30509013 249.60942393 -422.75556667 262.95308673 -427.125 276.375 C-427.47184845 277.44031952 -427.8186969 278.50563904 -428.17605591 279.60324097 C-433.48815286 295.96791921 -438.54543422 312.3791278 -443 329 C-442.23834635 327.47669271 -441.47674357 325.95335997 -440.71533203 324.42993164 C-440.01526253 323.0302915 -439.31438371 321.63105595 -438.61279297 320.23217773 C-436.51334991 316.04273237 -434.43133491 311.84559426 -432.37109375 307.63671875 C-417.35715766 277.07523333 -397.69190924 237.844596 -364.00390625 224.84375 C-352.09791647 221.49954481 -339.70107353 222.80189103 -328.86328125 228.79296875 C-318.94701118 235.21671603 -311.97190873 244.93913199 -308.67578125 256.30859375 C-305.44870882 273.93624375 -309.22922294 289.98274848 -314.0546875 306.85546875 C-319.19534331 325.11781273 -322.21637533 348.04070266 -312.71484375 365.33984375 C-307.85994822 372.60190196 -300.52857956 377.29428409 -292 379 C-289.29901118 379.43564336 -286.71572729 379.78640347 -284 380 C-282.96746094 380.08121094 -282.96746094 380.08121094 -281.9140625 380.1640625 C-262.90684567 380.91886172 -247.56920786 369.637935 -234.20703125 357.453125 C-228.30440566 351.70607248 -223.02295125 345.52128534 -218 339 C-217.50016602 338.35482422 -217.00033203 337.70964844 -216.48535156 337.04492188 C-200.54422321 316.33003064 -187.50763534 293.90423276 -175 271 C-174.45005371 270.00307129 -173.90010742 269.00614258 -173.33349609 267.97900391 C-164.21255201 251.42974477 -155.70146879 234.58622036 -147.25 217.6875 C-146.46150162 216.11199875 -146.46150162 216.11199875 -145.65707397 214.50466919 C-140.21301713 203.61538596 -134.83028943 192.70147368 -129.6015625 181.70703125 C-123.84416392 169.60439923 -117.90754555 157.59344314 -111.92138672 145.60253906 C-110.72365231 143.20267757 -109.5297793 140.80095696 -108.33935547 138.39746094 C-100.78769455 123.15359345 -92.91469397 108.17872652 -84.40374756 93.44775391 C-82.22835533 89.6544616 -80.11072597 85.82956079 -78 82 C-138.3123251 79.43553893 -230.50982718 95.26617608 -276.03515625 136.859375 C-276.62167969 137.40078125 -277.20820313 137.9421875 -277.8125 138.5 C-281.03097381 141.31127031 -283.65171799 142.08052374 -288 142 C-290.92346557 140.63571607 -292.72750909 139.27249091 -295 137 C-295.79131526 133.87365612 -295.70763544 131.13886864 -295 128 C-274.25344003 95.69285692 -215.99362392 83.57064677 -181.29296875 75.94921875 C-158.8907058 71.12255581 -136.23071278 66.62406362 -113.4375 64.125 C-112.37354004 64.00745361 -111.30958008 63.88990723 -110.21337891 63.76879883 C-103.76788238 63.14246281 -97.40893428 62.9653822 -90.94140625 62.984375 C-74.56131672 63.82936499 -74.56131672 63.82936499 -60.4296875 57.48046875 C-57.69483246 53.96812374 -55.77208285 50.17072568 -53.99169922 46.10449219 C-52.56804234 43.08333948 -50.60365688 40.71283162 -48.4375 38.1875 C-47.35275391 36.89972656 -47.35275391 36.89972656 -46.24609375 35.5859375 C-45.50488281 34.73257813 -44.76367188 33.87921875 -44 33 C-43.20722656 32.08476563 -42.41445313 31.16953125 -41.59765625 30.2265625 C-36.08768454 24.04545138 -30.26032016 18.2576163 -24.25 12.5625 C-23.18652344 11.55086792 -23.18652344 11.55086792 -22.1015625 10.51879883 C-8.4640957 -2.24557641 -8.4640957 -2.24557641 0 0 Z M7.8671875 151.23046875 C-0.81717057 159.46062399 -5.46197946 170.92969185 -6.25 182.75 C-6.14246603 189.87412538 -3.50495648 196.52099887 1 202 C5.39238122 205.92210485 9.33117943 208.28804849 15 210 C17.98074077 203.30284628 20.57101998 196.5571954 22.75 189.5625 C22.96035889 188.88896484 23.17071777 188.21542969 23.38745117 187.52148438 C25.36701812 181.03789659 26.20316368 175.30107502 26.25 168.5625 C26.270625 167.82451172 26.29125 167.08652344 26.3125 166.32617188 C26.35205572 160.7636494 25.35929955 156.64870696 21.53515625 152.35546875 C16.15008066 148.08454673 13.60926739 146.75756102 7.8671875 151.23046875 Z M289.85546875 180.1328125 C268.83367448 205.25945417 261.55188549 240.88788551 261.73925781 272.88891602 C261.75001185 275.06489791 261.73926597 277.24005787 261.7265625 279.41601562 C261.71891192 288.45938877 262.44824177 297.07032068 264 306 C291.36849233 279.59359581 309.48694519 230.18380412 310.34204102 192.73706055 C310.35291748 191.81320557 310.36379395 190.88935059 310.375 189.9375 C310.38909912 189.06843018 310.40319824 188.19936035 310.41772461 187.30395508 C310.3738395 181.55500554 309.30326314 177.27069474 307 172 C299.9768554 171.52596893 294.71040064 175.30441029 289.85546875 180.1328125 Z M-567 222 C-567.84433594 222.81984375 -568.68867187 223.6396875 -569.55859375 224.484375 C-577.4998027 232.66699671 -583.26333015 242.20267155 -589 252 C-589.44907715 252.76344727 -589.8981543 253.52689453 -590.36083984 254.31347656 C-600.58954991 271.97395393 -613 297.16233358 -613 318 C-590.65867867 314.57576747 -568.71978924 308.22461386 -549 297 C-548.05858154 296.48252197 -548.05858154 296.48252197 -547.09814453 295.95458984 C-537.45634714 290.64176271 -529.08456457 284.45946937 -521 277 C-520.030625 276.113125 -519.06125 275.22625 -518.0625 274.3125 C-503.29132831 260.19782483 -491.22646773 241.22773666 -490.5625 220.375 C-490.76204246 212.18544494 -492.24707048 206.30443258 -498.25 200.5625 C-519.10833637 184.438604 -552.2790542 207.45604942 -567 222 Z M-445 332 C-444 334 -444 334 -444 334 Z " fill="#6F7F6F" transform="translate(728,1)"/>
<path d="M0 0 C3.22622401 2.41966801 3.86611964 3.50910533 4.9375 7.4375 C5.00754154 11.42986787 4.46465254 12.91918433 2 16 C-1.82585554 18.55057036 -3.44263092 18.51454167 -8 18 C-9.44529086 17.21736137 -10.86101372 16.37869562 -12.25 15.5 C-17.492623 12.39359011 -22.02257705 11.82812159 -28 13 C-39.10422985 17.4579025 -45.51235853 26.39307586 -50.36328125 36.96875 C-61.14402225 62.30254512 -59.51075379 89.76819357 -57.5 116.5625 C-57.35490963 118.55660002 -57.21037514 120.55074057 -57.06640625 122.54492188 C-56.7173221 127.36377089 -56.36079717 132.1820144 -56 137 C-4.6255522 123.21106028 42.17466324 95.33957969 81.55859375 59.68359375 C88.62544615 53.49875337 88.62544615 53.49875337 93.875 53.25 C96.79310986 53.54902893 97.98410153 53.98966599 100.5 55.625 C102.37256368 58.58989249 102.92967856 60.48392794 103 64 C101.04597442 68.95244415 98.27185128 71.92670965 94.1875 75.1875 C93.32862183 75.89241577 93.32862183 75.89241577 92.45239258 76.61157227 C90.64497115 78.0873342 88.82453156 79.54546464 87 81 C86.14921875 81.68352539 86.14921875 81.68352539 85.28125 82.38085938 C81.22398741 85.63512208 77.12088814 88.82687215 73 92 C72.39349609 92.47018555 71.78699219 92.94037109 71.16210938 93.42480469 C54.69507589 106.15873581 37.40980386 117.65481161 19.21289062 127.76806641 C17.79075473 128.55978063 16.37241914 129.3583817 14.95898438 130.16552734 C-4.63628058 141.35382279 -33.89566087 157 -57 157 C-56.96519531 157.59683594 -56.93039062 158.19367188 -56.89453125 158.80859375 C-56.22502544 180.26466089 -63.33940203 205.44447588 -77.1875 222.10546875 C-83.85584999 229.07561907 -92.5762119 234.53899874 -102.3203125 235.23828125 C-112.8487225 235.44366091 -121.49821294 234.20980584 -129.46875 226.765625 C-136.08444319 219.1373257 -138.51143 210.19649979 -138.3125 200.25 C-136.88931619 185.44888836 -129.14619296 174.31586173 -119 164 C-118.31164062 163.29875 -117.62328125 162.5975 -116.9140625 161.875 C-105.59717566 151.10502591 -91.2085883 144.93623952 -76 142 C-75.76522376 130.43400935 -76.49372367 119.07839836 -77.5 107.5625 C-77.64510416 105.84835569 -77.78963862 104.13416306 -77.93359375 102.41992188 C-78.28252194 98.27936351 -78.63906716 94.13952847 -79 90 C-79.50281494 90.46253174 -80.00562988 90.92506348 -80.52368164 91.40161133 C-84.61289167 95.08454787 -88.49322776 98.18813105 -93.4375 100.6875 C-94.01951172 100.98744873 -94.60152344 101.28739746 -95.20117188 101.59643555 C-98.62157635 103.24594449 -101.70047148 104.21072249 -105.47265625 104.6953125 C-112.02050777 105.43827746 -112.02050777 105.43827746 -118 108 C-121.25208045 112.50541774 -122.09308041 118.26550457 -123.33691406 123.57958984 C-124.40375604 127.47379874 -126.09752231 130.98080835 -127.9375 134.5625 C-128.2778125 135.22531982 -128.618125 135.88813965 -128.96875 136.57104492 C-131.7712086 141.85306434 -134.98844903 146.55200714 -139 151 C-139.7425 151.87978516 -139.7425 151.87978516 -140.5 152.77734375 C-149.95775644 163.20452022 -163.63253951 170.53941442 -177.6875 171.3359375 C-186.0893713 171.60414378 -194.23581199 171.55241878 -202 168 C-202.89847656 167.5978125 -203.79695313 167.195625 -204.72265625 166.78125 C-216.81143503 160.79505968 -224.95935146 151.14101464 -229.8125 138.625 C-236.03881309 119.61836004 -231.68578058 99.74469567 -222.99414062 82.36352539 C-218.13740881 73.0687044 -218.13740881 73.0687044 -214 71 C-210.01441034 70.62400098 -207.67420375 70.63358492 -204.125 72.5625 C-201.26837136 75.83922108 -201.11243895 77.65380222 -201 82 C-202.08283303 85.26132886 -203.6469693 88.21702583 -205.25 91.25 C-211.70261742 104.22215272 -216.05967417 117.2297601 -211.9375 131.875 C-208.64840971 140.02087783 -202.90692466 146.24381623 -195 150 C-186.27396274 153.45748646 -177.35410494 152.89675908 -168.76171875 149.37890625 C-152.07238793 141.04604376 -144.61865706 126.44844261 -138.8046875 109.51953125 C-138.53914063 108.68808594 -138.27359375 107.85664062 -138 107 C-139.02996094 106.74347656 -140.05992187 106.48695313 -141.12109375 106.22265625 C-162.02404653 100.72683486 -180.37363392 90.54776777 -192.25390625 72.0625 C-196.9505379 63.82500735 -198.52450104 55.77894795 -196.4140625 46.39453125 C-192.7839274 35.6539939 -183.82433942 28.92719163 -174 24 C-162.43718506 18.7411104 -149.95517948 16.90097655 -137.43359375 19.8359375 C-126.73416995 23.90800429 -120.91641887 30.82839204 -116.18359375 41.05078125 C-111.98398905 51.51514281 -111.73753951 62.75131439 -112.375 73.875 C-112.41882813 74.79796875 -112.46265625 75.7209375 -112.5078125 76.671875 C-112.71200729 80.58560845 -112.94142082 84.21225447 -114 88 C-105.36747147 84.64768095 -97.84821799 81.39350734 -91 75 C-90.41089844 74.46375 -89.82179688 73.9275 -89.21484375 73.375 C-80.31253758 64.29018641 -75.23114485 51.79606088 -71.875 39.75 C-67.35380546 23.52734354 -59.00655862 8.75226619 -44.51953125 -0.6015625 C-29.66543651 -8.84616082 -14.39685414 -9.46326284 0 0 Z M-178.1875 50.4375 C-179.42482815 54.33984263 -178.57748447 57.36639262 -177 61 C-168.9999352 74.82561534 -155.02649712 82.4516572 -140.3203125 87.1171875 C-136.92832952 88.17130328 -136.92832952 88.17130328 -133 88 C-131.26279981 81.23806937 -130.663317 75.03204102 -130.6875 68.0625 C-130.67138672 67.13759766 -130.65527344 66.21269531 -130.63867188 65.25976562 C-130.63240782 56.32096057 -132.28328516 48.10258511 -138 41 C-142.39801686 37.13507609 -146.43894911 36.64378935 -152.1171875 36.7265625 C-162.74511191 37.73463121 -171.14449668 42.58958201 -178.1875 50.4375 Z M-107.671875 178.51171875 C-113.92615358 185.19624133 -119.44479978 193.75531425 -120.16015625 203.08984375 C-119.919764 208.09961817 -117.88201969 210.9994808 -114.5703125 214.65234375 C-112.13826562 216.73954816 -109.95687522 217.00422792 -106.8125 217.3125 C-99.96405121 216.75115174 -95.61208792 213.97102538 -90.875 209.0625 C-79.74353334 195.6829136 -76.81235719 177.81199763 -75 161 C-86.57876432 161 -99.61488853 170.9741292 -107.671875 178.51171875 Z " fill="#6F7F6F" transform="translate(573,412)"/>
<path d="M0 0 C1.01642578 -0.020625 2.03285156 -0.04125 3.08007812 -0.0625 C10.7813231 -0.10227402 16.88907162 0.45367721 22.6875 6 C27.41959974 13.23732901 27.49304257 20.82828571 26.8125 29.25 C25.65179629 34.40062271 22.81544269 37.86289464 18.8125 41.25 C18.1525 41.25 17.4925 41.25 16.8125 41.25 C16.8125 41.91 16.8125 42.57 16.8125 43.25 C17.555 43.4975 18.2975 43.745 19.0625 44 C23.07866652 45.82553024 25.19517828 47.77283732 26.90625 51.8671875 C28.93537483 59.44142069 29.08636072 69.38241438 26.8125 76.9375 C23.70773757 82.07976277 20.14484237 85.04077208 14.4765625 87.09765625 C8.45465115 88.49659258 2.44777176 88.3220551 -3.6875 88.0625 C-4.47753418 88.032771 -5.26756836 88.00304199 -6.08154297 87.97241211 C-11.56351405 87.63222936 -11.56351405 87.63222936 -13.90545654 86.19764709 C-15.90353609 83.16221658 -15.5874879 80.01878857 -15.54394531 76.50561523 C-15.54701187 75.32471817 -15.54701187 75.32471817 -15.55014038 74.1199646 C-15.55315021 71.51593858 -15.53466658 68.91254458 -15.515625 66.30859375 C-15.51256781 64.50163429 -15.51069138 62.69467247 -15.50994873 60.88771057 C-15.50534451 57.10058577 -15.49091322 53.31367348 -15.46875 49.52661133 C-15.44044737 44.66507395 -15.4295366 39.80370388 -15.4250679 34.94209194 C-15.42091708 31.21127133 -15.41110275 27.48048475 -15.39919281 23.74968147 C-15.39348427 21.95666846 -15.3887275 20.16365215 -15.38492584 18.37063408 C-15.37807338 15.86869391 -15.36444629 13.36688778 -15.34863281 10.86499023 C-15.34751495 10.1194841 -15.34639709 9.37397797 -15.34524536 8.60588074 C-15.30219431 3.47938862 -15.30219431 3.47938862 -14.1875 1.25 C-9.53621977 -0.30042674 -4.87207964 0.02425429 0 0 Z M-6.1875 8.25 C-6.1875 18.48 -6.1875 28.71 -6.1875 39.25 C6.3622567 39.97260662 6.3622567 39.97260662 15.97265625 34.140625 C18.31793564 30.4558973 18.33455269 27.40946018 18.1875 23.1875 C18.18621094 22.48044922 18.18492187 21.77339844 18.18359375 21.04492188 C18.12083869 17.33191437 17.96742719 14.34348433 15.8125 11.25 C9.02183642 6.2946509 1.80220913 6.65205817 -6.1875 8.25 Z M-6.1875 46.25 C-6.1875 57.14 -6.1875 68.03 -6.1875 79.25 C0.17740599 81.37163533 7.68527076 80.8931185 13.8125 78.25 C16.56100143 75.88700267 18.43899267 73.34179065 19.625 69.875 C20.07494497 63.57577043 20.27253975 58.17645941 17.8125 52.25 C15.48060512 49.72920861 12.8962032 47.7918516 9.8125 46.25 C4.5325 46.25 -0.7475 46.25 -6.1875 46.25 Z " fill="#6F7F6F" transform="translate(359.1875,947.75)"/>
<path d="M0 0 C1.01642578 -0.020625 2.03285156 -0.04125 3.08007812 -0.0625 C10.10120517 -0.09876147 16.13360467 0.3168267 21.8359375 4.86328125 C22.28195312 5.42402344 22.72796875 5.98476563 23.1875 6.5625 C23.64898438 7.11550781 24.11046875 7.66851563 24.5859375 8.23828125 C28.49938837 14.65683921 28.11906217 21.31073132 28.11328125 28.5859375 C28.11756638 29.7792569 28.1218515 30.97257629 28.12626648 32.20205688 C28.13199989 34.72193773 28.13251735 37.24183512 28.12817383 39.76171875 C28.12501688 43.60445588 28.14847634 47.44642063 28.17382812 51.2890625 C28.17610159 53.74218653 28.17680439 56.19531263 28.17578125 58.6484375 C28.184991 59.79138275 28.19420074 60.934328 28.20368958 62.11190796 C28.16288548 69.19453626 27.82405755 75.55334879 23.1640625 81.2734375 C14.84437082 87.78613733 6.9186873 88.56025276 -3.4375 88 C-4.23929688 87.97292969 -5.04109375 87.94585938 -5.8671875 87.91796875 C-6.63804687 87.87800781 -7.40890625 87.83804687 -8.203125 87.796875 C-9.24388184 87.74805176 -9.24388184 87.74805176 -10.30566406 87.69824219 C-12.89728522 87.08093336 -13.620236 86.43243248 -15.1875 84.25 C-15.4731674 81.58964229 -15.57690887 79.16523367 -15.54394531 76.50561523 C-15.54701187 75.32471817 -15.54701187 75.32471817 -15.55014038 74.1199646 C-15.55315021 71.51593858 -15.53466658 68.91254458 -15.515625 66.30859375 C-15.51256781 64.50163429 -15.51069138 62.69467247 -15.50994873 60.88771057 C-15.50534451 57.10058577 -15.49091322 53.31367348 -15.46875 49.52661133 C-15.44044737 44.66507395 -15.4295366 39.80370388 -15.4250679 34.94209194 C-15.42091708 31.21127133 -15.41110275 27.48048475 -15.39919281 23.74968147 C-15.39348427 21.95666846 -15.3887275 20.16365215 -15.38492584 18.37063408 C-15.37807338 15.86869391 -15.36444629 13.36688778 -15.34863281 10.86499023 C-15.34751495 10.1194841 -15.34639709 9.37397797 -15.34524536 8.60588074 C-15.30219431 3.47938862 -15.30219431 3.47938862 -14.1875 1.25 C-9.53621977 -0.30042674 -4.87207964 0.02425429 0 0 Z M-6.1875 8.25 C-6.1875 31.68 -6.1875 55.11 -6.1875 79.25 C0.16209958 81.36653319 6.99628962 80.88292471 13.12109375 78.22265625 C15.87268274 76.64033371 17.25108933 74.99808278 18.8125 72.25 C19.88663507 66.65020561 19.97325819 61.15397866 19.98046875 55.4765625 C19.98379715 54.55338226 19.98712555 53.63020203 19.99055481 52.67904663 C19.99559647 50.73427831 19.99796399 48.78950141 19.99780273 46.84472656 C19.99998807 43.89112918 20.01817017 40.93790641 20.03710938 37.984375 C20.04004422 36.08593876 20.04202841 34.18750077 20.04296875 32.2890625 C20.05015427 31.41690094 20.05733978 30.54473938 20.06474304 29.64614868 C20.04108655 23.20562059 19.88930801 16.24983379 16.125 10.8125 C9.229046 6.15307162 1.62907592 6.68668482 -6.1875 8.25 Z " fill="#6F7F6F" transform="translate(649.1875,947.75)"/>
<path d="M0 0 C1.01191406 -0.01611328 2.02382813 -0.03222656 3.06640625 -0.04882812 C9.54941814 -0.05303241 16.14651063 0.12168135 21.27001953 4.65844727 C28.14392663 12.41543468 27.90609184 21.70326743 27.91796875 31.48828125 C27.92296135 32.93608223 27.92296135 32.93608223 27.92805481 34.41313171 C27.93309857 36.44786099 27.93546393 38.48259847 27.93530273 40.51733398 C27.93748571 43.60479593 27.95565922 46.69189817 27.97460938 49.77929688 C27.97754466 51.76562379 27.97952855 53.75195239 27.98046875 55.73828125 C27.98765427 56.64902908 27.99483978 57.55977692 28.00224304 58.49812317 C27.97233762 67.02841351 27.50455248 75.59885544 21.75 82.3125 C14.37455191 88.7885032 5.03738213 88.5531727 -4.25 88.0625 C-4.9922583 88.02423096 -5.7345166 87.98596191 -6.49926758 87.9465332 C-10.18300291 87.68718673 -12.11858901 87.40010733 -15.25 85.3125 C-15.5363593 82.62045852 -15.62835144 80.15930444 -15.59057617 77.46630859 C-15.59101425 76.65647018 -15.59145233 75.84663177 -15.59190369 75.01225281 C-15.58980914 72.32823806 -15.56644717 69.64484348 -15.54296875 66.9609375 C-15.53737515 65.10291892 -15.53310394 63.24489592 -15.53010559 61.38687134 C-15.51863819 56.49096511 -15.4891548 51.59532488 -15.45599365 46.69952393 C-15.42533352 41.70596923 -15.41160895 36.71237165 -15.39648438 31.71875 C-15.36428685 21.91654964 -15.31306771 12.11454692 -15.25 2.3125 C-10.20794953 -0.369634 -5.63121191 -0.01766378 0 0 Z M-7.25 8.3125 C-7.25 31.7425 -7.25 55.1725 -7.25 79.3125 C0.62518641 81.2812966 7.44537519 80.90073675 14.75 77.3125 C18.28554895 73.66290109 18.87427281 70.15101213 18.91113281 65.2019043 C18.92074036 64.16039719 18.9303479 63.11889008 18.94024658 62.04582214 C18.94449646 60.92081802 18.94874634 59.7958139 18.953125 58.63671875 C18.96167511 56.8998455 18.96167511 56.8998455 18.97039795 55.12788391 C18.97984996 52.67584142 18.98638272 50.2237862 18.99023438 47.77172852 C18.99993442 44.02532714 19.03095452 40.27947559 19.0625 36.53320312 C19.06903066 34.15104492 19.07428088 31.7688828 19.078125 29.38671875 C19.0904718 28.26778732 19.1028186 27.1488559 19.11553955 25.99601746 C19.09951747 20.38519643 19.05143288 16.09581479 15.75 11.3125 C8.91779689 6.09845026 0.76743975 6.70901205 -7.25 8.3125 Z " fill="#6F7F6F" transform="translate(840.25,947.6875)"/>
<path d="M0 0 C1.02029297 -0.01611328 2.04058594 -0.03222656 3.09179688 -0.04882812 C10.53882436 -0.05364198 15.53767836 0.7353732 21.4375 5.5625 C26.42512884 11.6584908 27.17151349 17.12511219 27.0625 24.75 C27.07410156 25.55759766 27.08570313 26.36519531 27.09765625 27.19726562 C27.06907391 33.10904556 26.42080491 39.20777902 22.34179688 43.84106445 C19.40557025 46.42620013 16.39478933 48.11308286 12.6875 49.3125 C14.01392747 53.5856138 15.6557467 57.46348659 17.69140625 61.4453125 C18.26697266 62.58097656 18.84253906 63.71664062 19.43554688 64.88671875 C20.34607004 66.66856065 21.25659762 68.45040038 22.16772461 70.23193359 C23.05388813 71.96806153 23.93521087 73.70665764 24.81640625 75.4453125 C25.34306885 76.47543457 25.86973145 77.50555664 26.41235352 78.56689453 C28.41742009 82.88414108 28.41742009 82.88414108 28.6875 85.3125 C26.6875 87.3125 26.6875 87.3125 23.4453125 87.6484375 C18.24660778 85.80024934 17.37736008 83.0588752 15.05078125 78.23046875 C14.55964844 77.14378906 14.06851563 76.05710937 13.5625 74.9375 C12.81419922 73.36548828 12.81419922 73.36548828 12.05078125 71.76171875 C8.00556112 63.2171154 8.00556112 63.2171154 6.55957031 59.10449219 C5.48285539 56.18764222 4.56762483 53.79225432 2.6875 51.3125 C-0.71366576 50.10018384 -3.73582422 50.01386493 -7.3125 50.3125 C-7.30726318 51.39781006 -7.30202637 52.48312012 -7.29663086 53.60131836 C-7.27858164 57.61367982 -7.26706829 61.62603767 -7.25756836 65.63842773 C-7.25252796 67.37769168 -7.2456957 69.11695136 -7.23706055 70.85620117 C-7.22498208 73.35075937 -7.21926892 75.84526173 -7.21484375 78.33984375 C-7.20968246 79.12213852 -7.20452118 79.90443329 -7.19920349 80.71043396 C-7.19900774 82.57817114 -7.25050306 84.44579204 -7.3125 86.3125 C-8.3125 87.3125 -8.3125 87.3125 -11.3125 87.4375 C-14.3125 87.3125 -14.3125 87.3125 -15.3125 86.3125 C-15.40759559 83.69561559 -15.43806 81.105211 -15.42602539 78.48803711 C-15.42617142 77.66859116 -15.42631744 76.8491452 -15.4264679 76.00486755 C-15.42576852 73.28316647 -15.41797501 70.56153295 -15.41015625 67.83984375 C-15.40829216 65.95797259 -15.40686821 64.07610094 -15.40586853 62.19422913 C-15.40204267 57.23101471 -15.39221181 52.26782936 -15.38116455 47.30462646 C-15.3709519 42.24410394 -15.36637122 37.18357673 -15.36132812 32.12304688 C-15.3505896 22.18618512 -15.33351236 12.24934497 -15.3125 2.3125 C-10.2559628 -0.37878498 -5.64720432 -0.01763649 0 0 Z M-7.3125 9.3125 C-7.3125 20.5325 -7.3125 31.7525 -7.3125 43.3125 C5.15450365 44.31172325 5.15450365 44.31172325 15.6875 39.3125 C19.71685878 33.57204365 19.34358349 26.00814656 18.6875 19.3125 C17.82152487 15.11688405 16.70274062 12.11948613 13.25 9.375 C9.52939538 7.83231028 6.27824514 7.1599068 2.25 7.125 C1.13818359 7.10373047 1.13818359 7.10373047 0.00390625 7.08203125 C-2.84539315 7.25727008 -2.84539315 7.25727008 -7.3125 9.3125 Z " fill="#6F7F6F" transform="translate(554.3125,947.6875)"/>
<path d="M0 0 C0.69029297 -0.01611328 1.38058594 -0.03222656 2.09179688 -0.04882812 C7.69903197 -0.05414304 11.60656902 1.23965227 15.890625 4.85546875 C16.35984375 5.39816406 16.8290625 5.94085937 17.3125 6.5 C18.03179688 7.29470703 18.03179688 7.29470703 18.765625 8.10546875 C22.6704934 14.75080202 22.36980233 22.43651917 22.36328125 29.8984375 C22.36756638 30.99539948 22.3718515 32.09236145 22.37626648 33.2225647 C22.38198727 35.53378614 22.38252672 37.84502558 22.37817383 40.15625 C22.3750161 43.66958708 22.39849467 47.18207942 22.42382812 50.6953125 C22.42610174 52.95051978 22.42680432 55.2057293 22.42578125 57.4609375 C22.434991 58.49979095 22.44420074 59.53864441 22.45368958 60.60897827 C22.40721081 68.02972445 21.73662532 75.53726425 17.3359375 81.75 C10.6514654 87.25162313 5.02863691 88.63409809 -3.5625 88.1875 C-9.85004513 87.43123583 -13.82397797 85.54026646 -18.25 80.875 C-21.18984547 76.41079021 -22.18788009 72.78990635 -22.22802734 67.45581055 C-22.24078705 66.30078537 -22.25354675 65.14576019 -22.26669312 63.95573425 C-22.26891876 62.71608414 -22.27114441 61.47643402 -22.2734375 60.19921875 C-22.2800943 58.91570023 -22.2867511 57.6321817 -22.29360962 56.30976868 C-22.30556103 53.59555702 -22.30929276 50.88147242 -22.30810547 48.16723633 C-22.3079026 44.70729262 -22.33517956 41.24817324 -22.36964989 37.78842449 C-22.39738221 34.46701175 -22.39607119 31.14574555 -22.3984375 27.82421875 C-22.41280853 26.59064133 -22.42717957 25.3570639 -22.44198608 24.08610535 C-22.40459563 17.01009887 -21.79113136 12.30826835 -17.9375 6.3125 C-12.54928876 1.06244802 -7.35254405 -0.03413437 0 0 Z M-8.9375 9.3125 C-12.9755066 13.45676994 -14.05636096 16.74735093 -14.09863281 22.4230957 C-14.10824036 23.46460281 -14.1178479 24.50610992 -14.12774658 25.57917786 C-14.13199646 26.70418198 -14.13624634 27.8291861 -14.140625 28.98828125 C-14.14632507 30.14619675 -14.15202515 31.30411224 -14.15789795 32.49711609 C-14.16734996 34.94915858 -14.17388272 37.4012138 -14.17773438 39.85327148 C-14.18743442 43.59967286 -14.21845452 47.34552441 -14.25 51.09179688 C-14.25653066 53.47395508 -14.26178088 55.8561172 -14.265625 58.23828125 C-14.2779718 59.35721268 -14.2903186 60.4761441 -14.30303955 61.62898254 C-14.28695868 67.26038896 -14.2035617 71.48829421 -10.9375 76.3125 C-7.41710707 79.71603342 -4.14317189 80.0342841 0.58984375 80.3828125 C4.89109505 80.26050204 7.64614868 78.48465281 10.875 75.8125 C13.28679242 72.76602536 13.19706556 69.71954484 13.22363281 66.00244141 C13.23324036 64.9176651 13.2428479 63.83288879 13.25274658 62.71524048 C13.2591214 60.95740738 13.2591214 60.95740738 13.265625 59.1640625 C13.27417511 57.35704361 13.27417511 57.35704361 13.28289795 55.51351929 C13.29235005 52.96312336 13.29888276 50.41271522 13.30273438 47.86230469 C13.31244384 43.96007002 13.34346779 40.0583611 13.375 36.15625 C13.38152965 33.67969063 13.38678027 31.20312749 13.390625 28.7265625 C13.4029718 27.55872223 13.4153186 26.39088196 13.42803955 25.18765259 C13.42503845 24.09657196 13.42203735 23.00549133 13.41894531 21.88134766 C13.42259094 20.92443024 13.42623657 19.96751282 13.42999268 18.9815979 C12.88633535 15.03301685 11.10915627 12.39792131 8.375 9.5625 C2.67738133 6.48270612 -3.10643175 6.84550959 -8.9375 9.3125 Z " fill="#6F7F6F" transform="translate(942.9375,947.6875)"/>
<path d="M0 0 C1.06009277 0.01027222 1.06009277 0.01027222 2.14160156 0.02075195 C9.22096041 0.23881711 13.43945058 1.75195058 18.5 6.8125 C21.37914343 11.463424 22.37407593 15.80880327 22.3996582 21.23999023 C22.41395622 22.91719398 22.41395622 22.91719398 22.42854309 24.62828064 C22.42763168 25.82215897 22.42672028 27.01603729 22.42578125 28.24609375 C22.43006638 29.48617691 22.4343515 30.72626007 22.43876648 32.00392151 C22.44596492 35.29084454 22.44289572 38.57758359 22.43719482 41.86450195 C22.43749951 43.87177814 22.44753827 45.87875923 22.46118164 47.88598633 C22.48571109 51.75616228 22.48983586 55.62584967 22.48828125 59.49609375 C22.497491 60.68794785 22.50670074 61.87980194 22.51618958 63.10777283 C22.46811662 71.76172167 21.38465642 77.99899625 15.125 84.4375 C9.36064489 88.37413276 2.44027279 88.86902728 -4.375 88.1875 C-9.82530473 87.15636127 -14.65764692 85.42239838 -18.09375 80.796875 C-21.22375462 75.65472455 -21.99144593 71.05917929 -22.03613281 65.14746094 C-22.04574036 64.11578796 -22.0553479 63.08411499 -22.06524658 62.0211792 C-22.06949646 60.91590881 -22.07374634 59.81063843 -22.078125 58.671875 C-22.08382507 57.52390442 -22.08952515 56.37593384 -22.09539795 55.19317627 C-22.1048345 52.76567503 -22.11137658 50.33816105 -22.11523438 47.91064453 C-22.12492803 44.21493934 -22.15596023 40.51979325 -22.1875 36.82421875 C-22.19403182 34.46094079 -22.19928159 32.09765886 -22.203125 29.734375 C-22.2216452 28.08861481 -22.2216452 28.08861481 -22.24053955 26.40960693 C-22.21818966 18.63259554 -21.55735991 11.77232584 -16.5625 5.5625 C-11.26096723 1.37059037 -6.71745281 -0.09934709 0 0 Z M-11.25 12.8125 C-13.70223063 16.77379563 -13.99679007 20.58619078 -14.03613281 25.17675781 C-14.04574036 26.08830627 -14.0553479 26.99985474 -14.06524658 27.93902588 C-14.06949646 28.91305359 -14.07374634 29.8870813 -14.078125 30.890625 C-14.08382507 31.90541931 -14.08952515 32.92021362 -14.09539795 33.96575928 C-14.10482964 36.11078861 -14.11137464 38.25583231 -14.11523438 40.40087891 C-14.12492436 43.66204481 -14.15595925 46.92257601 -14.1875 50.18359375 C-14.19403238 52.27343378 -14.19928193 54.36327829 -14.203125 56.453125 C-14.2154718 57.41905579 -14.2278186 58.38498657 -14.24053955 59.38018799 C-14.22115738 65.34872525 -13.76031067 71.09214397 -10.875 76.4375 C-6.84521926 79.89978493 -2.94122401 80.74308275 2.3125 80.5 C5.88170524 79.95721764 7.1378378 79.42787165 10.125 77.1875 C13.18470208 72.98040964 14.37230171 69.48748254 14.3996582 64.29931641 C14.40919022 63.30122955 14.41872223 62.3031427 14.42854309 61.27481079 C14.42763168 60.20701385 14.42672028 59.13921692 14.42578125 58.0390625 C14.43006638 56.93074066 14.4343515 55.82241882 14.43876648 54.68051147 C14.44450286 52.3387724 14.44501515 49.99701551 14.44067383 47.65527344 C14.43751755 44.08237107 14.46096991 40.51029984 14.48632812 36.9375 C14.48860162 34.65885521 14.48930438 32.3802082 14.48828125 30.1015625 C14.497491 29.03781403 14.50670074 27.97406555 14.51618958 26.87808228 C14.47946736 20.95663203 14.03399206 16.64297211 11.125 11.4375 C4.11006934 5.42470229 -4.93604307 6.49854307 -11.25 12.8125 Z " fill="#6F7F6F" transform="translate(461.875,947.5625)"/>
<path d="M0 0 C0.98871094 -0.01417969 1.97742188 -0.02835938 2.99609375 -0.04296875 C5.5625 0.1875 5.5625 0.1875 7.5625 2.1875 C8.2449681 4.65731794 8.82496584 7.08328247 9.35009766 9.5871582 C9.59925179 10.7313472 9.59925179 10.7313472 9.85343933 11.89865112 C10.40191199 14.42698714 10.93945924 16.95750757 11.4765625 19.48828125 C11.85434118 21.2447533 12.23263384 23.00111487 12.61141968 24.75737 C13.40453835 28.44263742 14.19245266 32.12896764 14.9765625 35.81616211 C15.98122176 40.53916754 16.99702626 45.25968828 18.01655006 49.97950459 C18.79941564 53.60836387 19.57715917 57.23830568 20.35328293 60.86861229 C20.72588411 62.60921021 21.09988053 64.34951007 21.47529984 66.08950233 C21.99984 68.52517122 22.5176693 70.96217248 23.03369141 73.3996582 C23.18951187 74.11724808 23.34533234 74.83483795 23.50587463 75.57417297 C24.25680221 79.1570847 24.84152177 82.52296205 24.5625 86.1875 C23.5625 87.1875 23.5625 87.1875 20.5 87.25 C19.530625 87.229375 18.56125 87.20875 17.5625 87.1875 C14.73228744 81.34055658 13.49550505 75.62439556 12.375 69.25 C11.776875 65.929375 11.17875 62.60875 10.5625 59.1875 C3.6325 59.1875 -3.2975 59.1875 -10.4375 59.1875 C-10.77523437 60.95738281 -11.11296875 62.72726562 -11.4609375 64.55078125 C-11.91110276 66.86725663 -12.36164306 69.18365915 -12.8125 71.5 C-13.03421875 72.66724609 -13.2559375 73.83449219 -13.484375 75.03710938 C-13.70351563 76.15537109 -13.92265625 77.27363281 -14.1484375 78.42578125 C-14.34743652 79.45743408 -14.54643555 80.48908691 -14.75146484 81.55200195 C-15.4375 84.1875 -15.4375 84.1875 -17.4375 87.1875 C-20.5 87.4375 -20.5 87.4375 -23.4375 87.1875 C-23.7675 86.8575 -24.0975 86.5275 -24.4375 86.1875 C-24.41503289 77.05350757 -22.08545417 68.06505068 -20.12890625 59.1953125 C-19.79836776 57.6761142 -19.46829301 56.15681494 -19.13865662 54.63742065 C-18.45102395 51.47479926 -17.75888378 48.31321079 -17.06323242 45.15234375 C-16.17361172 41.10908717 -15.29385119 37.06376236 -14.41722202 33.01767159 C-13.73853612 29.88908136 -13.05549079 26.76145587 -12.37104607 23.63412094 C-12.0449722 22.14248621 -11.7200533 20.65059851 -11.39633369 19.15845108 C-10.94373324 17.0761799 -10.48546807 14.99523499 -10.02563477 12.91455078 C-9.7666188 11.7330545 -9.50760284 10.55155823 -9.24073792 9.33425903 C-6.86948736 0.04466507 -6.86948736 0.04466507 0 0 Z M-0.4375 8.1875 C-1.72325022 13.97071632 -3.00489208 19.75482182 -4.28271484 25.53979492 C-4.71810571 27.50814474 -5.15462338 29.47624567 -5.59228516 31.4440918 C-6.22073169 34.27067613 -6.84513663 37.09812722 -7.46875 39.92578125 C-7.66561401 40.80712234 -7.86247803 41.68846344 -8.06530762 42.59651184 C-8.24549438 43.41713608 -8.42568115 44.23776031 -8.61132812 45.08325195 C-8.77121216 45.80495071 -8.93109619 46.52664948 -9.0958252 47.2702179 C-9.5252219 49.35516327 -9.5252219 49.35516327 -9.4375 52.1875 C-3.1675 52.1875 3.1025 52.1875 9.5625 52.1875 C8.05130565 42.50975032 6.06336925 32.99317492 3.9375 23.4375 C3.6090932 21.95058304 3.28096643 20.46360421 2.953125 18.9765625 C2.15946823 15.37949117 1.36205605 11.78326525 0.5625 8.1875 C0.2325 8.1875 -0.0975 8.1875 -0.4375 8.1875 Z " fill="#6F7F6F" transform="translate(749.4375,947.8125)"/>
<path d="M0 0 C1.46276367 -0.00193359 1.46276367 -0.00193359 2.95507812 -0.00390625 C3.96634766 -0.00003906 4.97761719 0.00382813 6.01953125 0.0078125 C7.04240234 0.00394531 8.06527344 0.00007812 9.11914062 -0.00390625 C10.09044922 -0.00261719 11.06175781 -0.00132812 12.0625 0 C13.39897583 0.00169189 13.39897583 0.00169189 14.76245117 0.00341797 C16.83203125 0.1328125 16.83203125 0.1328125 17.83203125 1.1328125 C17.95703125 4.1328125 17.95703125 4.1328125 17.83203125 7.1328125 C16.27396522 8.69087853 14.73415388 8.27809239 12.5703125 8.30859375 C11.69826172 8.33244141 10.82621094 8.35628906 9.92773438 8.38085938 C8.09202311 8.42337058 6.25601917 8.45486639 4.41992188 8.47460938 C-1.39431762 8.65803733 -4.69150897 9.34393694 -9.16796875 13.1328125 C-11.5322222 16.14186235 -11.43412316 19.2770947 -11.53125 23.03515625 C-10.61462846 28.32790642 -6.89579967 31.57209718 -3.04296875 35.0078125 C-2.06714844 35.87921875 -1.09132813 36.750625 -0.0859375 37.6484375 C2.43162091 39.79190088 4.9885837 41.79178002 7.64453125 43.7578125 C14.02691651 48.6303862 18.36952376 54.08902132 19.83203125 62.1328125 C20.47995237 69.1303606 18.83604737 75.84983066 14.58203125 81.5078125 C9.25481025 86.59288709 2.95617846 88.13222822 -4.30908203 88.13305664 C-6.55773444 88.04600089 -8.79800396 87.91263766 -11.04296875 87.7578125 C-11.81382813 87.71398438 -12.5846875 87.67015625 -13.37890625 87.625 C-19.0342164 87.26656485 -19.0342164 87.26656485 -20.16796875 86.1328125 C-20.20877658 84.13322886 -20.21051231 82.13235996 -20.16796875 80.1328125 C-19.21543213 80.07335449 -19.21543213 80.07335449 -18.24365234 80.01269531 C-15.34187513 79.82111345 -12.44276956 79.60221735 -9.54296875 79.3828125 C-8.04443359 79.29 -8.04443359 79.29 -6.515625 79.1953125 C-0.58655995 78.72412852 3.3480583 78.16693703 7.83203125 74.1328125 C9.84599351 71.23410381 10.15259631 68.75253539 10.20703125 65.2578125 C10.24957031 64.02417969 10.24957031 64.02417969 10.29296875 62.765625 C9.18879321 56.45872405 4.65938635 52.8650026 -0.29296875 49.3203125 C-1.45146178 48.45743041 -2.60768449 47.59149257 -3.76171875 46.72265625 C-4.3340625 46.29194824 -4.90640625 45.86124023 -5.49609375 45.41748047 C-8.00470052 43.4898682 -10.40892712 41.46183704 -12.79296875 39.3828125 C-13.56898437 38.70734375 -14.345 38.031875 -15.14453125 37.3359375 C-19.28450842 32.82831756 -20.95006853 27.9110403 -21.41796875 21.9453125 C-20.97049025 15.12126543 -19.09161867 9.05646242 -14.16796875 4.1328125 C-9.47006506 0.84427992 -5.66469772 0.00714402 0 0 Z " fill="#6F7F6F" transform="translate(1038.16796875,947.8671875)"/>
<path d="M0 0 C2.09375 -0.36328125 2.09375 -0.36328125 4.5 -0.3125 C5.69109375 -0.30669922 5.69109375 -0.30669922 6.90625 -0.30078125 C9 0 9 0 11 2 C11.265625 4.09375 11.265625 4.09375 11.25 6.5 C11.25515625 7.2940625 11.2603125 8.088125 11.265625 8.90625 C11 11 11 11 9 13 C6.90625 13.30078125 6.90625 13.30078125 4.5 13.3125 C3.7059375 13.32925781 2.911875 13.34601562 2.09375 13.36328125 C1.4028125 13.24339844 0.711875 13.12351562 0 13 C-2.45811625 9.31282562 -2.31118164 7.35654296 -2 3 C-1.34 2.01 -0.68 1.02 0 0 Z " fill="#6F7F6F" transform="translate(1113,985)"/>
<path d="M0 0 C2.50041894 0.08168338 3.83455801 0.19140582 6.0625 1.375 C7.62896819 4.41003213 7.3614878 6.96383668 7.0625 10.3125 C6.0725 11.7975 6.0725 11.7975 5.0625 13.3125 C2.96875 13.67578125 2.96875 13.67578125 0.5625 13.625 C-0.2315625 13.62113281 -1.025625 13.61726562 -1.84375 13.61328125 C-3.9375 13.3125 -3.9375 13.3125 -5.9375 11.3125 C-6.203125 9.21875 -6.203125 9.21875 -6.1875 6.8125 C-6.19265625 6.0184375 -6.1978125 5.224375 -6.203125 4.40625 C-5.68008611 0.28347289 -3.9085318 0.31020094 0 0 Z " fill="#6F7F6F" transform="translate(281.9375,984.6875)"/>
</svg>
